solid
facet normal -0.9974477749949763 0.07139983303601805 0.0
 outer loop
  vertex -0.88 -2.155307182727384e-16 0.001
  vertex -0.8710276323626746 0.12534298409034902 -0.079
  vertex -0.88 -2.155307182727384e-16 -0.159
 endloop
endfacet
facet normal -0.9974521146102534 -0.07133918319923283 0.0
 outer loop
  vertex -0.88 -2.155307182727384e-16 -0.159
  vertex -0.8710428688552208 -0.12523705768049107 -0.07902490975887534
  vertex -0.88 -2.155307182727384e-16 0.001
 endloop
endfacet
facet normal -0.9836749943676558 0.14143111253569657 -0.11126880004164447
 outer loop
  vertex -0.88 -2.155307182727384e-16 -0.159
  vertex -0.8710276323626746 0.12534298409034902 -0.079
  vertex -0.8443538167807576 0.24792465002045855 -0.159
 endloop
endfacet
facet normal -0.9836711916806079 -0.14143056579184024 -0.11130310740250161
 outer loop
  vertex -0.8443538167807577 -0.24792465002045821 -0.159
  vertex -0.8710428688552208 -0.12523705768049107 -0.07902490975887534
  vertex -0.88 -2.155307182727384e-16 -0.159
 endloop
endfacet
facet normal -0.9836749943676558 0.14143111253569657 0.1112688000416445
 outer loop
  vertex -0.8443538167807576 0.24792465002045855 0.001
  vertex -0.8710276323626746 0.12534298409034902 -0.079
  vertex -0.88 -2.155307182727384e-16 0.001
 endloop
endfacet
facet normal -0.9836787758613436 -0.14143165623240775 0.11123467326012433
 outer loop
  vertex -0.88 -2.155307182727384e-16 0.001
  vertex -0.8710428688552208 -0.12523705768049107 -0.07902490975887534
  vertex -0.8443538167807577 -0.24792465002045821 0.001
 endloop
endfacet
facet normal -0.9039834883536635 0.41283542628859554 -0.11126887967916105
 outer loop
  vertex -0.8443538167807576 0.24792465002045855 -0.159
  vertex -0.8004739543806706 0.3655700320843766 -0.07900000000000003
  vertex -0.740303108891439 0.47576391936092666 -0.159
 endloop
endfacet
facet normal -0.9771339391551951 0.2126247044702278 0.0
 outer loop
  vertex -0.8443538167807576 0.24792465002045855 -0.159
  vertex -0.8710276323626746 0.12534298409034902 -0.079
  vertex -0.8443538167807576 0.24792465002045855 0.001
 endloop
endfacet
facet normal -0.9369486727191556 0.34946700085961263 0.0
 outer loop
  vertex -0.8443538167807576 0.24792465002045855 0.001
  vertex -0.8004739543806706 0.3655700320843766 -0.07900000000000003
  vertex -0.8443538167807576 0.24792465002045855 -0.159
 endloop
endfacet
facet normal -0.7510595191248179 0.6507967779550775 -0.11123467326012501
 outer loop
  vertex -0.740303108891439 0.47576391936092666 -0.159
  vertex -0.6650596254317466 0.5762774458718517 -0.07897509024112472
  vertex -0.5762774458718498 0.6650596254317482 -0.159
 endloop
endfacet
facet normal -0.8005412409243594 0.5992776665113483 0.0
 outer loop
  vertex -0.740303108891439 0.47576391936092666 0.001
  vertex -0.6650596254317466 0.5762774458718517 -0.07897509024112472
  vertex -0.740303108891439 0.47576391936092666 -0.159
 endloop
endfacet
facet normal -0.8776775464901151 0.47925162950906264 0.0
 outer loop
  vertex -0.740303108891439 0.47576391936092666 -0.159
  vertex -0.8004739543806706 0.3655700320843766 -0.07900000000000003
  vertex -0.740303108891439 0.47576391936092666 0.001
 endloop
endfacet
facet normal -0.5372836208552769 0.8360296329530356 -0.11126887967916062
 outer loop
  vertex -0.5762774458718498 0.6650596254317482 -0.159
  vertex -0.47575946107871836 0.7403059740364706 -0.07900000000000001
  vertex -0.36556521144165843 0.800476155911977 -0.159
 endloop
endfacet
facet normal -0.7071067811865466 0.7071067811865483 0.0
 outer loop
  vertex -0.5762774458718498 0.6650596254317482 -0.159
  vertex -0.6650596254317466 0.5762774458718517 -0.07897509024112472
  vertex -0.5762774458718498 0.6650596254317482 0.001
 endloop
endfacet
facet normal -0.599275255987978 0.8005430454138887 0.0
 outer loop
  vertex -0.5762774458718498 0.6650596254317482 0.001
  vertex -0.47575946107871836 0.7403059740364706 -0.07900000000000001
  vertex -0.5762774458718498 0.6650596254317482 -0.159
 endloop
endfacet
facet normal -0.27998309296173307 0.9535348468045235 -0.11126887967916022
 outer loop
  vertex -0.36556521144165843 0.800476155911977 -0.159
  vertex -0.24791956512537067 0.844355309824038 -0.07900000000000001
  vertex -0.12523705768048937 0.8710428688552211 -0.159
 endloop
endfacet
facet normal -0.4792463439267053 0.8776804326364386 0.0
 outer loop
  vertex -0.36556521144165843 0.800476155911977 -0.159
  vertex -0.47575946107871836 0.7403059740364706 -0.07900000000000001
  vertex -0.36556521144165843 0.800476155911977 0.001
 endloop
endfacet
facet normal -0.3494613583354146 0.9369507772718729 0.0
 outer loop
  vertex -0.36556521144165843 0.800476155911977 0.001
  vertex -0.24791956512537067 0.844355309824038 -0.07900000000000001
  vertex -0.36556521144165843 0.800476155911977 -0.159
 endloop
endfacet
facet normal 2.202472415659677e-15 0.9937865053835995 -0.11130310740250227
 outer loop
  vertex -0.12523705768048937 0.8710428688552211 -0.159
  vertex 1.1185128344359808e-15 0.88 -0.07902490975887527
  vertex 0.12523705768049234 0.8710428688552205 -0.159
 endloop
endfacet
facet normal -0.07133918319923038 0.9974521146102536 0.0
 outer loop
  vertex -0.12523705768048937 0.8710428688552211 0.001
  vertex 1.1185128344359808e-15 0.88 -0.07902490975887527
  vertex -0.12523705768048937 0.8710428688552211 -0.159
 endloop
endfacet
facet normal -0.21256234725175477 0.9771475060249729 0.0
 outer loop
  vertex -0.12523705768048937 0.8710428688552211 -0.159
  vertex -0.24791956512537067 0.844355309824038 -0.07900000000000001
  vertex -0.12523705768048937 0.8710428688552211 0.001
 endloop
endfacet
facet normal 0.27998417179914187 0.9535385209873074 -0.11123467326012593
 outer loop
  vertex 0.12523705768049234 0.8710428688552205 -0.159
  vertex 0.24792465002045924 0.8443538167807574 -0.07897509024112472
  vertex 0.3655652114416614 0.8004761559119755 -0.159
 endloop
endfacet
facet normal 0.21256528955297754 0.9771468659711594 0.0
 outer loop
  vertex 0.12523705768049234 0.8710428688552205 0.001
  vertex 0.24792465002045924 0.8443538167807574 -0.07897509024112472
  vertex 0.12523705768049234 0.8710428688552205 -0.159
 endloop
endfacet
facet normal 0.07133918319923438 0.9974521146102534 -0.0
 outer loop
  vertex 0.12523705768049234 0.8710428688552205 -0.159
  vertex 1.1185128344359808e-15 0.88 -0.07902490975887527
  vertex 0.12523705768049234 0.8710428688552205 0.001
 endloop
endfacet
facet normal 0.5372815486469321 0.836026408533906 -0.11130310740250306
 outer loop
  vertex 0.3655652114416614 0.8004761559119755 -0.159
  vertex 0.47576391936092693 0.7403031088914388 -0.07902490975887527
  vertex 0.5762774458718519 0.6650596254317463 -0.159
 endloop
endfacet
facet normal 0.3494641795991001 0.9369497249997611 -0.0
 outer loop
  vertex 0.3655652114416614 0.8004761559119755 -0.159
  vertex 0.24792465002045924 0.8443538167807574 -0.07897509024112472
  vertex 0.3655652114416614 0.8004761559119755 0.001
 endloop
endfacet
facet normal 0.47924898672005756 0.8776789895672552 0.0
 outer loop
  vertex 0.3655652114416614 0.8004761559119755 0.001
  vertex 0.47576391936092693 0.7403031088914388 -0.07902490975887527
  vertex 0.3655652114416614 0.8004761559119755 -0.159
 endloop
endfacet
facet normal 0.7510537284426623 0.6507917603004225 -0.11130310740250295
 outer loop
  vertex 0.5762774458718519 0.6650596254317463 -0.159
  vertex 0.6650596254317488 0.5762774458718491 -0.07902490975887526
  vertex 0.7403031088914404 0.4757639193609244 -0.159
 endloop
endfacet
facet normal 0.7071067811865489 0.7071067811865462 0.0
 outer loop
  vertex 0.5762774458718519 0.6650596254317463 0.001
  vertex 0.6650596254317488 0.5762774458718491 -0.07902490975887526
  vertex 0.5762774458718519 0.6650596254317463 -0.159
 endloop
endfacet
facet normal 0.5992776665113484 0.8005412409243592 -0.0
 outer loop
  vertex 0.5762774458718519 0.6650596254317463 -0.159
  vertex 0.47576391936092693 0.7403031088914388 -0.07902490975887527
  vertex 0.5762774458718519 0.6650596254317463 0.001
 endloop
endfacet
facet normal 0.9039869716039954 0.41283701703571873 -0.11123467326012523
 outer loop
  vertex 0.7403031088914404 0.4757639193609244 -0.159
  vertex 0.8004761559119767 0.3655652114416589 -0.07897509024112472
  vertex 0.844353816780758 0.247924650020457 -0.159
 endloop
endfacet
facet normal 0.800541240924362 0.5992776665113448 -0.0
 outer loop
  vertex 0.7403031088914404 0.4757639193609244 -0.159
  vertex 0.6650596254317488 0.5762774458718491 -0.07902490975887526
  vertex 0.7403031088914404 0.4757639193609244 0.001
 endloop
endfacet
facet normal 0.8776789895672562 0.4792489867200557 0.0
 outer loop
  vertex 0.7403031088914404 0.4757639193609244 0.001
  vertex 0.8004761559119767 0.3655652114416589 -0.07897509024112472
  vertex 0.7403031088914404 0.4757639193609244 -0.159
 endloop
endfacet
facet normal 0.9836711916806079 0.1414305657918389 -0.11130310740250283
 outer loop
  vertex 0.844353816780758 0.247924650020457 -0.159
  vertex 0.8710428688552211 0.1252370576804894 -0.07902490975887527
  vertex 0.88 -1.064630154867796e-15 -0.159
 endloop
endfacet
facet normal 0.9771468659711597 0.21256528955297554 0.0
 outer loop
  vertex 0.844353816780758 0.247924650020457 0.001
  vertex 0.8710428688552211 0.1252370576804894 -0.07902490975887527
  vertex 0.844353816780758 0.247924650020457 -0.159
 endloop
endfacet
facet normal 0.9369497249997624 0.34946417959909687 -0.0
 outer loop
  vertex 0.844353816780758 0.247924650020457 -0.159
  vertex 0.8004761559119767 0.3655652114416589 -0.07897509024112472
  vertex 0.844353816780758 0.247924650020457 0.001
 endloop
endfacet
facet normal 0.9836787758613432 -0.1414316562324093 -0.11123467326012551
 outer loop
  vertex 0.88 -1.064630154867796e-15 -0.159
  vertex 0.8710428688552206 -0.1252370576804919 -0.07897509024112473
  vertex 0.8443538167807573 -0.24792465002045938 -0.159
 endloop
endfacet
facet normal 0.9974521146102534 -0.07133918319923371 0.0
 outer loop
  vertex 0.88 -1.064630154867796e-15 0.001
  vertex 0.8710428688552206 -0.1252370576804919 -0.07897509024112473
  vertex 0.88 -1.064630154867796e-15 -0.159
 endloop
endfacet
facet normal 0.9974521146102537 0.07133918319923041 -0.0
 outer loop
  vertex 0.88 -1.064630154867796e-15 -0.159
  vertex 0.8710428688552211 0.1252370576804894 -0.07902490975887527
  vertex 0.88 -1.064630154867796e-15 0.001
 endloop
endfacet
facet normal 0.9039869716039945 -0.41283701703572095 -0.1112346732601246
 outer loop
  vertex 0.8443538167807573 -0.24792465002045938 -0.159
  vertex 0.800476155911976 -0.36556521144166043 -0.07897509024112476
  vertex 0.740303108891439 -0.47576391936092655 -0.159
 endloop
endfacet
facet normal 0.9771468659711592 -0.2125652895529783 0.0
 outer loop
  vertex 0.8443538167807573 -0.24792465002045938 -0.159
  vertex 0.8710428688552206 -0.1252370576804919 -0.07897509024112473
  vertex 0.8443538167807573 -0.24792465002045938 0.001
 endloop
endfacet
facet normal 0.9369497249997615 -0.349464179599099 0.0
 outer loop
  vertex 0.8443538167807573 -0.24792465002045938 0.001
  vertex 0.800476155911976 -0.36556521144166043 -0.07897509024112476
  vertex 0.8443538167807573 -0.24792465002045938 -0.159
 endloop
endfacet
facet normal 0.7510595191248182 -0.6507967779550771 -0.11123467326012498
 outer loop
  vertex 0.740303108891439 -0.47576391936092655 -0.159
  vertex 0.6650596254317471 -0.576277445871851 -0.07897509024112473
  vertex 0.5762774458718504 -0.6650596254317477 -0.159
 endloop
endfacet
facet normal 0.80054124092436 -0.5992776665113475 0.0
 outer loop
  vertex 0.740303108891439 -0.47576391936092655 0.001
  vertex 0.6650596254317471 -0.576277445871851 -0.07897509024112473
  vertex 0.740303108891439 -0.47576391936092655 -0.159
 endloop
endfacet
facet normal 0.8776789895672554 -0.47924898672005706 0.0
 outer loop
  vertex 0.740303108891439 -0.47576391936092655 -0.159
  vertex 0.800476155911976 -0.36556521144166043 -0.07897509024112476
  vertex 0.740303108891439 -0.47576391936092655 0.001
 endloop
endfacet
facet normal 0.5372836208552783 -0.8360296329530349 -0.11126887967916048
 outer loop
  vertex 0.5762774458718504 -0.6650596254317477 -0.159
  vertex 0.47575946107872097 -0.7403059740364689 -0.07900000000000001
  vertex 0.36556521144166004 -0.8004761559119762 -0.159
 endloop
endfacet
facet normal 0.7071067811865471 -0.7071067811865479 0.0
 outer loop
  vertex 0.5762774458718504 -0.6650596254317477 -0.159
  vertex 0.6650596254317471 -0.576277445871851 -0.07897509024112473
  vertex 0.5762774458718504 -0.6650596254317477 0.001
 endloop
endfacet
facet normal 0.5992752559879801 -0.800543045413887 0.0
 outer loop
  vertex 0.5762774458718504 -0.6650596254317477 0.001
  vertex 0.47575946107872097 -0.7403059740364689 -0.07900000000000001
  vertex 0.5762774458718504 -0.6650596254317477 -0.159
 endloop
endfacet
facet normal 0.27998201311623055 -0.9535311691884696 -0.11130310740250256
 outer loop
  vertex 0.36556521144166004 -0.8004761559119762 -0.159
  vertex 0.24792465002045816 -0.8443538167807577 -0.07902490975887527
  vertex 0.125237057680491 -0.8710428688552208 -0.159
 endloop
endfacet
facet normal 0.34946417959909837 -0.9369497249997617 0.0
 outer loop
  vertex 0.36556521144166004 -0.8004761559119762 0.001
  vertex 0.24792465002045816 -0.8443538167807577 -0.07902490975887527
  vertex 0.36556521144166004 -0.8004761559119762 -0.159
 endloop
endfacet
facet normal 0.4792463439267074 -0.8776804326364375 0.0
 outer loop
  vertex 0.36556521144166004 -0.8004761559119762 -0.159
  vertex 0.47575946107872097 -0.7403059740364689 -0.07900000000000001
  vertex 0.36556521144166004 -0.8004761559119762 0.001
 endloop
endfacet
facet normal -0.0 -0.9937941675541836 -0.11123467326012587
 outer loop
  vertex 0.125237057680491 -0.8710428688552208 -0.159
  vertex -1.4015459799676666e-15 -0.88 -0.07897509024112474
  vertex -0.12523705768049145 -0.8710428688552208 -0.159
 endloop
endfacet
facet normal 0.07133918319923194 -0.9974521146102534 0.0
 outer loop
  vertex 0.125237057680491 -0.8710428688552208 0.001
  vertex -1.4015459799676666e-15 -0.88 -0.07897509024112474
  vertex 0.125237057680491 -0.8710428688552208 -0.159
 endloop
endfacet
facet normal 0.21256528955297632 -0.9771468659711596 0.0
 outer loop
  vertex 0.125237057680491 -0.8710428688552208 -0.159
  vertex 0.24792465002045816 -0.8443538167807577 -0.07902490975887527
  vertex 0.125237057680491 -0.8710428688552208 0.001
 endloop
endfacet
facet normal -0.27998417179914076 -0.9535385209873078 -0.11123467326012491
 outer loop
  vertex -0.12523705768049145 -0.8710428688552208 -0.159
  vertex -0.24792465002045783 -0.8443538167807578 -0.07897509024112477
  vertex -0.36556521144166043 -0.8004761559119761 -0.159
 endloop
endfacet
facet normal -0.07133918319923326 -0.9974521146102534 0.0
 outer loop
  vertex -0.12523705768049145 -0.8710428688552208 -0.159
  vertex -1.4015459799676666e-15 -0.88 -0.07897509024112474
  vertex -0.12523705768049145 -0.8710428688552208 0.001
 endloop
endfacet
facet normal -0.21256528955297674 -0.9771468659711595 -0.0
 outer loop
  vertex -0.12523705768049145 -0.8710428688552208 0.001
  vertex -0.24792465002045783 -0.8443538167807578 -0.07897509024112477
  vertex -0.12523705768049145 -0.8710428688552208 -0.159
 endloop
endfacet
facet normal -0.5372836208552787 -0.8360296329530347 -0.1112688796791602
 outer loop
  vertex -0.36556521144166043 -0.8004761559119761 -0.159
  vertex -0.4757683776258868 -0.7403002437195544 -0.07900000000000001
  vertex -0.576277445871851 -0.6650596254317472 -0.159
 endloop
endfacet
facet normal -0.3494641795990981 -0.9369497249997619 0.0
 outer loop
  vertex -0.36556521144166043 -0.8004761559119761 -0.159
  vertex -0.24792465002045783 -0.8443538167807578 -0.07897509024112477
  vertex -0.36556521144166043 -0.8004761559119761 0.001
 endloop
endfacet
facet normal -0.47925162950906786 -0.8776775464901122 -0.0
 outer loop
  vertex -0.36556521144166043 -0.8004761559119761 0.001
  vertex -0.4757683776258868 -0.7403002437195544 -0.07900000000000001
  vertex -0.36556521144166043 -0.8004761559119761 -0.159
 endloop
endfacet
facet normal -0.7510595191248193 -0.6507967779550761 -0.1112346732601241
 outer loop
  vertex -0.576277445871851 -0.6650596254317472 -0.159
  vertex -0.6650596254317473 -0.5762774458718507 -0.07897509024112473
  vertex -0.7403031088914395 -0.47576391936092577 -0.159
 endloop
endfacet
facet normal -0.7071067811865485 -0.7071067811865466 -0.0
 outer loop
  vertex -0.576277445871851 -0.6650596254317472 0.001
  vertex -0.6650596254317473 -0.5762774458718507 -0.07897509024112473
  vertex -0.576277445871851 -0.6650596254317472 -0.159
 endloop
endfacet
facet normal -0.5992800770292855 -0.8005394364275714 0.0
 outer loop
  vertex -0.576277445871851 -0.6650596254317472 -0.159
  vertex -0.4757683776258868 -0.7403002437195544 -0.07900000000000001
  vertex -0.576277445871851 -0.6650596254317472 0.001
 endloop
endfacet
facet normal -0.9039800018484774 -0.41283383405502755 -0.11130310740250218
 outer loop
  vertex -0.7403031088914395 -0.47576391936092577 -0.159
  vertex -0.8004761559119759 -0.36556521144166076 -0.07902490975887533
  vertex -0.8443538167807577 -0.24792465002045821 -0.159
 endloop
endfacet
facet normal -0.8005412409243603 -0.599277666511347 0.0
 outer loop
  vertex -0.7403031088914395 -0.47576391936092577 -0.159
  vertex -0.6650596254317473 -0.5762774458718507 -0.07897509024112473
  vertex -0.7403031088914395 -0.47576391936092577 0.001
 endloop
endfacet
facet normal -0.8776789895672553 -0.4792489867200574 -0.0
 outer loop
  vertex -0.7403031088914395 -0.47576391936092577 0.001
  vertex -0.8004761559119759 -0.36556521144166076 -0.07902490975887533
  vertex -0.7403031088914395 -0.47576391936092577 -0.159
 endloop
endfacet
facet normal -0.9369497249997616 -0.349464179599099 0.0
 outer loop
  vertex -0.8443538167807577 -0.24792465002045821 -0.159
  vertex -0.8004761559119759 -0.36556521144166076 -0.07902490975887533
  vertex -0.8443538167807577 -0.24792465002045821 0.001
 endloop
endfacet
facet normal -0.9771468659711596 -0.21256528955297632 -0.0
 outer loop
  vertex -0.8443538167807577 -0.24792465002045821 0.001
  vertex -0.8710428688552208 -0.12523705768049107 -0.07902490975887534
  vertex -0.8443538167807577 -0.24792465002045821 -0.159
 endloop
endfacet
facet normal -0.9039834883536635 0.41283542628859543 0.11126887967916095
 outer loop
  vertex -0.740303108891439 0.47576391936092666 0.001
  vertex -0.8004739543806706 0.3655700320843766 -0.07900000000000003
  vertex -0.8443538167807576 0.24792465002045855 0.001
 endloop
endfacet
facet normal -0.7510537284426602 0.6507917603004252 0.11130310740250214
 outer loop
  vertex -0.5762774458718498 0.6650596254317482 0.001
  vertex -0.6650596254317466 0.5762774458718517 -0.07897509024112472
  vertex -0.740303108891439 0.47576391936092666 0.001
 endloop
endfacet
facet normal -0.5372836208552769 0.8360296329530356 0.11126887967916058
 outer loop
  vertex -0.36556521144165843 0.800476155911977 0.001
  vertex -0.47575946107871836 0.7403059740364706 -0.07900000000000001
  vertex -0.5762774458718498 0.6650596254317482 0.001
 endloop
endfacet
facet normal -0.27998309296173307 0.9535348468045234 0.11126887967916016
 outer loop
  vertex -0.12523705768048937 0.8710428688552211 0.001
  vertex -0.24791956512537067 0.844355309824038 -0.07900000000000001
  vertex -0.36556521144165843 0.800476155911977 0.001
 endloop
endfacet
facet normal 2.2024893968918282e-15 0.9937941675541839 0.1112346732601252
 outer loop
  vertex 0.12523705768049234 0.8710428688552205 0.001
  vertex 1.1185128344359808e-15 0.88 -0.07902490975887527
  vertex -0.12523705768048937 0.8710428688552211 0.001
 endloop
endfacet
facet normal 0.27998201311623216 0.9535311691884691 0.11130310740250295
 outer loop
  vertex 0.3655652114416614 0.8004761559119755 0.001
  vertex 0.24792465002045924 0.8443538167807574 -0.07897509024112472
  vertex 0.12523705768049234 0.8710428688552205 0.001
 endloop
endfacet
facet normal 0.5372856911291003 0.836032854361979 0.11123467326012605
 outer loop
  vertex 0.5762774458718519 0.6650596254317463 0.001
  vertex 0.47576391936092693 0.7403031088914388 -0.07902490975887527
  vertex 0.3655652114416614 0.8004761559119755 0.001
 endloop
endfacet
facet normal 0.7510595191248199 0.650796777955075 0.11123467326012598
 outer loop
  vertex 0.7403031088914404 0.4757639193609244 0.001
  vertex 0.6650596254317488 0.5762774458718491 -0.07902490975887526
  vertex 0.5762774458718519 0.6650596254317463 0.001
 endloop
endfacet
facet normal 0.903980001848478 0.41283383405502594 0.11130310740250228
 outer loop
  vertex 0.844353816780758 0.247924650020457 0.001
  vertex 0.8004761559119767 0.3655652114416589 -0.07897509024112472
  vertex 0.7403031088914404 0.4757639193609244 0.001
 endloop
endfacet
facet normal 0.9836787758613436 0.14143165623240642 0.11123467326012575
 outer loop
  vertex 0.88 -1.064630154867796e-15 0.001
  vertex 0.8710428688552211 0.1252370576804894 -0.07902490975887527
  vertex 0.844353816780758 0.247924650020457 0.001
 endloop
endfacet
facet normal 0.9836711916806075 -0.14143056579184174 0.11130310740250256
 outer loop
  vertex 0.8443538167807573 -0.24792465002045938 0.001
  vertex 0.8710428688552206 -0.1252370576804919 -0.07897509024112473
  vertex 0.88 -1.064630154867796e-15 0.001
 endloop
endfacet
facet normal 0.9039800018484772 -0.4128338340550281 0.1113031074025017
 outer loop
  vertex 0.740303108891439 -0.47576391936092655 0.001
  vertex 0.800476155911976 -0.36556521144166043 -0.07897509024112476
  vertex 0.8443538167807573 -0.24792465002045938 0.001
 endloop
endfacet
facet normal 0.7510537284426605 -0.6507917603004247 0.11130310740250209
 outer loop
  vertex 0.5762774458718504 -0.6650596254317477 0.001
  vertex 0.6650596254317471 -0.576277445871851 -0.07897509024112473
  vertex 0.740303108891439 -0.47576391936092655 0.001
 endloop
endfacet
facet normal 0.5372836208552783 -0.8360296329530349 0.11126887967916044
 outer loop
  vertex 0.36556521144166004 -0.8004761559119762 0.001
  vertex 0.47575946107872097 -0.7403059740364689 -0.07900000000000001
  vertex 0.5762774458718504 -0.6650596254317477 0.001
 endloop
endfacet
facet normal 0.2799841717991403 -0.9535385209873081 0.11123467326012555
 outer loop
  vertex 0.125237057680491 -0.8710428688552208 0.001
  vertex 0.24792465002045816 -0.8443538167807577 -0.07902490975887527
  vertex 0.36556521144166004 -0.8004761559119762 0.001
 endloop
endfacet
facet normal 0.0 -0.9937865053835995 0.11130310740250293
 outer loop
  vertex -0.12523705768049145 -0.8710428688552208 0.001
  vertex -1.4015459799676666e-15 -0.88 -0.07897509024112474
  vertex 0.125237057680491 -0.8710428688552208 0.001
 endloop
endfacet
facet normal -0.27998201311623105 -0.9535311691884696 0.11130310740250193
 outer loop
  vertex -0.36556521144166043 -0.8004761559119761 0.001
  vertex -0.24792465002045783 -0.8443538167807578 -0.07897509024112477
  vertex -0.12523705768049145 -0.8710428688552208 0.001
 endloop
endfacet
facet normal -0.5372836208552787 -0.8360296329530346 0.11126887967916016
 outer loop
  vertex -0.576277445871851 -0.6650596254317472 0.001
  vertex -0.4757683776258868 -0.7403002437195544 -0.07900000000000001
  vertex -0.36556521144166043 -0.8004761559119761 0.001
 endloop
endfacet
facet normal -0.7510537284426616 -0.6507917603004236 0.1113031074025011
 outer loop
  vertex -0.7403031088914395 -0.47576391936092577 0.001
  vertex -0.6650596254317473 -0.5762774458718507 -0.07897509024112473
  vertex -0.576277445871851 -0.6650596254317472 0.001
 endloop
endfacet
facet normal -0.9039869716039948 -0.4128370170357204 0.11123467326012502
 outer loop
  vertex -0.8443538167807577 -0.24792465002045821 0.001
  vertex -0.8004761559119759 -0.36556521144166076 -0.07902490975887533
  vertex -0.7403031088914395 -0.47576391936092577 0.001
 endloop
endfacet
facet normal -0.5905442422126764 0.08490744367389295 -0.8025261515977036
 outer loop
  vertex -0.8443538167807576 0.24792465002045855 -0.159
  vertex -0.7412760636140491 0.154213228061153 -0.24476514394876986
  vertex -0.88 -2.155307182727384e-16 -0.159
 endloop
endfacet
facet normal -0.5897598371631345 -0.08479466325406877 -0.8031146864258818
 outer loop
  vertex -0.88 -2.155307182727384e-16 -0.159
  vertex -0.7346827459720355 -0.14976367195418785 -0.2498999937062107
  vertex -0.8443538167807577 -0.24792465002045821 -0.159
 endloop
endfacet
facet normal -0.5714328087099665 0.05881014974083895 -0.8185388881521141
 outer loop
  vertex -0.88 -2.155307182727384e-16 -0.159
  vertex -0.7412760636140491 0.154213228061153 -0.24476514394876986
  vertex -0.7033333333333334 -1.7226129377101442e-16 -0.2823333333333333
 endloop
endfacet
facet normal -0.5714714180583449 -0.057653836099661196 -0.8185941934349265
 outer loop
  vertex -0.7033333333333334 -1.7226129377101442e-16 -0.2823333333333333
  vertex -0.7346827459720355 -0.14976367195418785 -0.2498999937062107
  vertex -0.88 -2.155307182727384e-16 -0.159
 endloop
endfacet
facet normal -0.4722188941712384 0.17187362153643237 -0.8645627647589527
 outer loop
  vertex -0.35 -8.57224447675664e-17 -0.529
  vertex -0.43053679588838445 0.14510170431742345 -0.4561653202365147
  vertex -0.2681155550916425 0.22497566339028852 -0.529
 endloop
endfacet
facet normal -0.4722188941712298 -0.17187362153642918 -0.8645627647589578
 outer loop
  vertex -0.26811555509164264 -0.22497566339028838 -0.529
  vertex -0.43053679588840077 -0.14510170431727262 -0.45616532023653755
  vertex -0.35 -8.57224447675664e-17 -0.529
 endloop
endfacet
facet normal -0.5699183089141112 0.09345592753239275 -0.8163694695256186
 outer loop
  vertex -0.5266666666666666 -1.289918692692904e-16 -0.4056666666666667
  vertex -0.43053679588838445 0.14510170431742345 -0.4561653202365147
  vertex -0.35 -8.57224447675664e-17 -0.529
 endloop
endfacet
facet normal -0.5699183089141163 -0.09345592753229806 -0.8163694695256258
 outer loop
  vertex -0.35 -8.57224447675664e-17 -0.529
  vertex -0.43053679588840077 -0.14510170431727262 -0.45616532023653755
  vertex -0.5266666666666666 -1.289918692692904e-16 -0.4056666666666667
 endloop
endfacet
facet normal -0.5431993779366519 0.2480708438143993 -0.8021192506469637
 outer loop
  vertex -0.740303108891439 0.47576391936092666 -0.159
  vertex -0.6651529342892061 0.33340078812415563 -0.2539206369605509
  vertex -0.8443538167807576 0.24792465002045855 -0.159
 endloop
endfacet
facet normal -0.526432405712787 0.18119761277249374 -0.8306842645319561
 outer loop
  vertex -0.6651529342892061 0.33340078812415563 -0.2539206369605509
  vertex -0.7412760636140491 0.154213228061153 -0.24476514394876986
  vertex -0.8443538167807576 0.24792465002045855 -0.159
 endloop
endfacet
facet normal -0.44840697971469556 0.38854685970952196 -0.8049611905881013
 outer loop
  vertex -0.5762774458718498 0.6650596254317482 -0.159
  vertex -0.5279307758244032 0.4829638231566731 -0.27382756872784725
  vertex -0.740303108891439 0.47576391936092666 -0.159
 endloop
endfacet
facet normal -0.46010764099023993 0.3114784902930744 -0.8314337669274345
 outer loop
  vertex -0.5279307758244032 0.4829638231566731 -0.27382756872784725
  vertex -0.6651529342892061 0.33340078812415563 -0.2539206369605509
  vertex -0.740303108891439 0.47576391936092666 -0.159
 endloop
endfacet
facet normal -0.3224596684125477 0.5017570381095158 -0.8026578579661672
 outer loop
  vertex -0.36556521144165843 0.800476155911977 -0.159
  vertex -0.3867232949830246 0.6232857712436171 -0.26126510981612794
  vertex -0.5762774458718498 0.6650596254317482 -0.159
 endloop
endfacet
facet normal -0.35342730047509846 0.43003223802231594 -0.8307595425515152
 outer loop
  vertex -0.5762774458718498 0.6650596254317482 -0.159
  vertex -0.3867232949830246 0.6232857712436171 -0.26126510981612794
  vertex -0.5279307758244032 0.4829638231566731 -0.27382756872784725
 endloop
endfacet
facet normal -0.16668566207244986 0.5676792322259524 -0.8061985979638159
 outer loop
  vertex -0.12523705768048937 0.8710428688552211 -0.159
  vertex -0.19613226947713547 0.6679651672926725 -0.2873378297239261
  vertex -0.36556521144165843 0.800476155911977 -0.159
 endloop
endfacet
facet normal -0.23237891322645568 0.5068512494653493 -0.8301215884453949
 outer loop
  vertex -0.19613226947713547 0.6679651672926725 -0.2873378297239261
  vertex -0.3867232949830246 0.6232857712436171 -0.26126510981612794
  vertex -0.36556521144165843 0.800476155911977 -0.159
 endloop
endfacet
facet normal 1.3068475737655522e-15 0.5896679904672103 -0.8076457521824542
 outer loop
  vertex 0.12523705768049234 0.8710428688552205 -0.159
  vertex 0.03911008529234232 0.6994377238353156 -0.28429015443253636
  vertex -0.12523705768048937 0.8710428688552211 -0.159
 endloop
endfacet
facet normal -0.06260954245828314 0.5487055197965316 -0.8336679781171774
 outer loop
  vertex -0.12523705768048937 0.8710428688552211 -0.159
  vertex 0.03911008529234232 0.6994377238353156 -0.28429015443253636
  vertex -0.19613226947713547 0.6679651672926725 -0.2873378297239261
 endloop
endfacet
facet normal 0.16731989889110854 0.5698392444656848 -0.8045416626265212
 outer loop
  vertex 0.3655652114416614 0.8004761559119755 -0.159
  vertex 0.2269566357523559 0.6860505471895867 -0.2688714701773026
  vertex 0.12523705768049234 0.8710428688552205 -0.159
 endloop
endfacet
facet normal 0.10719134880286688 0.5506182673195054 -0.8278463253743944
 outer loop
  vertex 0.12523705768049234 0.8710428688552205 -0.159
  vertex 0.2269566357523559 0.6860505471895867 -0.2688714701773026
  vertex 0.03911008529234232 0.6994377238353156 -0.28429015443253636
 endloop
endfacet
facet normal 0.32122745862672286 0.4998396822568911 -0.8043464501479118
 outer loop
  vertex 0.5762774458718519 0.6650596254317463 -0.159
  vertex 0.40960222268811974 0.5960358152618076 -0.26845718438449534
  vertex 0.3655652114416614 0.8004761559119755 -0.159
 endloop
endfacet
facet normal 0.24742365330705676 0.49821362568956795 -0.8310022376392523
 outer loop
  vertex 0.40960222268811974 0.5960358152618076 -0.26845718438449534
  vertex 0.2269566357523559 0.6860505471895867 -0.2688714701773026
  vertex 0.3655652114416614 0.8004761559119755 -0.159
 endloop
endfacet
facet normal 0.4507590793750027 0.3905849656670084 -0.8026578579668313
 outer loop
  vertex 0.7403031088914404 0.4757639193609244 -0.159
  vertex 0.5619051576102418 0.4714898231781439 -0.2612651098198062
  vertex 0.5762774458718519 0.6650596254317463 -0.159
 endloop
endfacet
facet normal 0.37535184340290345 0.4110312127667837 -0.8307612989213623
 outer loop
  vertex 0.5762774458718519 0.6650596254317463 -0.159
  vertex 0.5619051576102418 0.4714898231781439 -0.2612651098198062
  vertex 0.40960222268811974 0.5960358152618076 -0.26845718438449534
 endloop
endfacet
facet normal 0.5381792331274368 0.24577822049876952 -0.8061985979638157
 outer loop
  vertex 0.844353816780758 0.247924650020457 -0.159
  vertex 0.6332537128050608 0.28919728052868243 -0.28733782972392596
  vertex 0.7403031088914404 0.4757639193609244 -0.159
 endloop
endfacet
facet normal 0.46862126711171725 0.30214608454825614 -0.8301215884451907
 outer loop
  vertex 0.6332537128050608 0.28919728052868243 -0.28733782972392596
  vertex 0.5619051576102418 0.4714898231781439 -0.2612651098198062
  vertex 0.7403031088914404 0.4757639193609244 -0.159
 endloop
endfacet
facet normal 0.5879488299277938 0.08453427972335814 -0.804468848954508
 outer loop
  vertex 0.88 -1.064630154867796e-15 -0.159
  vertex 0.708081015615439 0.1052029021825733 -0.27359277046000263
  vertex 0.844353816780758 0.247924650020457 -0.159
 endloop
endfacet
facet normal 0.5351893682366159 0.15562775966588102 -0.8302724495898144
 outer loop
  vertex 0.844353816780758 0.247924650020457 -0.159
  vertex 0.708081015615439 0.1052029021825733 -0.27359277046000263
  vertex 0.6332537128050608 0.28919728052868243 -0.28733782972392596
 endloop
endfacet
facet normal 0.585075593035374 -0.08412117062472434 -0.806604103068557
 outer loop
  vertex 0.8443538167807573 -0.24792465002045938 -0.159
  vertex 0.6835646872574805 -0.10064827638501328 -0.29098898426134334
  vertex 0.88 -1.064630154867796e-15 -0.159
 endloop
endfacet
facet normal 0.5563096146878033 0.00396882060430205 -0.830965619667215
 outer loop
  vertex 0.6835646872574805 -0.10064827638501328 -0.29098898426134334
  vertex 0.708081015615439 0.1052029021825733 -0.27359277046000263
  vertex 0.88 -1.064630154867796e-15 -0.159
 endloop
endfacet
facet normal 0.5402161708628755 -0.24670845879312828 -0.8045504490696477
 outer loop
  vertex 0.740303108891439 -0.47576391936092655 -0.159
  vertex 0.6465532887930457 -0.3115589781627723 -0.27230043617185185
  vertex 0.8443538167807573 -0.24792465002045938 -0.159
 endloop
endfacet
facet normal 0.5299116033591826 -0.16667029827785138 -0.8315135021737604
 outer loop
  vertex 0.6465532887930457 -0.3115589781627723 -0.27230043617185185
  vertex 0.6835646872574805 -0.10064827638501328 -0.29098898426134334
  vertex 0.8443538167807573 -0.24792465002045938 -0.159
 endloop
endfacet
facet normal 0.451282991047276 -0.39103893771525233 -0.8021422636801724
 outer loop
  vertex 0.5762774458718504 -0.6650596254317477 -0.159
  vertex 0.5511034989825788 -0.4891150206260973 -0.2589345989336238
  vertex 0.740303108891439 -0.47576391936092655 -0.159
 endloop
endfacet
facet normal 0.46101170338782615 -0.3104086571286642 -0.8313330709884184
 outer loop
  vertex 0.740303108891439 -0.47576391936092655 -0.159
  vertex 0.5511034989825788 -0.4891150206260973 -0.2589345989336238
  vertex 0.6465532887930457 -0.3115589781627723 -0.27230043617185185
 endloop
endfacet
facet normal 0.3198674431215941 -0.4977234568231952 -0.806198597963816
 outer loop
  vertex 0.36556521144166004 -0.8004761559119762 -0.159
  vertex 0.37637506892475564 -0.5856510388776452 -0.28733782972392596
  vertex 0.5762774458718504 -0.6650596254317477 -0.159
 endloop
endfacet
facet normal 0.366651684183547 -0.4192711729551643 -0.8305288833112124
 outer loop
  vertex 0.37637506892475564 -0.5856510388776452 -0.28733782972392596
  vertex 0.5511034989825788 -0.4891150206260973 -0.2589345989336238
  vertex 0.5762774458718504 -0.6650596254317477 -0.159
 endloop
endfacet
facet normal 0.16746973349514485 -0.5703495342645987 -0.804148802851326
 outer loop
  vertex 0.125237057680491 -0.8710428688552208 -0.159
  vertex 0.21099993939723208 -0.6881543041969092 -0.27085457270019786
  vertex 0.36556521144166004 -0.8004761559119762 -0.159
 endloop
endfacet
facet normal 0.23181501718359476 -0.5074573974638357 -0.8299089031739569
 outer loop
  vertex 0.36556521144166004 -0.8004761559119762 -0.159
  vertex 0.21099993939723208 -0.6881543041969092 -0.27085457270019786
  vertex 0.37637506892475564 -0.5856510388776452 -0.28733782972392596
 endloop
endfacet
facet normal 0.0 -0.5941511839266935 -0.8043533866644116
 outer loop
  vertex -0.12523705768049145 -0.8710428688552208 -0.159
  vertex 0.011231446336263018 -0.7183704845444233 -0.2717744091031188
  vertex 0.125237057680491 -0.8710428688552208 -0.159
 endloop
endfacet
facet normal 0.08688438070768832 -0.549115645240134 -0.8312178490272888
 outer loop
  vertex 0.011231446336263018 -0.7183704845444233 -0.2717744091031188
  vertex 0.21099993939723208 -0.6881543041969092 -0.27085457270019786
  vertex 0.125237057680491 -0.8710428688552208 -0.159
 endloop
endfacet
facet normal -0.1671324609211555 -0.5692008893633348 -0.8050323521787353
 outer loop
  vertex -0.36556521144166043 -0.8004761559119761 -0.159
  vertex -0.20238171149819079 -0.6804627726769139 -0.27773433923678814
  vertex -0.12523705768049145 -0.8710428688552208 -0.159
 endloop
endfacet
facet normal -0.07415485928036111 -0.5487829300420923 -0.8326694137168279
 outer loop
  vertex -0.20238171149819079 -0.6804627726769139 -0.27773433923678814
  vertex 0.011231446336263018 -0.7183704845444233 -0.2717744091031188
  vertex -0.12523705768049145 -0.8710428688552208 -0.159
 endloop
endfacet
facet normal -0.32400682069619197 -0.5041644540544823 -0.8005234433858208
 outer loop
  vertex -0.576277445871851 -0.6650596254317472 -0.159
  vertex -0.39803083185085625 -0.6330985131411642 -0.2512730946208639
  vertex -0.36556521144166043 -0.8004761559119761 -0.159
 endloop
endfacet
facet normal -0.2344116471510562 -0.5038085636035784 -0.831401293551813
 outer loop
  vertex -0.36556521144166043 -0.8004761559119761 -0.159
  vertex -0.39803083185085625 -0.6330985131411642 -0.2512730946208639
  vertex -0.20238171149819079 -0.6804627726769139 -0.27773433923678814
 endloop
endfacet
facet normal -0.4481273520260008 -0.38830456093799076 -0.8052337824016818
 outer loop
  vertex -0.7403031088914395 -0.47576391936092577 -0.159
  vertex -0.5280640200507409 -0.4743047774288337 -0.2778185772093617
  vertex -0.576277445871851 -0.6650596254317472 -0.159
 endloop
endfacet
facet normal -0.3535842041086625 -0.42853893171703605 -0.8314641270720374
 outer loop
  vertex -0.5280640200507409 -0.4743047774288337 -0.2778185772093617
  vertex -0.39803083185085625 -0.6330985131411642 -0.2512730946208639
  vertex -0.576277445871851 -0.6650596254317472 -0.159
 endloop
endfacet
facet normal -0.5422736918565718 -0.24764809714656427 -0.8028758702937394
 outer loop
  vertex -0.8443538167807577 -0.24792465002045821 -0.159
  vertex -0.6597879942154767 -0.3255478045021712 -0.2597153988343501
  vertex -0.7403031088914395 -0.47576391936092577 -0.159
 endloop
endfacet
facet normal -0.4629899101562861 -0.3088704507034538 -0.8308064683039722
 outer loop
  vertex -0.7403031088914395 -0.47576391936092577 -0.159
  vertex -0.6597879942154767 -0.3255478045021712 -0.2597153988343501
  vertex -0.5280640200507409 -0.4743047774288337 -0.2778185772093617
 endloop
endfacet
facet normal -0.5281434766106639 -0.17866775161637546 -0.8301459526167373
 outer loop
  vertex -0.8443538167807577 -0.24792465002045821 -0.159
  vertex -0.7346827459720355 -0.14976367195418785 -0.2498999937062107
  vertex -0.6597879942154767 -0.3255478045021712 -0.2597153988343501
 endloop
endfacet
facet normal -0.26545986998732884 0.4597899821886807 -0.8474221083410813
 outer loop
  vertex -0.2681155550916425 0.22497566339028852 -0.529
  vertex -0.2702269453868832 0.46127092642556333 -0.4001307114829593
  vertex -0.060776862183426254 0.34468271355427266 -0.529
 endloop
endfacet
facet normal -0.399639052587248 0.43614577927528053 -0.8062663870381335
 outer loop
  vertex -0.2681155550916425 0.22497566339028852 -0.529
  vertex -0.46230265031510326 0.32365097012477045 -0.3793700920065695
  vertex -0.2702269453868832 0.46127092642556333 -0.4001307114829593
 endloop
endfacet
facet normal -0.5001743852622441 0.2655133490819479 -0.8242137136609802
 outer loop
  vertex -0.2681155550916425 0.22497566339028852 -0.529
  vertex -0.43053679588838445 0.14510170431742345 -0.4561653202365147
  vertex -0.46230265031510326 0.32365097012477045 -0.3793700920065695
 endloop
endfacet
facet normal 0.09210224921515668 0.522337811519826 -0.8477501910033333
 outer loop
  vertex -0.060776862183426254 0.34468271355427266 -0.529
  vertex 0.09671839781452383 0.523225696257207 -0.401880690942379
  vertex 0.174999999999999 0.3031088913245541 -0.529
 endloop
endfacet
facet normal -0.1927300834758418 0.551133747483405 -0.811853870661644
 outer loop
  vertex -0.2702269453868832 0.46127092642556333 -0.4001307114829593
  vertex -0.07817068328051882 0.5523653190478596 -0.3838837303087693
  vertex -0.060776862183426254 0.34468271355427266 -0.529
 endloop
endfacet
facet normal 0.011230631500877959 0.5733650111818258 -0.8192230690529633
 outer loop
  vertex -0.060776862183426254 0.34468271355427266 -0.529
  vertex -0.07817068328051882 0.5523653190478596 -0.3838837303087693
  vertex 0.09671839781452383 0.523225696257207 -0.401880690942379
 endloop
endfacet
facet normal 0.40846288238093015 0.34274105395544974 -0.8459826497337697
 outer loop
  vertex 0.174999999999999 0.3031088913245541 -0.529
  vertex 0.4177109842250738 0.3518202164561062 -0.39207780761970223
  vertex 0.3288924172750674 0.11970705016398542 -0.529
 endloop
endfacet
facet normal 0.3683671646290646 0.4504924939645159 -0.8132417505912828
 outer loop
  vertex 0.174999999999999 0.3031088913245541 -0.529
  vertex 0.27729261062386423 0.5103291895995093 -0.3678764130558914
  vertex 0.4177109842250738 0.3518202164561062 -0.39207780761970223
 endloop
endfacet
facet normal 0.19278302603516181 0.5412358896058466 -0.8184732229433618
 outer loop
  vertex 0.09671839781452383 0.523225696257207 -0.401880690942379
  vertex 0.27729261062386423 0.5103291895995093 -0.3678764130558914
  vertex 0.174999999999999 0.3031088913245541 -0.529
 endloop
endfacet
facet normal 0.5300978111682484 1.843647036002193e-15 -0.8479365015109517
 outer loop
  vertex 0.3288924172750674 0.11970705016398542 -0.529
  vertex 0.530876874657032 0.0008752158311340006 -0.40272696120830614
  vertex 0.32889241727506824 -0.11970705016398314 -0.529
 endloop
endfacet
facet normal 0.5076535010784472 0.2853010754663522 -0.8129521629103017
 outer loop
  vertex 0.4177109842250738 0.3518202164561062 -0.39207780761970223
  vertex 0.5459677596388459 0.18209026557201485 -0.37155278251857315
  vertex 0.3288924172750674 0.11970705016398542 -0.529
 endloop
endfacet
facet normal 0.5667866294411446 0.09361066856693231 -0.8185291439021573
 outer loop
  vertex 0.3288924172750674 0.11970705016398542 -0.529
  vertex 0.5459677596388459 0.18209026557201485 -0.37155278251857315
  vertex 0.530876874657032 0.0008752158311340006 -0.40272696120830614
 endloop
endfacet
facet normal 0.4084647690640011 -0.3427426370705145 -0.8459810974055164
 outer loop
  vertex 0.32889241727506824 -0.11970705016398314 -0.529
  vertex 0.41649966643080594 -0.3531814669881917 -0.39211028407050863
  vertex 0.17500000000000066 -0.3031088913245531 -0.529
 endloop
endfacet
facet normal 0.5059117434658272 -0.28708108926908826 -0.8134111850764292
 outer loop
  vertex 0.32889241727506824 -0.11970705016398314 -0.529
  vertex 0.5343863936022993 -0.1817687577108747 -0.3792865946840236
  vertex 0.41649966643080594 -0.3531814669881917 -0.39211028407050863
 endloop
endfacet
facet normal 0.567521744998727 -0.0940721464118095 -0.8179666864995635
 outer loop
  vertex 0.530876874657032 0.0008752158311340006 -0.40272696120830614
  vertex 0.5343863936022993 -0.1817687577108747 -0.3792865946840236
  vertex 0.32889241727506824 -0.11970705016398314 -0.529
 endloop
endfacet
facet normal 0.0922350316802207 -0.5230908582998948 -0.847271298282922
 outer loop
  vertex 0.17500000000000066 -0.3031088913245531 -0.529
  vertex 0.09187753073419018 -0.527886206597197 -0.3992751345301194
  vertex -0.060776862183425484 -0.3446827135542728 -0.529
 endloop
endfacet
facet normal 0.3653247705354135 -0.4562595421575539 -0.8113969695675644
 outer loop
  vertex 0.41649966643080594 -0.3531814669881917 -0.39211028407050863
  vertex 0.26641869161145887 -0.5125928931753632 -0.3700437897270866
  vertex 0.17500000000000066 -0.3031088913245531 -0.529
 endloop
endfacet
facet normal 0.1847966743988621 -0.5416167945660131 -0.8200618494815853
 outer loop
  vertex 0.17500000000000066 -0.3031088913245531 -0.529
  vertex 0.26641869161145887 -0.5125928931753632 -0.3700437897270866
  vertex 0.09187753073419018 -0.527886206597197 -0.3992751345301194
 endloop
endfacet
facet normal -0.2666359808357865 -0.4618270659335432 -0.8459438603683773
 outer loop
  vertex -0.060776862183425484 -0.3446827135542728 -0.529
  vertex -0.27877876711623417 -0.4695711237269795 -0.39210675541215356
  vertex -0.26811555509164264 -0.22497566339028838 -0.529
 endloop
endfacet
facet normal -0.19718161074308704 -0.5473388061347054 -0.8133508736601917
 outer loop
  vertex -0.060776862183425484 -0.3446827135542728 -0.529
  vertex -0.08766554970340464 -0.5629626136910733 -0.3755914051354845
  vertex -0.27877876711623417 -0.4695711237269795 -0.39210675541215356
 endloop
endfacet
facet normal 0.004519283272919671 -0.5753692328732196 -0.817881300643059
 outer loop
  vertex 0.09187753073419018 -0.527886206597197 -0.3992751345301194
  vertex -0.08766554970340464 -0.5629626136910733 -0.3755914051354845
  vertex -0.060776862183425484 -0.3446827135542728 -0.529
 endloop
endfacet
facet normal -0.3993541613915395 -0.4344314189912345 -0.8073323949728035
 outer loop
  vertex -0.27877876711623417 -0.4695711237269795 -0.39210675541215356
  vertex -0.44668091826954187 -0.3184461027286499 -0.3903739307899886
  vertex -0.26811555509164264 -0.22497566339028838 -0.529
 endloop
endfacet
facet normal -0.5003382447975682 -0.2661139022247444 -0.8239205251937884
 outer loop
  vertex -0.44668091826954187 -0.3184461027286499 -0.3903739307899886
  vertex -0.43053679588840077 -0.14510170431727262 -0.45616532023653755
  vertex -0.26811555509164264 -0.22497566339028838 -0.529
 endloop
endfacet
facet normal -0.5703257954403786 0.0855336828173804 -0.8169531664416236
 outer loop
  vertex -0.7033333333333334 -1.7226129377101442e-16 -0.2823333333333333
  vertex -0.605864164462112 0.18590843863031065 -0.3309135328781605
  vertex -0.5266666666666666 -1.289918692692904e-16 -0.4056666666666667
 endloop
endfacet
facet normal -0.5706375280115864 -0.07893375910322947 -0.8173997022868674
 outer loop
  vertex -0.5266666666666666 -1.289918692692904e-16 -0.4056666666666667
  vertex -0.5939774161507584 -0.1675300381088084 -0.34249828622759004
  vertex -0.7033333333333334 -1.7226129377101442e-16 -0.2823333333333333
 endloop
endfacet
facet normal -0.5469039769037345 0.06870228890045346 -0.8343716411448306
 outer loop
  vertex -0.7033333333333334 -1.7226129377101442e-16 -0.2823333333333333
  vertex -0.7412760636140491 0.154213228061153 -0.24476514394876986
  vertex -0.605864164462112 0.18590843863031065 -0.3309135328781605
 endloop
endfacet
facet normal -0.5542211876304889 -0.0637190193445221 -0.8299269616991743
 outer loop
  vertex -0.5939774161507584 -0.1675300381088084 -0.34249828622759004
  vertex -0.7346827459720355 -0.14976367195418785 -0.2498999937062107
  vertex -0.7033333333333334 -1.7226129377101442e-16 -0.2823333333333333
 endloop
endfacet
facet normal -0.565187266540171 0.08900694331264465 -0.8201470098604209
 outer loop
  vertex -0.605864164462112 0.18590843863031065 -0.3309135328781605
  vertex -0.43053679588838445 0.14510170431742345 -0.4561653202365147
  vertex -0.5266666666666666 -1.289918692692904e-16 -0.4056666666666667
 endloop
endfacet
facet normal -0.560993956585364 -0.08508431920067515 -0.8234357529891791
 outer loop
  vertex -0.5266666666666666 -1.289918692692904e-16 -0.4056666666666667
  vertex -0.43053679588840077 -0.14510170431727262 -0.45616532023653755
  vertex -0.5939774161507584 -0.1675300381088084 -0.34249828622759004
 endloop
endfacet
facet normal 0.3452278834232794 0.43296243813872737 -0.832683154427932
 outer loop
  vertex 0.4177109842250738 0.3518202164561062 -0.39207780761970223
  vertex 0.27729261062386423 0.5103291895995093 -0.3678764130558914
  vertex 0.40960222268811974 0.5960358152618076 -0.26845718438449534
 endloop
endfacet
facet normal 0.3874192932165305 0.42656654659811366 -0.8172804124454245
 outer loop
  vertex 0.40960222268811974 0.5960358152618076 -0.26845718438449534
  vertex 0.5619051576102418 0.4714898231781439 -0.2612651098198062
  vertex 0.4177109842250738 0.3518202164561062 -0.39207780761970223
 endloop
endfacet
facet normal 0.48248416087335355 0.2635786766863643 -0.8353055223704683
 outer loop
  vertex 0.6332537128050608 0.28919728052868243 -0.28733782972392596
  vertex 0.5459677596388459 0.18209026557201485 -0.37155278251857315
  vertex 0.4177109842250738 0.3518202164561062 -0.39207780761970223
 endloop
endfacet
facet normal 0.4866712317312679 0.3074343183294787 -0.8177011997780481
 outer loop
  vertex 0.4177109842250738 0.3518202164561062 -0.39207780761970223
  vertex 0.5619051576102418 0.4714898231781439 -0.2612651098198062
  vertex 0.6332537128050608 0.28919728052868243 -0.28733782972392596
 endloop
endfacet
facet normal 0.3389007023043683 -0.4345720916426646 -0.8344419758994185
 outer loop
  vertex 0.37637506892475564 -0.5856510388776452 -0.28733782972392596
  vertex 0.26641869161145887 -0.5125928931753632 -0.3700437897270866
  vertex 0.41649966643080594 -0.3531814669881917 -0.39211028407050863
 endloop
endfacet
facet normal 0.3730752307278413 -0.43398219233021196 -0.8200453212826903
 outer loop
  vertex 0.41649966643080594 -0.3531814669881917 -0.39211028407050863
  vertex 0.5511034989825788 -0.4891150206260973 -0.2589345989336238
  vertex 0.37637506892475564 -0.5856510388776452 -0.28733782972392596
 endloop
endfacet
facet normal 0.4827234803458753 -0.2696512695834821 -0.8332264004067451
 outer loop
  vertex 0.41649966643080594 -0.3531814669881917 -0.39211028407050863
  vertex 0.5343863936022993 -0.1817687577108747 -0.3792865946840236
  vertex 0.6465532887930457 -0.3115589781627723 -0.27230043617185185
 endloop
endfacet
facet normal 0.4825037212636939 -0.32073703157601224 -0.8150570014069543
 outer loop
  vertex 0.6465532887930457 -0.3115589781627723 -0.27230043617185185
  vertex 0.5511034989825788 -0.4891150206260973 -0.2589345989336238
  vertex 0.41649966643080594 -0.3531814669881917 -0.39211028407050863
 endloop
endfacet
facet normal -0.37624945077348015 0.39898375242559586 -0.8362106888177436
 outer loop
  vertex -0.2702269453868832 0.46127092642556333 -0.4001307114829593
  vertex -0.46230265031510326 0.32365097012477045 -0.3793700920065695
  vertex -0.5279307758244032 0.4829638231566731 -0.27382756872784725
 endloop
endfacet
facet normal -0.36489111825871157 0.4406218894713461 -0.8201870654519051
 outer loop
  vertex -0.5279307758244032 0.4829638231566731 -0.27382756872784725
  vertex -0.3867232949830246 0.6232857712436171 -0.26126510981612794
  vertex -0.2702269453868832 0.46127092642556333 -0.4001307114829593
 endloop
endfacet
facet normal -0.17557379818670035 0.5193305048429495 -0.8363430325708842
 outer loop
  vertex -0.19613226947713547 0.6679651672926725 -0.2873378297239261
  vertex -0.07817068328051882 0.5523653190478596 -0.3838837303087693
  vertex -0.2702269453868832 0.46127092642556333 -0.4001307114829593
 endloop
endfacet
facet normal -0.23557578519834396 0.5292506690611852 -0.8151059923264408
 outer loop
  vertex -0.2702269453868832 0.46127092642556333 -0.4001307114829593
  vertex -0.3867232949830246 0.6232857712436171 -0.26126510981612794
  vertex -0.19613226947713547 0.6679651672926725 -0.2873378297239261
 endloop
endfacet
facet normal -0.521392331193456 0.2571889859711794 -0.8136361978598113
 outer loop
  vertex -0.46230265031510326 0.32365097012477045 -0.3793700920065695
  vertex -0.43053679588838445 0.14510170431742345 -0.4561653202365147
  vertex -0.605864164462112 0.18590843863031065 -0.3309135328781605
 endloop
endfacet
facet normal -0.5035311821574913 0.23202966068601555 -0.8322370967200465
 outer loop
  vertex -0.605864164462112 0.18590843863031065 -0.3309135328781605
  vertex -0.6651529342892061 0.33340078812415563 -0.2539206369605509
  vertex -0.46230265031510326 0.32365097012477045 -0.3793700920065695
 endloop
endfacet
facet normal -0.5586187456703647 0.19613746072033691 -0.8059002379251706
 outer loop
  vertex -0.605864164462112 0.18590843863031065 -0.3309135328781605
  vertex -0.7412760636140491 0.154213228061153 -0.24476514394876986
  vertex -0.6651529342892061 0.33340078812415563 -0.2539206369605509
 endloop
endfacet
facet normal -0.3743961448701013 -0.40640304853502446 -0.8334651095563897
 outer loop
  vertex -0.5280640200507409 -0.4743047774288337 -0.2778185772093617
  vertex -0.44668091826954187 -0.3184461027286499 -0.3903739307899886
  vertex -0.27877876711623417 -0.4695711237269795 -0.39210675541215356
 endloop
endfacet
facet normal -0.3677142376884928 -0.4382281827811854 -0.8202086924786098
 outer loop
  vertex -0.27877876711623417 -0.4695711237269795 -0.39210675541215356
  vertex -0.39803083185085625 -0.6330985131411642 -0.2512730946208639
  vertex -0.5280640200507409 -0.4743047774288337 -0.2778185772093617
 endloop
endfacet
facet normal -0.1813131913388755 -0.5187763247031889 -0.8354619390337084
 outer loop
  vertex -0.27877876711623417 -0.4695711237269795 -0.39210675541215356
  vertex -0.08766554970340464 -0.5629626136910733 -0.3755914051354845
  vertex -0.20238171149819079 -0.6804627726769139 -0.27773433923678814
 endloop
endfacet
facet normal -0.23811448765768903 -0.5282613888820368 -0.8150100587010799
 outer loop
  vertex -0.20238171149819079 -0.6804627726769139 -0.27773433923678814
  vertex -0.39803083185085625 -0.6330985131411642 -0.2512730946208639
  vertex -0.27877876711623417 -0.4695711237269795 -0.39210675541215356
 endloop
endfacet
facet normal -0.527499146113231 -0.25807621631368005 -0.8094080042988375
 outer loop
  vertex -0.5939774161507584 -0.1675300381088084 -0.34249828622759004
  vertex -0.43053679588840077 -0.14510170431727262 -0.45616532023653755
  vertex -0.44668091826954187 -0.3184461027286499 -0.3903739307899886
 endloop
endfacet
facet normal -0.5035362507857729 -0.2270078803776707 -0.8336178179423975
 outer loop
  vertex -0.44668091826954187 -0.3184461027286499 -0.3903739307899886
  vertex -0.6597879942154767 -0.3255478045021712 -0.2597153988343501
  vertex -0.5939774161507584 -0.1675300381088084 -0.34249828622759004
 endloop
endfacet
facet normal -0.556313029215921 -0.19187744170690554 -0.8085164567828035
 outer loop
  vertex -0.6597879942154767 -0.3255478045021712 -0.2597153988343501
  vertex -0.7346827459720355 -0.14976367195418785 -0.2498999937062107
  vertex -0.5939774161507584 -0.1675300381088084 -0.34249828622759004
 endloop
endfacet
facet normal 0.007276902122257062 0.5567089641363083 -0.830675734535313
 outer loop
  vertex -0.07817068328051882 0.5523653190478596 -0.3838837303087693
  vertex 0.03911008529234232 0.6994377238353156 -0.28429015443253636
  vertex 0.09671839781452383 0.523225696257207 -0.401880690942379
 endloop
endfacet
facet normal 0.10756279479770735 0.5759497294330261 -0.8103777849505317
 outer loop
  vertex 0.03911008529234232 0.6994377238353156 -0.28429015443253636
  vertex 0.2269566357523559 0.6860505471895867 -0.2688714701773026
  vertex 0.09671839781452383 0.523225696257207 -0.401880690942379
 endloop
endfacet
facet normal 0.19365437557754106 0.5230996528203188 -0.8299787563780983
 outer loop
  vertex 0.09671839781452383 0.523225696257207 -0.401880690942379
  vertex 0.2269566357523559 0.6860505471895867 -0.2688714701773026
  vertex 0.27729261062386423 0.5103291895995093 -0.3678764130558914
 endloop
endfacet
facet normal -0.001036286099439142 -0.5559399189741092 -0.8312218311631263
 outer loop
  vertex 0.09187753073419018 -0.527886206597197 -0.3992751345301194
  vertex 0.011231446336263018 -0.7183704845444233 -0.2717744091031188
  vertex -0.08766554970340464 -0.5629626136910733 -0.3755914051354845
 endloop
endfacet
facet normal 0.09151122147482876 -0.5803756607956071 -0.8091908234157424
 outer loop
  vertex 0.09187753073419018 -0.527886206597197 -0.3992751345301194
  vertex 0.21099993939723208 -0.6881543041969092 -0.27085457270019786
  vertex 0.011231446336263018 -0.7183704845444233 -0.2717744091031188
 endloop
endfacet
facet normal 0.18508996260133437 -0.527044454319831 -0.8294370674830902
 outer loop
  vertex 0.26641869161145887 -0.5125928931753632 -0.3700437897270866
  vertex 0.21099993939723208 -0.6881543041969092 -0.27085457270019786
  vertex 0.09187753073419018 -0.527886206597197 -0.3992751345301194
 endloop
endfacet
facet normal 0.5452804254945023 -0.09638952998019557 -0.8326934106156549
 outer loop
  vertex 0.530876874657032 0.0008752158311340006 -0.40272696120830614
  vertex 0.6835646872574805 -0.10064827638501328 -0.29098898426134334
  vertex 0.5343863936022993 -0.1817687577108747 -0.3792865946840236
 endloop
endfacet
facet normal 0.5897028453911463 -0.001981311976231013 -0.8076178728460873
 outer loop
  vertex 0.530876874657032 0.0008752158311340006 -0.40272696120830614
  vertex 0.708081015615439 0.1052029021825733 -0.27359277046000263
  vertex 0.6835646872574805 -0.10064827638501328 -0.29098898426134334
 endloop
endfacet
facet normal 0.548114334245595 0.09726431402319473 -0.8307287943800343
 outer loop
  vertex 0.5459677596388459 0.18209026557201485 -0.37155278251857315
  vertex 0.708081015615439 0.1052029021825733 -0.27359277046000263
  vertex 0.530876874657032 0.0008752158311340006 -0.40272696120830614
 endloop
endfacet
facet normal -0.48362824971514806 0.33615782392383714 -0.8081470370497271
 outer loop
  vertex -0.46230265031510326 0.32365097012477045 -0.3793700920065695
  vertex -0.6651529342892061 0.33340078812415563 -0.2539206369605509
  vertex -0.5279307758244032 0.4829638231566731 -0.27382756872784725
 endloop
endfacet
facet normal -0.4851615568091409 -0.33111979228636806 -0.8093070782779324
 outer loop
  vertex -0.5280640200507409 -0.4743047774288337 -0.2778185772093617
  vertex -0.6597879942154767 -0.3255478045021712 -0.2597153988343501
  vertex -0.44668091826954187 -0.3184461027286499 -0.3903739307899886
 endloop
endfacet
facet normal 0.2512255541858756 -0.5350281283823077 -0.8066167756523072
 outer loop
  vertex 0.37637506892475564 -0.5856510388776452 -0.28733782972392596
  vertex 0.21099993939723208 -0.6881543041969092 -0.27085457270019786
  vertex 0.26641869161145887 -0.5125928931753632 -0.3700437897270866
 endloop
endfacet
facet normal 0.2628692979659283 0.5296668410210978 -0.8064445236404245
 outer loop
  vertex 0.27729261062386423 0.5103291895995093 -0.3678764130558914
  vertex 0.2269566357523559 0.6860505471895867 -0.2688714701773026
  vertex 0.40960222268811974 0.5960358152618076 -0.26845718438449534
 endloop
endfacet
facet normal 0.567627300191024 0.17067780254447815 -0.8053994883264064
 outer loop
  vertex 0.6332537128050608 0.28919728052868243 -0.28733782972392596
  vertex 0.708081015615439 0.1052029021825733 -0.27359277046000263
  vertex 0.5459677596388459 0.18209026557201485 -0.37155278251857315
 endloop
endfacet
facet normal 0.5690974782696043 -0.17113230276362768 -0.8042647544049132
 outer loop
  vertex 0.5343863936022993 -0.1817687577108747 -0.3792865946840236
  vertex 0.6835646872574805 -0.10064827638501328 -0.29098898426134334
  vertex 0.6465532887930457 -0.3115589781627723 -0.27230043617185185
 endloop
endfacet
facet normal -0.06948093756866217 0.5967489277960024 -0.799414233353961
 outer loop
  vertex -0.19613226947713547 0.6679651672926725 -0.2873378297239261
  vertex 0.03911008529234232 0.6994377238353156 -0.28429015443253636
  vertex -0.07817068328051882 0.5523653190478596 -0.3838837303087693
 endloop
endfacet
facet normal -0.08213700025504483 -0.589221785812212 -0.8037855437325125
 outer loop
  vertex -0.08766554970340464 -0.5629626136910733 -0.3755914051354845
  vertex 0.011231446336263018 -0.7183704845444233 -0.2717744091031188
  vertex -0.20238171149819079 -0.6804627726769139 -0.27773433923678814
 endloop
endfacet
facet normal 0.0 0.0 1.0
 outer loop
  vertex -0.8443538167807576 0.24792465002045855 0.001
  vertex -0.88 -2.155307182727384e-16 0.001
  vertex -0.6352349196328028 0.08173636787943976 0.001
 endloop
endfacet
facet normal 0.0 0.0 1.0
 outer loop
  vertex -0.88 -2.155307182727384e-16 0.001
  vertex -0.8443538167807577 -0.24792465002045821 0.001
  vertex -0.7147025551705836 -0.11666909285004311 0.001
 endloop
endfacet
facet normal 0.0 0.0 1.0
 outer loop
  vertex -0.6352349196328028 0.08173636787943976 0.001
  vertex -0.88 -2.155307182727384e-16 0.001
  vertex -0.7147025551705836 -0.11666909285004311 0.001
 endloop
endfacet
facet normal 0.0 0.0 1.0
 outer loop
  vertex -0.740303108891439 0.47576391936092666 0.001
  vertex -0.8443538167807576 0.24792465002045855 0.001
  vertex -0.6394964455394452 0.29996707926817245 0.001
 endloop
endfacet
facet normal -0.0 0.0 1.0
 outer loop
  vertex -0.8443538167807576 0.24792465002045855 0.001
  vertex -0.6352349196328028 0.08173636787943976 0.001
  vertex -0.6394964455394452 0.29996707926817245 0.001
 endloop
endfacet
facet normal 0.0 0.0 1.0
 outer loop
  vertex -0.5762774458718498 0.6650596254317482 0.001
  vertex -0.740303108891439 0.47576391936092666 0.001
  vertex -0.49940715724917784 0.4451478588075793 0.001
 endloop
endfacet
facet normal 0.0 0.0 1.0
 outer loop
  vertex -0.740303108891439 0.47576391936092666 0.001
  vertex -0.6394964455394452 0.29996707926817245 0.001
  vertex -0.49940715724917784 0.4451478588075793 0.001
 endloop
endfacet
facet normal 0.0 0.0 1.0
 outer loop
  vertex -0.36556521144165843 0.800476155911977 0.001
  vertex -0.5762774458718498 0.6650596254317482 0.001
  vertex -0.3713654453839669 0.577650059153944 0.001
 endloop
endfacet
facet normal 0.0 0.0 1.0
 outer loop
  vertex -0.3713654453839669 0.577650059153944 0.001
  vertex -0.5762774458718498 0.6650596254317482 0.001
  vertex -0.49940715724917784 0.4451478588075793 0.001
 endloop
endfacet
facet normal 0.0 0.0 1.0
 outer loop
  vertex -0.12523705768048937 0.8710428688552211 0.001
  vertex -0.36556521144165843 0.800476155911977 0.001
  vertex -0.19835081925241804 0.6387463517844422 0.001
 endloop
endfacet
facet normal 0.0 0.0 1.0
 outer loop
  vertex -0.36556521144165843 0.800476155911977 0.001
  vertex -0.3713654453839669 0.577650059153944 0.001
  vertex -0.19835081925241804 0.6387463517844422 0.001
 endloop
endfacet
facet normal 0.0 0.0 1.0
 outer loop
  vertex 0.12523705768049234 0.8710428688552205 0.001
  vertex -0.12523705768048937 0.8710428688552211 0.001
  vertex -0.015401572333427578 0.7012043450930353 0.001
 endloop
endfacet
facet normal 0.0 0.0 1.0
 outer loop
  vertex -0.015401572333427578 0.7012043450930353 0.001
  vertex -0.12523705768048937 0.8710428688552211 0.001
  vertex -0.19835081925241804 0.6387463517844422 0.001
 endloop
endfacet
facet normal 0.0 0.0 1.0
 outer loop
  vertex 0.3655652114416614 0.8004761559119755 0.001
  vertex 0.12523705768049234 0.8710428688552205 0.001
  vertex 0.18428856849066258 0.627629225981813 0.001
 endloop
endfacet
facet normal 0.0 0.0 1.0
 outer loop
  vertex 0.18428856849066258 0.627629225981813 0.001
  vertex 0.12523705768049234 0.8710428688552205 0.001
  vertex -0.015401572333427578 0.7012043450930353 0.001
 endloop
endfacet
facet normal 0.0 0.0 1.0
 outer loop
  vertex 0.5762774458718519 0.6650596254317463 0.001
  vertex 0.3655652114416614 0.8004761559119755 0.001
  vertex 0.3886050827641966 0.5366806456616013 0.001
 endloop
endfacet
facet normal 0.0 0.0 1.0
 outer loop
  vertex 0.3655652114416614 0.8004761559119755 0.001
  vertex 0.18428856849066258 0.627629225981813 0.001
  vertex 0.3886050827641966 0.5366806456616013 0.001
 endloop
endfacet
facet normal 0.0 0.0 1.0
 outer loop
  vertex 0.7403031088914404 0.4757639193609244 0.001
  vertex 0.5762774458718519 0.6650596254317463 0.001
  vertex 0.5511333640448582 0.45894282305791595 0.001
 endloop
endfacet
facet normal 0.0 0.0 1.0
 outer loop
  vertex 0.5762774458718519 0.6650596254317463 0.001
  vertex 0.3886050827641966 0.5366806456616013 0.001
  vertex 0.5511333640448582 0.45894282305791595 0.001
 endloop
endfacet
facet normal 0.0 0.0 1.0
 outer loop
  vertex 0.844353816780758 0.247924650020457 0.001
  vertex 0.7403031088914404 0.4757639193609244 0.001
  vertex 0.6245293974113675 0.29031877754679847 0.001
 endloop
endfacet
facet normal 0.0 -0.0 1.0
 outer loop
  vertex 0.6245293974113675 0.29031877754679847 0.001
  vertex 0.7403031088914404 0.4757639193609244 0.001
  vertex 0.5511333640448582 0.45894282305791595 0.001
 endloop
endfacet
facet normal 0.0 0.0 1.0
 outer loop
  vertex 0.88 -1.064630154867796e-15 0.001
  vertex 0.844353816780758 0.247924650020457 0.001
  vertex 0.6920794194791743 0.11793482309161768 0.001
 endloop
endfacet
facet normal 0.0 0.0 1.0
 outer loop
  vertex 0.844353816780758 0.247924650020457 0.001
  vertex 0.6245293974113675 0.29031877754679847 0.001
  vertex 0.6920794194791743 0.11793482309161768 0.001
 endloop
endfacet
facet normal 0.0 -0.0 1.0
 outer loop
  vertex 0.8443538167807573 -0.24792465002045938 0.001
  vertex 0.88 -1.064630154867796e-15 0.001
  vertex 0.6330313810712784 -0.08099451728323373 0.001
 endloop
endfacet
facet normal 0.0 0.0 1.0
 outer loop
  vertex 0.6330313810712784 -0.08099451728323373 0.001
  vertex 0.88 -1.064630154867796e-15 0.001
  vertex 0.6920794194791743 0.11793482309161768 0.001
 endloop
endfacet
facet normal 0.0 -0.0 1.0
 outer loop
  vertex 0.740303108891439 -0.47576391936092655 0.001
  vertex 0.8443538167807573 -0.24792465002045938 0.001
  vertex 0.6412232444217416 -0.2946570051608023 0.001
 endloop
endfacet
facet normal 0.0 0.0 1.0
 outer loop
  vertex 0.8443538167807573 -0.24792465002045938 0.001
  vertex 0.6330313810712784 -0.08099451728323373 0.001
  vertex 0.6412232444217416 -0.2946570051608023 0.001
 endloop
endfacet
facet normal 0.0 -0.0 1.0
 outer loop
  vertex 0.5762774458718504 -0.6650596254317477 0.001
  vertex 0.740303108891439 -0.47576391936092655 0.001
  vertex 0.5212747634634565 -0.4469994817248799 0.001
 endloop
endfacet
facet normal -0.0 0.0 1.0
 outer loop
  vertex 0.5212747634634565 -0.4469994817248799 0.001
  vertex 0.740303108891439 -0.47576391936092655 0.001
  vertex 0.6412232444217416 -0.2946570051608023 0.001
 endloop
endfacet
facet normal 0.0 0.0 1.0
 outer loop
  vertex 0.36556521144166004 -0.8004761559119762 0.001
  vertex 0.5762774458718504 -0.6650596254317477 0.001
  vertex 0.394874126467319 -0.5955867943977692 0.001
 endloop
endfacet
facet normal 0.0 0.0 1.0
 outer loop
  vertex 0.5762774458718504 -0.6650596254317477 0.001
  vertex 0.5212747634634565 -0.4469994817248799 0.001
  vertex 0.394874126467319 -0.5955867943977692 0.001
 endloop
endfacet
facet normal 0.0 0.0 1.0
 outer loop
  vertex 0.125237057680491 -0.8710428688552208 0.001
  vertex 0.36556521144166004 -0.8004761559119762 0.001
  vertex 0.21973118811899398 -0.6338933857456199 0.001
 endloop
endfacet
facet normal -0.0 0.0 1.0
 outer loop
  vertex 0.21973118811899398 -0.6338933857456199 0.001
  vertex 0.36556521144166004 -0.8004761559119762 0.001
  vertex 0.394874126467319 -0.5955867943977692 0.001
 endloop
endfacet
facet normal 0.0 0.0 1.0
 outer loop
  vertex -0.12523705768049145 -0.8710428688552208 0.001
  vertex 0.125237057680491 -0.8710428688552208 0.001
  vertex -2.2190398116519577e-16 -0.6541259219621764 0.001
 endloop
endfacet
facet normal -0.0 0.0 1.0
 outer loop
  vertex -2.2190398116519577e-16 -0.6541259219621764 0.001
  vertex 0.125237057680491 -0.8710428688552208 0.001
  vertex 0.21973118811899398 -0.6338933857456199 0.001
 endloop
endfacet
facet normal -0.0 0.0 1.0
 outer loop
  vertex -0.36556521144166043 -0.8004761559119761 0.001
  vertex -0.12523705768049145 -0.8710428688552208 0.001
  vertex -0.21678382819917177 -0.6217318078373573 0.001
 endloop
endfacet
facet normal 0.0 -0.0 1.0
 outer loop
  vertex -0.12523705768049145 -0.8710428688552208 0.001
  vertex -2.2190398116519577e-16 -0.6541259219621764 0.001
  vertex -0.21678382819917177 -0.6217318078373573 0.001
 endloop
endfacet
facet normal -0.0 0.0 1.0
 outer loop
  vertex -0.576277445871851 -0.6650596254317472 0.001
  vertex -0.36556521144166043 -0.8004761559119761 0.001
  vertex -0.4003786906844282 -0.5829148464500353 0.001
 endloop
endfacet
facet normal 0.0 -0.0 1.0
 outer loop
  vertex -0.36556521144166043 -0.8004761559119761 0.001
  vertex -0.21678382819917177 -0.6217318078373573 0.001
  vertex -0.4003786906844282 -0.5829148464500353 0.001
 endloop
endfacet
facet normal -0.0 0.0 1.0
 outer loop
  vertex -0.7403031088914395 -0.47576391936092577 0.001
  vertex -0.576277445871851 -0.6650596254317472 0.001
  vertex -0.52604030828259 -0.42954587496051744 0.001
 endloop
endfacet
facet normal 0.0 0.0 1.0
 outer loop
  vertex -0.52604030828259 -0.42954587496051744 0.001
  vertex -0.576277445871851 -0.6650596254317472 0.001
  vertex -0.4003786906844282 -0.5829148464500353 0.001
 endloop
endfacet
facet normal 0.0 0.0 1.0
 outer loop
  vertex -0.8443538167807577 -0.24792465002045821 0.001
  vertex -0.7403031088914395 -0.47576391936092577 0.001
  vertex -0.6645599245623488 -0.2988548154998363 0.001
 endloop
endfacet
facet normal 0.0 0.0 1.0
 outer loop
  vertex -0.7403031088914395 -0.47576391936092577 0.001
  vertex -0.52604030828259 -0.42954587496051744 0.001
  vertex -0.6645599245623488 -0.2988548154998363 0.001
 endloop
endfacet
facet normal -0.0 0.0 1.0
 outer loop
  vertex -0.8443538167807577 -0.24792465002045821 0.001
  vertex -0.6645599245623488 -0.2988548154998363 0.001
  vertex -0.7147025551705836 -0.11666909285004311 0.001
 endloop
endfacet
facet normal 0.0 0.0 1.0
 outer loop
  vertex 0.6330313810712784 -0.08099451728323373 0.001
  vertex 0.38104343818097025 -0.04269958863573151 0.001
  vertex 0.46360228124493413 -0.23335865177449427 0.001
 endloop
endfacet
facet normal -0.0 0.0 1.0
 outer loop
  vertex 0.38104343818097025 -0.04269958863573151 0.001
  vertex 0.6330313810712784 -0.08099451728323373 0.001
  vertex 0.49902344353892997 0.13058031179021484 0.001
 endloop
endfacet
facet normal 0.0 0.0 1.0
 outer loop
  vertex 0.6412232444217416 -0.2946570051608023 0.001
  vertex 0.6330313810712784 -0.08099451728323373 0.001
  vertex 0.46360228124493413 -0.23335865177449427 0.001
 endloop
endfacet
facet normal 0.0 -0.0 1.0
 outer loop
  vertex 0.6330313810712784 -0.08099451728323373 0.001
  vertex 0.6920794194791743 0.11793482309161768 0.001
  vertex 0.49902344353892997 0.13058031179021484 0.001
 endloop
endfacet
facet normal -0.0 0.0 1.0
 outer loop
  vertex -0.6352349196328028 0.08173636787943976 0.001
  vertex -0.3477076374815625 0.026264541185428227 0.001
  vertex -0.4304252901912936 0.24879532879188027 0.001
 endloop
endfacet
facet normal 0.0 0.0 1.0
 outer loop
  vertex -0.3477076374815625 0.026264541185428227 0.001
  vertex -0.6352349196328028 0.08173636787943976 0.001
  vertex -0.5048717390126122 -0.17867514672988197 0.001
 endloop
endfacet
facet normal 0.0 -0.0 1.0
 outer loop
  vertex -0.6352349196328028 0.08173636787943976 0.001
  vertex -0.4304252901912936 0.24879532879188027 0.001
  vertex -0.6394964455394452 0.29996707926817245 0.001
 endloop
endfacet
facet normal 0.0 0.0 1.0
 outer loop
  vertex -0.5048717390126122 -0.17867514672988197 0.001
  vertex -0.6352349196328028 0.08173636787943976 0.001
  vertex -0.7147025551705836 -0.11666909285004311 0.001
 endloop
endfacet
facet normal 0.0 0.0 1.0
 outer loop
  vertex 0.18428856849066258 0.627629225981813 0.001
  vertex -0.03649363996577613 0.4545043349453306 0.001
  vertex 0.21685837764741872 0.3842142052627512 0.001
 endloop
endfacet
facet normal 0.0 0.0 1.0
 outer loop
  vertex -0.03649363996577613 0.4545043349453306 0.001
  vertex 0.18428856849066258 0.627629225981813 0.001
  vertex -0.015401572333427578 0.7012043450930353 0.001
 endloop
endfacet
facet normal 0.0 0.0 1.0
 outer loop
  vertex 0.18428856849066258 0.627629225981813 0.001
  vertex 0.21685837764741872 0.3842142052627512 0.001
  vertex 0.3886050827641966 0.5366806456616013 0.001
 endloop
endfacet
facet normal 0.0 0.0 1.0
 outer loop
  vertex -2.2190398116519577e-16 -0.6541259219621764 0.001
  vertex 0.21973118811899398 -0.6338933857456199 0.001
  vertex 0.11886474434702135 -0.437124340983422 0.001
 endloop
endfacet
facet normal 0.0 -0.0 1.0
 outer loop
  vertex -2.2190398116519577e-16 -0.6541259219621764 0.001
  vertex 0.11886474434702135 -0.437124340983422 0.001
  vertex -0.10141743195125126 -0.424771760631653 0.001
 endloop
endfacet
facet normal 0.0 0.0 1.0
 outer loop
  vertex -2.2190398116519577e-16 -0.6541259219621764 0.001
  vertex -0.10141743195125126 -0.424771760631653 0.001
  vertex -0.21678382819917177 -0.6217318078373573 0.001
 endloop
endfacet
facet normal 0.0 0.0 1.0
 outer loop
  vertex -0.5048717390126122 -0.17867514672988197 0.001
  vertex -0.52604030828259 -0.42954587496051744 0.001
  vertex -0.3172266596268679 -0.3977607681085791 0.001
 endloop
endfacet
facet normal 0.0 -0.0 1.0
 outer loop
  vertex -0.52604030828259 -0.42954587496051744 0.001
  vertex -0.5048717390126122 -0.17867514672988197 0.001
  vertex -0.6645599245623488 -0.2988548154998363 0.001
 endloop
endfacet
facet normal 0.0 0.0 1.0
 outer loop
  vertex -0.3172266596268679 -0.3977607681085791 0.001
  vertex -0.52604030828259 -0.42954587496051744 0.001
  vertex -0.4003786906844282 -0.5829148464500353 0.001
 endloop
endfacet
facet normal 0.0 0.0 1.0
 outer loop
  vertex -0.3713654453839669 0.577650059153944 0.001
  vertex -0.49940715724917784 0.4451478588075793 0.001
  vertex -0.27604198870918994 0.42760034674714525 0.001
 endloop
endfacet
facet normal -0.0 0.0 1.0
 outer loop
  vertex -0.3713654453839669 0.577650059153944 0.001
  vertex -0.27604198870918994 0.42760034674714525 0.001
  vertex -0.19835081925241804 0.6387463517844422 0.001
 endloop
endfacet
facet normal 0.0 0.0 1.0
 outer loop
  vertex 0.6920794194791743 0.11793482309161768 0.001
  vertex 0.6245293974113675 0.29031877754679847 0.001
  vertex 0.49902344353892997 0.13058031179021484 0.001
 endloop
endfacet
facet normal -0.0 0.0 1.0
 outer loop
  vertex 0.4259517852854349 0.32689114728850915 0.001
  vertex 0.6245293974113675 0.29031877754679847 0.001
  vertex 0.5511333640448582 0.45894282305791595 0.001
 endloop
endfacet
facet normal 0.0 0.0 1.0
 outer loop
  vertex 0.6245293974113675 0.29031877754679847 0.001
  vertex 0.4259517852854349 0.32689114728850915 0.001
  vertex 0.49902344353892997 0.13058031179021484 0.001
 endloop
endfacet
facet normal 0.0 -0.0 1.0
 outer loop
  vertex 0.394874126467319 -0.5955867943977692 0.001
  vertex 0.5212747634634565 -0.4469994817248799 0.001
  vertex 0.32410772582428143 -0.4285595877151822 0.001
 endloop
endfacet
facet normal 0.0 -0.0 1.0
 outer loop
  vertex 0.5212747634634565 -0.4469994817248799 0.001
  vertex 0.6412232444217416 -0.2946570051608023 0.001
  vertex 0.46360228124493413 -0.23335865177449427 0.001
 endloop
endfacet
facet normal 0.0 0.0 1.0
 outer loop
  vertex 0.5212747634634565 -0.4469994817248799 0.001
  vertex 0.46360228124493413 -0.23335865177449427 0.001
  vertex 0.32410772582428143 -0.4285595877151822 0.001
 endloop
endfacet
facet normal -0.0 0.0 1.0
 outer loop
  vertex 0.11886474434702135 -0.437124340983422 0.001
  vertex 0.21973118811899398 -0.6338933857456199 0.001
  vertex 0.32410772582428143 -0.4285595877151822 0.001
 endloop
endfacet
facet normal 0.0 0.0 1.0
 outer loop
  vertex 0.21973118811899398 -0.6338933857456199 0.001
  vertex 0.394874126467319 -0.5955867943977692 0.001
  vertex 0.32410772582428143 -0.4285595877151822 0.001
 endloop
endfacet
facet normal -0.0 0.0 1.0
 outer loop
  vertex -0.10141743195125126 -0.424771760631653 0.001
  vertex 0.11886474434702135 -0.437124340983422 0.001
  vertex 0.024129852851903506 -0.22369044144890174 0.001
 endloop
endfacet
facet normal 0.0 0.0 1.0
 outer loop
  vertex 0.024129852851903506 -0.22369044144890174 0.001
  vertex 0.11886474434702135 -0.437124340983422 0.001
  vertex 0.25626080441947746 -0.23273260237076593 0.001
 endloop
endfacet
facet normal 0.0 0.0 1.0
 outer loop
  vertex 0.25626080441947746 -0.23273260237076593 0.001
  vertex 0.11886474434702135 -0.437124340983422 0.001
  vertex 0.32410772582428143 -0.4285595877151822 0.001
 endloop
endfacet
facet normal 0.0 -0.0 1.0
 outer loop
  vertex -0.10141743195125126 -0.424771760631653 0.001
  vertex 0.024129852851903506 -0.22369044144890174 0.001
  vertex -0.224309819386758 -0.19674163443929482 0.001
 endloop
endfacet
facet normal 0.0 0.0 1.0
 outer loop
  vertex -0.10141743195125126 -0.424771760631653 0.001
  vertex -0.224309819386758 -0.19674163443929482 0.001
  vertex -0.3172266596268679 -0.3977607681085791 0.001
 endloop
endfacet
facet normal 0.0 -0.0 1.0
 outer loop
  vertex -0.21678382819917177 -0.6217318078373573 0.001
  vertex -0.10141743195125126 -0.424771760631653 0.001
  vertex -0.3172266596268679 -0.3977607681085791 0.001
 endloop
endfacet
facet normal -0.0 0.0 1.0
 outer loop
  vertex -0.224309819386758 -0.19674163443929482 0.001
  vertex 0.024129852851903506 -0.22369044144890174 0.001
  vertex -0.08501175194588197 0.00012744034527532633 0.001
 endloop
endfacet
facet normal 0.0 0.0 1.0
 outer loop
  vertex -0.08501175194588197 0.00012744034527532633 0.001
  vertex 0.024129852851903506 -0.22369044144890174 0.001
  vertex 0.16452929037995728 -0.020896644532027553 0.001
 endloop
endfacet
facet normal 0.0 0.0 1.0
 outer loop
  vertex 0.16452929037995728 -0.020896644532027553 0.001
  vertex 0.024129852851903506 -0.22369044144890174 0.001
  vertex 0.25626080441947746 -0.23273260237076593 0.001
 endloop
endfacet
facet normal 0.0 -0.0 1.0
 outer loop
  vertex -0.224309819386758 -0.19674163443929482 0.001
  vertex -0.08501175194588197 0.00012744034527532633 0.001
  vertex -0.3477076374815625 0.026264541185428227 0.001
 endloop
endfacet
facet normal 0.0 0.0 1.0
 outer loop
  vertex -0.224309819386758 -0.19674163443929482 0.001
  vertex -0.3477076374815625 0.026264541185428227 0.001
  vertex -0.5048717390126122 -0.17867514672988197 0.001
 endloop
endfacet
facet normal 0.0 0.0 1.0
 outer loop
  vertex -0.224309819386758 -0.19674163443929482 0.001
  vertex -0.5048717390126122 -0.17867514672988197 0.001
  vertex -0.3172266596268679 -0.3977607681085791 0.001
 endloop
endfacet
facet normal -0.0 0.0 1.0
 outer loop
  vertex -0.08501175194588197 0.00012744034527532633 0.001
  vertex 0.16452929037995728 -0.020896644532027553 0.001
  vertex 0.05507517149619519 0.20188655589859117 0.001
 endloop
endfacet
facet normal 0.0 -0.0 1.0
 outer loop
  vertex -0.08501175194588197 0.00012744034527532633 0.001
  vertex 0.05507517149619519 0.20188655589859117 0.001
  vertex -0.1836778838939802 0.21518016613656477 0.001
 endloop
endfacet
facet normal 0.0 0.0 1.0
 outer loop
  vertex -0.08501175194588197 0.00012744034527532633 0.001
  vertex -0.1836778838939802 0.21518016613656477 0.001
  vertex -0.3477076374815625 0.026264541185428227 0.001
 endloop
endfacet
facet normal 0.0 0.0 1.0
 outer loop
  vertex 0.05507517149619519 0.20188655589859117 0.001
  vertex 0.16452929037995728 -0.020896644532027553 0.001
  vertex 0.2868034991808645 0.16760348461208235 0.001
 endloop
endfacet
facet normal 0.0 0.0 1.0
 outer loop
  vertex 0.2868034991808645 0.16760348461208235 0.001
  vertex 0.16452929037995728 -0.020896644532027553 0.001
  vertex 0.38104343818097025 -0.04269958863573151 0.001
 endloop
endfacet
facet normal 0.0 0.0 1.0
 outer loop
  vertex 0.16452929037995728 -0.020896644532027553 0.001
  vertex 0.25626080441947746 -0.23273260237076593 0.001
  vertex 0.38104343818097025 -0.04269958863573151 0.001
 endloop
endfacet
facet normal -0.0 0.0 1.0
 outer loop
  vertex -0.1836778838939802 0.21518016613656477 0.001
  vertex 0.05507517149619519 0.20188655589859117 0.001
  vertex -0.03649363996577613 0.4545043349453306 0.001
 endloop
endfacet
facet normal 0.0 0.0 1.0
 outer loop
  vertex -0.03649363996577613 0.4545043349453306 0.001
  vertex 0.05507517149619519 0.20188655589859117 0.001
  vertex 0.21685837764741872 0.3842142052627512 0.001
 endloop
endfacet
facet normal -0.0 0.0 1.0
 outer loop
  vertex 0.05507517149619519 0.20188655589859117 0.001
  vertex 0.2868034991808645 0.16760348461208235 0.001
  vertex 0.21685837764741872 0.3842142052627512 0.001
 endloop
endfacet
facet normal 0.0 -0.0 1.0
 outer loop
  vertex -0.1836778838939802 0.21518016613656477 0.001
  vertex -0.03649363996577613 0.4545043349453306 0.001
  vertex -0.27604198870918994 0.42760034674714525 0.001
 endloop
endfacet
facet normal 0.0 -0.0 1.0
 outer loop
  vertex -0.3477076374815625 0.026264541185428227 0.001
  vertex -0.1836778838939802 0.21518016613656477 0.001
  vertex -0.4304252901912936 0.24879532879188027 0.001
 endloop
endfacet
facet normal -0.0 0.0 1.0
 outer loop
  vertex -0.4304252901912936 0.24879532879188027 0.001
  vertex -0.1836778838939802 0.21518016613656477 0.001
  vertex -0.27604198870918994 0.42760034674714525 0.001
 endloop
endfacet
facet normal 0.0 -0.0 1.0
 outer loop
  vertex -0.03649363996577613 0.4545043349453306 0.001
  vertex -0.015401572333427578 0.7012043450930353 0.001
  vertex -0.19835081925241804 0.6387463517844422 0.001
 endloop
endfacet
facet normal 0.0 0.0 1.0
 outer loop
  vertex -0.27604198870918994 0.42760034674714525 0.001
  vertex -0.03649363996577613 0.4545043349453306 0.001
  vertex -0.19835081925241804 0.6387463517844422 0.001
 endloop
endfacet
facet normal 0.0 0.0 1.0
 outer loop
  vertex 0.2868034991808645 0.16760348461208235 0.001
  vertex 0.38104343818097025 -0.04269958863573151 0.001
  vertex 0.49902344353892997 0.13058031179021484 0.001
 endloop
endfacet
facet normal 0.0 0.0 1.0
 outer loop
  vertex 0.21685837764741872 0.3842142052627512 0.001
  vertex 0.2868034991808645 0.16760348461208235 0.001
  vertex 0.4259517852854349 0.32689114728850915 0.001
 endloop
endfacet
facet normal 0.0 0.0 1.0
 outer loop
  vertex 0.4259517852854349 0.32689114728850915 0.001
  vertex 0.2868034991808645 0.16760348461208235 0.001
  vertex 0.49902344353892997 0.13058031179021484 0.001
 endloop
endfacet
facet normal 0.0 0.0 1.0
 outer loop
  vertex 0.38104343818097025 -0.04269958863573151 0.001
  vertex 0.25626080441947746 -0.23273260237076593 0.001
  vertex 0.46360228124493413 -0.23335865177449427 0.001
 endloop
endfacet
facet normal 0.0 0.0 1.0
 outer loop
  vertex 0.46360228124493413 -0.23335865177449427 0.001
  vertex 0.25626080441947746 -0.23273260237076593 0.001
  vertex 0.32410772582428143 -0.4285595877151822 0.001
 endloop
endfacet
facet normal -0.0 0.0 1.0
 outer loop
  vertex -0.6394964455394452 0.29996707926817245 0.001
  vertex -0.4304252901912936 0.24879532879188027 0.001
  vertex -0.49940715724917784 0.4451478588075793 0.001
 endloop
endfacet
facet normal 0.0 0.0 1.0
 outer loop
  vertex -0.49940715724917784 0.4451478588075793 0.001
  vertex -0.4304252901912936 0.24879532879188027 0.001
  vertex -0.27604198870918994 0.42760034674714525 0.001
 endloop
endfacet
facet normal 0.0 -0.0 1.0
 outer loop
  vertex -0.6645599245623488 -0.2988548154998363 0.001
  vertex -0.5048717390126122 -0.17867514672988197 0.001
  vertex -0.7147025551705836 -0.11666909285004311 0.001
 endloop
endfacet
facet normal 0.0 0.0 1.0
 outer loop
  vertex 0.3886050827641966 0.5366806456616013 0.001
  vertex 0.21685837764741872 0.3842142052627512 0.001
  vertex 0.4259517852854349 0.32689114728850915 0.001
 endloop
endfacet
facet normal 0.0 0.0 1.0
 outer loop
  vertex 0.3886050827641966 0.5366806456616013 0.001
  vertex 0.4259517852854349 0.32689114728850915 0.001
  vertex 0.5511333640448582 0.45894282305791595 0.001
 endloop
endfacet
facet normal 0.0 0.0 1.0
 outer loop
  vertex -0.21678382819917177 -0.6217318078373573 0.001
  vertex -0.3172266596268679 -0.3977607681085791 0.001
  vertex -0.4003786906844282 -0.5829148464500353 0.001
 endloop
endfacet
facet normal 0.0 -0.0 -1.0
 outer loop
  vertex -0.2681155550916425 0.22497566339028852 -0.529
  vertex -0.11744025771305558 0.0320276253087529 -0.529
  vertex -0.35 -8.57224447675664e-17 -0.529
 endloop
endfacet
facet normal 0.0 0.0 -1.0
 outer loop
  vertex -0.35 -8.57224447675664e-17 -0.529
  vertex -0.11744025771305558 0.0320276253087529 -0.529
  vertex -0.26811555509164264 -0.22497566339028838 -0.529
 endloop
endfacet
facet normal 0.0 -0.0 -1.0
 outer loop
  vertex -0.060776862183426254 0.34468271355427266 -0.529
  vertex 0.029788667509561308 0.16900282903886432 -0.529
  vertex -0.2681155550916425 0.22497566339028852 -0.529
 endloop
endfacet
facet normal 0.0 0.0 -1.0
 outer loop
  vertex -0.2681155550916425 0.22497566339028852 -0.529
  vertex 0.029788667509561308 0.16900282903886432 -0.529
  vertex -0.11744025771305558 0.0320276253087529 -0.529
 endloop
endfacet
facet normal -0.0 0.0 -1.0
 outer loop
  vertex 0.174999999999999 0.3031088913245541 -0.529
  vertex 0.029788667509561308 0.16900282903886432 -0.529
  vertex -0.060776862183426254 0.34468271355427266 -0.529
 endloop
endfacet
facet normal 0.0 0.0 -1.0
 outer loop
  vertex 0.3288924172750674 0.11970705016398542 -0.529
  vertex 0.029788667509561308 0.16900282903886432 -0.529
  vertex 0.174999999999999 0.3031088913245541 -0.529
 endloop
endfacet
facet normal 0.0 0.0 -1.0
 outer loop
  vertex 0.32889241727506824 -0.11970705016398314 -0.529
  vertex 0.12117226277042581 -0.010484969508667572 -0.529
  vertex 0.3288924172750674 0.11970705016398542 -0.529
 endloop
endfacet
facet normal 0.0 0.0 -1.0
 outer loop
  vertex 0.12117226277042581 -0.010484969508667572 -0.529
  vertex 0.029788667509561308 0.16900282903886432 -0.529
  vertex 0.3288924172750674 0.11970705016398542 -0.529
 endloop
endfacet
facet normal 0.0 0.0 -1.0
 outer loop
  vertex 0.17500000000000066 -0.3031088913245531 -0.529
  vertex 0.12117226277042581 -0.010484969508667572 -0.529
  vertex 0.32889241727506824 -0.11970705016398314 -0.529
 endloop
endfacet
facet normal 0.0 0.0 -1.0
 outer loop
  vertex -0.060776862183425484 -0.3446827135542728 -0.529
  vertex -0.028652401442714533 -0.16244192862366968 -0.529
  vertex 0.17500000000000066 -0.3031088913245531 -0.529
 endloop
endfacet
facet normal 0.0 0.0 -1.0
 outer loop
  vertex 0.17500000000000066 -0.3031088913245531 -0.529
  vertex -0.028652401442714533 -0.16244192862366968 -0.529
  vertex 0.12117226277042581 -0.010484969508667572 -0.529
 endloop
endfacet
facet normal 0.0 0.0 -1.0
 outer loop
  vertex -0.26811555509164264 -0.22497566339028838 -0.529
  vertex -0.028652401442714533 -0.16244192862366968 -0.529
  vertex -0.060776862183425484 -0.3446827135542728 -0.529
 endloop
endfacet
facet normal 0.0 -0.0 -1.0
 outer loop
  vertex -0.11744025771305558 0.0320276253087529 -0.529
  vertex -0.028652401442714533 -0.16244192862366968 -0.529
  vertex -0.26811555509164264 -0.22497566339028838 -0.529
 endloop
endfacet
facet normal 0.0 0.0 -1.0
 outer loop
  vertex -0.11744025771305558 0.0320276253087529 -0.529
  vertex 0.029788667509561308 0.16900282903886432 -0.529
  vertex 0.12117226277042581 -0.010484969508667572 -0.529
 endloop
endfacet
facet normal -0.0 0.0 -1.0
 outer loop
  vertex 0.12117226277042581 -0.010484969508667572 -0.529
  vertex -0.028652401442714533 -0.16244192862366968 -0.529
  vertex -0.11744025771305558 0.0320276253087529 -0.529
 endloop
endfacet
endsolid
