solid
facet normal -0.9974521146102535 0.07133918319923259 0.0
 outer loop
  vertex -0.88 -2.1553783664993416e-16 0.01
  vertex -0.8710428688552208 0.12523705768049104 -0.07497525323480526
  vertex -0.88 -2.1553783664993416e-16 -0.16
 endloop
endfacet
facet normal -0.9974521146102535 -0.07133918319923238 0.0
 outer loop
  vertex -0.88 -2.1553783664993416e-16 -0.16
  vertex -0.8710428688552209 -0.1252370576804903 -0.07502474676519473
  vertex -0.88 -2.1553783664993416e-16 0.01
 endloop
endfacet
facet normal -0.9843741904518375 0.14153164175584826 -0.10476758828084203
 outer loop
  vertex -0.88 -2.1553783664993416e-16 -0.16
  vertex -0.8710428688552208 0.12523705768049104 -0.07497525323480526
  vertex -0.8443538167807576 0.2479246500204584 -0.16
 endloop
endfacet
facet normal -0.9843678955006071 -0.14153073667849955 -0.1048279394195409
 outer loop
  vertex -0.8443538167807577 -0.24792465002045816 -0.16
  vertex -0.8710428688552209 -0.1252370576804903 -0.07502474676519473
  vertex -0.88 -2.1553783664993416e-16 -0.16
 endloop
endfacet
facet normal -0.984367895500607 0.14153073667849958 0.10482793941954162
 outer loop
  vertex -0.8443538167807576 0.2479246500204584 0.01
  vertex -0.8710428688552208 0.12523705768049104 -0.07497525323480526
  vertex -0.88 -2.1553783664993416e-16 0.01
 endloop
endfacet
facet normal -0.9843741904518374 -0.1415316417558482 0.10476758828084129
 outer loop
  vertex -0.88 -2.1553783664993416e-16 0.01
  vertex -0.8710428688552209 -0.1252370576804903 -0.07502474676519473
  vertex -0.8443538167807577 -0.24792465002045816 0.01
 endloop
endfacet
facet normal -0.9046202628684373 0.41312623146550764 -0.10482793941954284
 outer loop
  vertex -0.8443538167807576 0.2479246500204584 -0.16
  vertex -0.8004761559119761 0.36556521144166043 -0.07502474676519473
  vertex -0.7403031088914391 0.47576391936092627 -0.16
 endloop
endfacet
facet normal -0.9771468659711594 0.21256528955297677 0.0
 outer loop
  vertex -0.8443538167807576 0.2479246500204584 -0.16
  vertex -0.8710428688552208 0.12523705768049104 -0.07497525323480526
  vertex -0.8443538167807576 0.2479246500204584 0.01
 endloop
endfacet
facet normal -0.9369497249997619 0.3494641795990981 0.0
 outer loop
  vertex -0.8443538167807576 0.2479246500204584 0.01
  vertex -0.8004761559119761 0.36556521144166043 -0.07502474676519473
  vertex -0.8443538167807576 0.2479246500204584 -0.16
 endloop
endfacet
facet normal -0.7515904828507272 0.6512568606425783 -0.10476758828084215
 outer loop
  vertex -0.7403031088914391 0.47576391936092627 -0.16
  vertex -0.6650596254317469 0.5762774458718513 -0.07497525323480528
  vertex -0.5762774458718503 0.6650596254317478 -0.16
 endloop
endfacet
facet normal -0.8005412409243602 0.5992776665113474 0.0
 outer loop
  vertex -0.7403031088914391 0.47576391936092627 0.01
  vertex -0.6650596254317469 0.5762774458718513 -0.07497525323480528
  vertex -0.7403031088914391 0.47576391936092627 -0.16
 endloop
endfacet
facet normal -0.8776789895672551 0.479248986720058 0.0
 outer loop
  vertex -0.7403031088914391 0.47576391936092627 -0.16
  vertex -0.8004761559119761 0.36556521144166043 -0.07502474676519473
  vertex -0.7403031088914391 0.47576391936092627 0.01
 endloop
endfacet
facet normal -0.5376655268214434 0.8366238902360101 -0.10476758828084205
 outer loop
  vertex -0.5762774458718503 0.6650596254317478 -0.16
  vertex -0.47576391936092505 0.7403031088914399 -0.07497525323480529
  vertex -0.3655652114416588 0.8004761559119767 -0.16
 endloop
endfacet
facet normal -0.599277666511346 0.8005412409243611 0.0
 outer loop
  vertex -0.5762774458718503 0.6650596254317478 0.01
  vertex -0.47576391936092505 0.7403031088914399 -0.07497525323480529
  vertex -0.5762774458718503 0.6650596254317478 -0.16
 endloop
endfacet
facet normal -0.707106781186547 0.7071067811865479 0.0
 outer loop
  vertex -0.5762774458718503 0.6650596254317478 -0.16
  vertex -0.6650596254317469 0.5762774458718513 -0.07497525323480528
  vertex -0.5762774458718503 0.6650596254317478 0.01
 endloop
endfacet
facet normal -0.2801812119571772 0.9542095781390886 -0.10479775500376806
 outer loop
  vertex -0.3655652114416588 0.8004761559119767 -0.16
  vertex -0.24791928074531003 0.8443553933236455 -0.07500000000000001
  vertex -0.12523705768048918 0.8710428688552211 -0.16
 endloop
endfacet
facet normal -0.4792489867200561 0.8776789895672561 0.0
 outer loop
  vertex -0.3655652114416588 0.8004761559119767 -0.16
  vertex -0.47576391936092505 0.7403031088914399 -0.07497525323480529
  vertex -0.3655652114416588 0.8004761559119767 0.01
 endloop
endfacet
facet normal -0.34946120055224533 0.9369508361213961 0.0
 outer loop
  vertex -0.3655652114416588 0.8004761559119767 0.01
  vertex -0.24791928074531003 0.8443553933236455 -0.07500000000000001
  vertex -0.3655652114416588 0.8004761559119767 -0.16
 endloop
endfacet
facet normal 2.644855743862973e-15 0.9944967332504496 -0.10476758828084261
 outer loop
  vertex -0.12523705768048918 0.8710428688552211 -0.16
  vertex 2.0955073165118197e-15 0.88 -0.07497525323480529
  vertex 0.12523705768049312 0.8710428688552204 -0.16
 endloop
endfacet
facet normal -0.07133918319922995 0.9974521146102537 0.0
 outer loop
  vertex -0.12523705768048918 0.8710428688552211 0.01
  vertex 2.0955073165118197e-15 0.88 -0.07497525323480529
  vertex -0.12523705768048918 0.8710428688552211 -0.16
 endloop
endfacet
facet normal -0.2125621826994299 0.9771475418206066 0.0
 outer loop
  vertex -0.12523705768048918 0.8710428688552211 -0.16
  vertex -0.24791928074531003 0.8443553933236455 -0.07500000000000001
  vertex -0.12523705768048918 0.8710428688552211 0.01
 endloop
endfacet
facet normal 0.28018031569916824 0.9542065257646098 -0.10482793941954215
 outer loop
  vertex 0.12523705768049312 0.8710428688552204 -0.16
  vertex 0.24792465002046035 0.844353816780757 -0.07502474676519472
  vertex 0.3655652114416625 0.8004761559119751 -0.16
 endloop
endfacet
facet normal 0.21256528955297865 0.9771468659711591 0.0
 outer loop
  vertex 0.12523705768049312 0.8710428688552204 0.01
  vertex 0.24792465002046035 0.844353816780757 -0.07502474676519472
  vertex 0.12523705768049312 0.8710428688552204 -0.16
 endloop
endfacet
facet normal 0.07133918319923535 0.9974521146102532 -0.0
 outer loop
  vertex 0.12523705768049312 0.8710428688552204 -0.16
  vertex 2.0955073165118197e-15 0.88 -0.07497525323480529
  vertex 0.12523705768049312 0.8710428688552204 0.01
 endloop
endfacet
facet normal 0.5376638084234172 0.8366212163564806 -0.10479775500376835
 outer loop
  vertex 0.3655652114416625 0.8004761559119751 -0.16
  vertex 0.47576862696000727 0.7403000834800638 -0.07500000000000002
  vertex 0.5762774458718531 0.6650596254317453 -0.16
 endloop
endfacet
facet normal 0.34946417959910087 0.9369497249997607 -0.0
 outer loop
  vertex 0.3655652114416625 0.8004761559119751 -0.16
  vertex 0.24792465002046035 0.844353816780757 -0.07502474676519472
  vertex 0.3655652114416625 0.8004761559119751 0.01
 endloop
endfacet
facet normal 0.47925177731056867 0.877677465783793 0.0
 outer loop
  vertex 0.3655652114416625 0.8004761559119751 0.01
  vertex 0.47576862696000727 0.7403000834800638 -0.07500000000000002
  vertex 0.3655652114416625 0.8004761559119751 -0.16
 endloop
endfacet
facet normal 0.7515904828507302 0.6512568606425747 -0.10476758828084261
 outer loop
  vertex 0.5762774458718531 0.6650596254317453 -0.16
  vertex 0.6650596254317496 0.5762774458718483 -0.07497525323480529
  vertex 0.7403031088914415 0.4757639193609227 -0.16
 endloop
endfacet
facet normal 0.7071067811865501 0.7071067811865449 0.0
 outer loop
  vertex 0.5762774458718531 0.6650596254317453 0.01
  vertex 0.6650596254317496 0.5762774458718483 -0.07497525323480529
  vertex 0.5762774458718531 0.6650596254317453 -0.16
 endloop
endfacet
facet normal 0.5992802118406739 0.800539335508379 -0.0
 outer loop
  vertex 0.5762774458718531 0.6650596254317453 -0.16
  vertex 0.47576862696000727 0.7403000834800638 -0.07500000000000002
  vertex 0.5762774458718531 0.6650596254317453 0.01
 endloop
endfacet
facet normal 0.9046260478401584 0.41312887337356524 -0.10476758828084205
 outer loop
  vertex 0.7403031088914415 0.4757639193609227 -0.16
  vertex 0.8004761559119778 0.3655652114416564 -0.07497525323480529
  vertex 0.8443538167807588 0.24792465002045436 -0.16
 endloop
endfacet
facet normal 0.8005412409243631 0.5992776665113436 -0.0
 outer loop
  vertex 0.7403031088914415 0.4757639193609227 -0.16
  vertex 0.6650596254317496 0.5762774458718483 -0.07497525323480529
  vertex 0.7403031088914415 0.4757639193609227 0.01
 endloop
endfacet
facet normal 0.8776789895672578 0.479248986720053 0.0
 outer loop
  vertex 0.7403031088914415 0.4757639193609227 0.01
  vertex 0.8004761559119778 0.3655652114416564 -0.07497525323480529
  vertex 0.7403031088914415 0.4757639193609227 -0.16
 endloop
endfacet
facet normal 0.984374190451838 0.14153164175584332 -0.1047675882808425
 outer loop
  vertex 0.8443538167807588 0.24792465002045436 -0.16
  vertex 0.8710428688552214 0.1252370576804867 -0.07497525323480528
  vertex 0.88 -4.581813137691694e-15 -0.16
 endloop
endfacet
facet normal 0.9771468659711606 0.2125652895529721 0.0
 outer loop
  vertex 0.8443538167807588 0.24792465002045436 0.01
  vertex 0.8710428688552214 0.1252370576804867 -0.07497525323480528
  vertex 0.8443538167807588 0.24792465002045436 -0.16
 endloop
endfacet
facet normal 0.9369497249997633 0.34946417959909415 -0.0
 outer loop
  vertex 0.8443538167807588 0.24792465002045436 -0.16
  vertex 0.8004761559119778 0.3655652114416564 -0.07497525323480529
  vertex 0.8443538167807588 0.24792465002045436 0.01
 endloop
endfacet
facet normal 0.9843710443571269 -0.14153118941572357 -0.10479775500376946
 outer loop
  vertex 0.88 -4.581813137691694e-15 -0.16
  vertex 0.871042072451568 -0.1252425966645436 -0.07500000000000001
  vertex 0.8443538167807563 -0.24792465002046274 -0.16
 endloop
endfacet
facet normal 0.9974521146102538 0.07133918319922729 -0.0
 outer loop
  vertex 0.88 -4.581813137691694e-15 -0.16
  vertex 0.8710428688552214 0.1252370576804867 -0.07497525323480528
  vertex 0.88 -4.581813137691694e-15 0.01
 endloop
endfacet
facet normal 0.9974518877812556 -0.07134235461217596 0.0
 outer loop
  vertex 0.88 -4.581813137691694e-15 0.01
  vertex 0.871042072451568 -0.1252425966645436 -0.07500000000000001
  vertex 0.88 -4.581813137691694e-15 -0.16
 endloop
endfacet
facet normal 0.9046260478401543 -0.4131288733735738 -0.10476758828084312
 outer loop
  vertex 0.8443538167807563 -0.24792465002046274 -0.16
  vertex 0.8004761559119741 -0.36556521144166476 -0.07497525323480528
  vertex 0.7403031088914367 -0.47576391936093015 -0.16
 endloop
endfacet
facet normal 0.93694972499976 -0.3494641795991027 0.0
 outer loop
  vertex 0.8443538167807563 -0.24792465002046274 0.01
  vertex 0.8004761559119741 -0.36556521144166476 -0.07497525323480528
  vertex 0.8443538167807563 -0.24792465002046274 -0.16
 endloop
endfacet
facet normal 0.9771461901118332 -0.2125683964043787 0.0
 outer loop
  vertex 0.8443538167807563 -0.24792465002046274 -0.16
  vertex 0.871042072451568 -0.1252425966645436 -0.07500000000000001
  vertex 0.8443538167807563 -0.24792465002046274 0.01
 endloop
endfacet
facet normal 0.7515904828507234 -0.6512568606425827 -0.10476758828084301
 outer loop
  vertex 0.7403031088914367 -0.47576391936093015 -0.16
  vertex 0.6650596254317438 -0.5762774458718549 -0.07497525323480528
  vertex 0.5762774458718463 -0.6650596254317512 -0.16
 endloop
endfacet
facet normal 0.800541240924357 -0.5992776665113516 0.0
 outer loop
  vertex 0.7403031088914367 -0.47576391936093015 0.01
  vertex 0.6650596254317438 -0.5762774458718549 -0.07497525323480528
  vertex 0.7403031088914367 -0.47576391936093015 -0.16
 endloop
endfacet
facet normal 0.8776789895672527 -0.47924898672006216 0.0
 outer loop
  vertex 0.7403031088914367 -0.47576391936093015 -0.16
  vertex 0.8004761559119741 -0.36556521144166476 -0.07497525323480528
  vertex 0.7403031088914367 -0.47576391936093015 0.01
 endloop
endfacet
facet normal 0.5376655268214385 -0.8366238902360132 -0.10476758828084289
 outer loop
  vertex 0.5762774458718463 -0.6650596254317512 -0.16
  vertex 0.4757639193609205 -0.7403031088914429 -0.07497525323480532
  vertex 0.3655652114416543 -0.8004761559119787 -0.16
 endloop
endfacet
facet normal 0.7071067811865426 -0.7071067811865523 0.0
 outer loop
  vertex 0.5762774458718463 -0.6650596254317512 -0.16
  vertex 0.6650596254317438 -0.5762774458718549 -0.07497525323480528
  vertex 0.5762774458718463 -0.6650596254317512 0.01
 endloop
endfacet
facet normal 0.5992776665113416 -0.8005412409243645 0.0
 outer loop
  vertex 0.5762774458718463 -0.6650596254317512 0.01
  vertex 0.4757639193609205 -0.7403031088914429 -0.07497525323480532
  vertex 0.5762774458718463 -0.6650596254317512 -0.16
 endloop
endfacet
facet normal 0.28018210742909166 -0.9542126278363794 -0.10476758828084258
 outer loop
  vertex 0.3655652114416543 -0.8004761559119787 -0.16
  vertex 0.24792465002045136 -0.8443538167807597 -0.07497525323480529
  vertex 0.12523705768048407 -0.8710428688552219 -0.16
 endloop
endfacet
facet normal 0.3494641795990917 -0.9369497249997643 0.0
 outer loop
  vertex 0.3655652114416543 -0.8004761559119787 0.01
  vertex 0.24792465002045136 -0.8443538167807597 -0.07497525323480529
  vertex 0.3655652114416543 -0.8004761559119787 -0.16
 endloop
endfacet
facet normal 0.4792489867200502 -0.8776789895672593 0.0
 outer loop
  vertex 0.3655652114416543 -0.8004761559119787 -0.16
  vertex 0.4757639193609205 -0.7403031088914429 -0.07497525323480532
  vertex 0.3655652114416543 -0.8004761559119787 0.01
 endloop
endfacet
facet normal -7.052948650301323e-15 -0.9944967332504498 -0.10476758828084001
 outer loop
  vertex 0.12523705768048407 -0.8710428688552219 -0.16
  vertex -6.091122697201431e-15 -0.88 -0.07497525323480525
  vertex -0.12523705768049612 -0.8710428688552201 -0.16
 endloop
endfacet
facet normal 0.21256528955296933 -0.9771468659711612 0.0
 outer loop
  vertex 0.12523705768048407 -0.8710428688552219 -0.16
  vertex 0.24792465002045136 -0.8443538167807597 -0.07497525323480529
  vertex 0.12523705768048407 -0.8710428688552219 0.01
 endloop
endfacet
facet normal 0.07133918319922442 -0.997452114610254 0.0
 outer loop
  vertex 0.12523705768048407 -0.8710428688552219 0.01
  vertex -6.091122697201431e-15 -0.88 -0.07497525323480525
  vertex 0.12523705768048407 -0.8710428688552219 -0.16
 endloop
endfacet
facet normal -0.28018210742910404 -0.9542126278363758 -0.10476758828084183
 outer loop
  vertex -0.12523705768049612 -0.8710428688552201 -0.16
  vertex -0.24792465002046235 -0.8443538167807565 -0.07497525323480526
  vertex -0.3655652114416647 -0.8004761559119741 -0.16
 endloop
endfacet
facet normal -0.21256528955298198 -0.9771468659711583 -0.0
 outer loop
  vertex -0.12523705768049612 -0.8710428688552201 0.01
  vertex -0.24792465002046235 -0.8443538167807565 -0.07497525323480526
  vertex -0.12523705768049612 -0.8710428688552201 -0.16
 endloop
endfacet
facet normal -0.07133918319923857 -0.9974521146102531 0.0
 outer loop
  vertex -0.12523705768049612 -0.8710428688552201 -0.16
  vertex -6.091122697201431e-15 -0.88 -0.07497525323480525
  vertex -0.12523705768049612 -0.8710428688552201 0.01
 endloop
endfacet
facet normal -0.5376655268214486 -0.8366238902360073 -0.10476758828083976
 outer loop
  vertex -0.3655652114416647 -0.8004761559119741 -0.16
  vertex -0.4757639193609294 -0.7403031088914371 -0.07497525323480524
  vertex -0.5762774458718527 -0.6650596254317456 -0.16
 endloop
endfacet
facet normal -0.34946417959910336 -0.9369497249997598 0.0
 outer loop
  vertex -0.3655652114416647 -0.8004761559119741 -0.16
  vertex -0.24792465002046235 -0.8443538167807565 -0.07497525323480526
  vertex -0.3655652114416647 -0.8004761559119741 0.01
 endloop
endfacet
facet normal -0.4792489867200619 -0.8776789895672529 -0.0
 outer loop
  vertex -0.3655652114416647 -0.8004761559119741 0.01
  vertex -0.4757639193609294 -0.7403031088914371 -0.07497525323480524
  vertex -0.3655652114416647 -0.8004761559119741 -0.16
 endloop
endfacet
facet normal -0.7515904828507294 -0.6512568606425758 -0.1047675882808421
 outer loop
  vertex -0.5762774458718527 -0.6650596254317456 -0.16
  vertex -0.6650596254317489 -0.5762774458718489 -0.07497525323480528
  vertex -0.7403031088914407 -0.4757639193609238 -0.16
 endloop
endfacet
facet normal -0.7071067811865493 -0.7071067811865457 -0.0
 outer loop
  vertex -0.5762774458718527 -0.6650596254317456 0.01
  vertex -0.6650596254317489 -0.5762774458718489 -0.07497525323480528
  vertex -0.5762774458718527 -0.6650596254317456 -0.16
 endloop
endfacet
facet normal -0.5992776665113503 -0.8005412409243579 0.0
 outer loop
  vertex -0.5762774458718527 -0.6650596254317456 -0.16
  vertex -0.4757639193609294 -0.7403031088914371 -0.07497525323480524
  vertex -0.5762774458718527 -0.6650596254317456 0.01
 endloop
endfacet
facet normal -0.9046231566233305 -0.41312755299908505 -0.10479775500376609
 outer loop
  vertex -0.7403031088914407 -0.4757639193609238 -0.16
  vertex -0.8004784805354593 -0.3655601211834275 -0.075
  vertex -0.8443538167807577 -0.24792465002045816 -0.16
 endloop
endfacet
facet normal -0.8005412409243621 -0.5992776665113446 0.0
 outer loop
  vertex -0.7403031088914407 -0.4757639193609238 -0.16
  vertex -0.6650596254317489 -0.5762774458718489 -0.07497525323480528
  vertex -0.7403031088914407 -0.4757639193609238 0.01
 endloop
endfacet
facet normal -0.8776805133418479 -0.47924619612469554 -0.0
 outer loop
  vertex -0.7403031088914407 -0.4757639193609238 0.01
  vertex -0.8004784805354593 -0.3655601211834275 -0.075
  vertex -0.7403031088914407 -0.4757639193609238 -0.16
 endloop
endfacet
facet normal -0.9771468659711596 -0.21256528955297593 -0.0
 outer loop
  vertex -0.8443538167807577 -0.24792465002045816 0.01
  vertex -0.8710428688552209 -0.1252370576804903 -0.07502474676519473
  vertex -0.8443538167807577 -0.24792465002045816 -0.16
 endloop
endfacet
facet normal -0.9369508361213977 -0.3494612005522409 0.0
 outer loop
  vertex -0.8443538167807577 -0.24792465002045816 -0.16
  vertex -0.8004784805354593 -0.3655601211834275 -0.075
  vertex -0.8443538167807577 -0.24792465002045816 0.01
 endloop
endfacet
facet normal -0.9046260478401564 0.41312887337356957 0.10476758828084325
 outer loop
  vertex -0.7403031088914391 0.47576391936092627 0.01
  vertex -0.8004761559119761 0.36556521144166043 -0.07502474676519473
  vertex -0.8443538167807576 0.2479246500204584 0.01
 endloop
endfacet
facet normal -0.7515856765225234 0.6512526959354823 0.10482793941954177
 outer loop
  vertex -0.5762774458718503 0.6650596254317478 0.01
  vertex -0.6650596254317469 0.5762774458718513 -0.07497525323480528
  vertex -0.7403031088914391 0.47576391936092627 0.01
 endloop
endfacet
facet normal -0.5376620885168817 0.8366185401296805 0.10482793941954154
 outer loop
  vertex -0.3655652114416588 0.8004761559119767 0.01
  vertex -0.47576391936092505 0.7403031088914399 -0.07497525323480529
  vertex -0.5762774458718503 0.6650596254317478 0.01
 endloop
endfacet
facet normal -0.2801812119571772 0.9542095781390886 0.10479775500376808
 outer loop
  vertex -0.12523705768048918 0.8710428688552211 0.01
  vertex -0.24791928074531003 0.8443553933236455 -0.07500000000000001
  vertex -0.3655652114416588 0.8004761559119767 0.01
 endloop
endfacet
facet normal 2.644838830337527e-15 0.9944903735668097 0.10482793941954217
 outer loop
  vertex 0.12523705768049312 0.8710428688552204 0.01
  vertex 2.0955073165118197e-15 0.88 -0.07497525323480529
  vertex -0.12523705768048918 0.8710428688552211 0.01
 endloop
endfacet
facet normal 0.28018210742910077 0.9542126278363768 0.10476758828084261
 outer loop
  vertex 0.3655652114416625 0.8004761559119751 0.01
  vertex 0.24792465002046035 0.844353816780757 -0.07502474676519472
  vertex 0.12523705768049312 0.8710428688552204 0.01
 endloop
endfacet
facet normal 0.5376638084234173 0.8366212163564806 0.10479775500376824
 outer loop
  vertex 0.5762774458718531 0.6650596254317453 0.01
  vertex 0.47576862696000727 0.7403000834800638 -0.07500000000000002
  vertex 0.3655652114416625 0.8004761559119751 0.01
 endloop
endfacet
facet normal 0.7515856765225263 0.6512526959354789 0.10482793941954217
 outer loop
  vertex 0.7403031088914415 0.4757639193609227 0.01
  vertex 0.6650596254317496 0.5762774458718483 -0.07497525323480529
  vertex 0.5762774458718531 0.6650596254317453 0.01
 endloop
endfacet
facet normal 0.9046202628684393 0.41312623146550326 0.1048279394195416
 outer loop
  vertex 0.8443538167807588 0.24792465002045436 0.01
  vertex 0.8004761559119778 0.3655652114416564 -0.07497525323480529
  vertex 0.7403031088914415 0.4757639193609227 0.01
 endloop
endfacet
facet normal 0.9843678955006077 0.14153073667849467 0.10482793941954208
 outer loop
  vertex 0.88 -4.581813137691694e-15 0.01
  vertex 0.8710428688552214 0.1252370576804867 -0.07497525323480528
  vertex 0.8443538167807588 0.24792465002045436 0.01
 endloop
endfacet
facet normal 0.9843710443571269 -0.1415311894157236 0.10479775500376945
 outer loop
  vertex 0.8443538167807563 -0.24792465002046274 0.01
  vertex 0.871042072451568 -0.1252425966645436 -0.07500000000000001
  vertex 0.88 -4.581813137691694e-15 0.01
 endloop
endfacet
facet normal 0.9046202628684353 -0.41312623146551186 0.10482793941954271
 outer loop
  vertex 0.7403031088914367 -0.47576391936093015 0.01
  vertex 0.8004761559119741 -0.36556521144166476 -0.07497525323480528
  vertex 0.8443538167807563 -0.24792465002046274 0.01
 endloop
endfacet
facet normal 0.7515856765225195 -0.6512526959354865 0.10482793941954274
 outer loop
  vertex 0.5762774458718463 -0.6650596254317512 0.01
  vertex 0.6650596254317438 -0.5762774458718549 -0.07497525323480528
  vertex 0.7403031088914367 -0.47576391936093015 0.01
 endloop
endfacet
facet normal 0.5376620885168767 -0.8366185401296836 0.10482793941954228
 outer loop
  vertex 0.3655652114416543 -0.8004761559119787 0.01
  vertex 0.4757639193609205 -0.7403031088914429 -0.07497525323480532
  vertex 0.5762774458718463 -0.6650596254317512 0.01
 endloop
endfacet
facet normal 0.28018031569915913 -0.9542065257646126 0.1048279394195421
 outer loop
  vertex 0.12523705768048407 -0.8710428688552219 0.01
  vertex 0.24792465002045136 -0.8443538167807597 -0.07497525323480529
  vertex 0.3655652114416543 -0.8004761559119787 0.01
 endloop
endfacet
facet normal -7.0529035475667996e-15 -0.99449037356681 0.10482793941953966
 outer loop
  vertex -0.12523705768049612 -0.8710428688552201 0.01
  vertex -6.091122697201431e-15 -0.88 -0.07497525323480525
  vertex 0.12523705768048407 -0.8710428688552219 0.01
 endloop
endfacet
facet normal -0.2801803156991715 -0.9542065257646091 0.10482793941954145
 outer loop
  vertex -0.3655652114416647 -0.8004761559119741 0.01
  vertex -0.24792465002046235 -0.8443538167807565 -0.07497525323480526
  vertex -0.12523705768049612 -0.8710428688552201 0.01
 endloop
endfacet
facet normal -0.5376620885168868 -0.8366185401296775 0.10482793941953937
 outer loop
  vertex -0.5762774458718527 -0.6650596254317456 0.01
  vertex -0.4757639193609294 -0.7403031088914371 -0.07497525323480524
  vertex -0.3655652114416647 -0.8004761559119741 0.01
 endloop
endfacet
facet normal -0.7515856765225255 -0.6512526959354797 0.10482793941954167
 outer loop
  vertex -0.7403031088914407 -0.4757639193609238 0.01
  vertex -0.6650596254317489 -0.5762774458718489 -0.07497525323480528
  vertex -0.5762774458718527 -0.6650596254317456 0.01
 endloop
endfacet
facet normal -0.9046231566233306 -0.4131275529990851 0.10479775500376612
 outer loop
  vertex -0.8443538167807577 -0.24792465002045816 0.01
  vertex -0.8004784805354593 -0.3655601211834275 -0.075
  vertex -0.7403031088914407 -0.4757639193609238 0.01
 endloop
endfacet
facet normal -0.590544242212677 0.08490744367389307 -0.8025261515977035
 outer loop
  vertex -0.8443538167807576 0.2479246500204584 -0.16
  vertex -0.7412760636140489 0.1542132280611532 -0.24576514394877008
  vertex -0.88 -2.1553783664993416e-16 -0.16
 endloop
endfacet
facet normal -0.589759837163135 -0.08479466325406884 -0.8031146864258812
 outer loop
  vertex -0.88 -2.1553783664993416e-16 -0.16
  vertex -0.7346827459720346 -0.14976367195418766 -0.25089999370621147
  vertex -0.8443538167807577 -0.24792465002045816 -0.16
 endloop
endfacet
facet normal -0.5714328087099665 0.05881014974083861 -0.818538888152114
 outer loop
  vertex -0.88 -2.1553783664993416e-16 -0.16
  vertex -0.7412760636140489 0.1542132280611532 -0.24576514394877008
  vertex -0.7033333333333329 -1.722669830800609e-16 -0.28333333333333366
 endloop
endfacet
facet normal -0.5714714180583449 -0.05765383609966052 -0.8185941934349263
 outer loop
  vertex -0.7033333333333329 -1.722669830800609e-16 -0.28333333333333366
  vertex -0.7346827459720346 -0.14976367195418766 -0.25089999370621147
  vertex -0.88 -2.1553783664993416e-16 -0.16
 endloop
endfacet
facet normal -0.4722188941712379 0.1718736215364324 -0.864562764758953
 outer loop
  vertex -0.35 -8.572527594031472e-17 -0.5300000000000001
  vertex -0.43053679588838406 0.1451017043174243 -0.4571653202365149
  vertex -0.26811555509164225 0.22497566339028885 -0.5300000000000001
 endloop
endfacet
facet normal -0.4722188941712283 -0.17187362153643027 -0.8645627647589585
 outer loop
  vertex -0.26811555509164126 -0.22497566339029001 -0.5300000000000001
  vertex -0.43053679588840027 -0.14510170431727418 -0.45716532023653766
  vertex -0.35 -8.572527594031472e-17 -0.5300000000000001
 endloop
endfacet
facet normal -0.5699183089141112 0.0934559275323931 -0.8163694695256185
 outer loop
  vertex -0.5266666666666658 -1.2899612951018767e-16 -0.40666666666666734
  vertex -0.43053679588838406 0.1451017043174243 -0.4571653202365149
  vertex -0.35 -8.572527594031472e-17 -0.5300000000000001
 endloop
endfacet
facet normal -0.5699183089141162 -0.09345592753229906 -0.8163694695256257
 outer loop
  vertex -0.35 -8.572527594031472e-17 -0.5300000000000001
  vertex -0.43053679588840027 -0.14510170431727418 -0.45716532023653766
  vertex -0.5266666666666658 -1.2899612951018767e-16 -0.40666666666666734
 endloop
endfacet
facet normal -0.5428508883433641 0.24791169394976623 -0.8024043276477126
 outer loop
  vertex -0.7403031088914391 0.47576391936092627 -0.16
  vertex -0.663661666878592 0.33633422864766854 -0.2549286077699825
  vertex -0.8443538167807576 0.2479246500204584 -0.16
 endloop
endfacet
facet normal -0.5256964126163621 0.1822275209103638 -0.830925034154797
 outer loop
  vertex -0.663661666878592 0.33633422864766854 -0.2549286077699825
  vertex -0.7412760636140489 0.1542132280611532 -0.24576514394877008
  vertex -0.8443538167807576 0.2479246500204584 -0.16
 endloop
endfacet
facet normal -0.44825810637776303 0.38841786022874514 -0.8051063506903576
 outer loop
  vertex -0.5762774458718503 0.6650596254317478 -0.16
  vertex -0.5295244558677143 0.4742645137096909 -0.27807835787461105
  vertex -0.7403031088914391 0.47576391936092627 -0.16
 endloop
endfacet
facet normal -0.4628501847254889 0.3107891694391122 -0.8301685362978579
 outer loop
  vertex -0.5295244558677143 0.4742645137096909 -0.27807835787461105
  vertex -0.663661666878592 0.33633422864766854 -0.2549286077699825
  vertex -0.7403031088914391 0.47576391936092627 -0.16
 endloop
endfacet
facet normal -0.32378630085377796 0.5038213184818439 -0.8008286398616393
 outer loop
  vertex -0.3655652114416588 0.8004761559119767 -0.16
  vertex -0.39712906397869635 0.6313038103544033 -0.25366884174969234
  vertex -0.5762774458718503 0.6650596254317478 -0.16
 endloop
endfacet
facet normal -0.35417370850999175 0.42784927304178355 -0.8315683879019794
 outer loop
  vertex -0.5762774458718503 0.6650596254317478 -0.16
  vertex -0.39712906397869635 0.6313038103544033 -0.25366884174969234
  vertex -0.5295244558677143 0.4742645137096909 -0.27807835787461105
 endloop
endfacet
facet normal -0.16668566207245006 0.5676792322259525 -0.8061985979638157
 outer loop
  vertex -0.12523705768048918 0.8710428688552211 -0.16
  vertex -0.19613226947713533 0.667965167292672 -0.2883378297239265
  vertex -0.3655652114416588 0.8004761559119767 -0.16
 endloop
endfacet
facet normal -0.23527300331034626 0.5040265109954932 -0.8310258059332694
 outer loop
  vertex -0.19613226947713533 0.667965167292672 -0.2883378297239265
  vertex -0.39712906397869635 0.6313038103544033 -0.25366884174969234
  vertex -0.3655652114416588 0.8004761559119767 -0.16
 endloop
endfacet
facet normal 1.5682844544678728e-15 0.5896933208530282 -0.8076272576760443
 outer loop
  vertex 0.12523705768049312 0.8710428688552204 -0.16
  vertex 0.03905053139118937 0.6996167897561066 -0.2851676598380973
  vertex -0.12523705768048918 0.8710428688552211 -0.16
 endloop
endfacet
facet normal -0.06260894217380325 0.5487053919164583 -0.8336681073674843
 outer loop
  vertex -0.12523705768048918 0.8710428688552211 -0.16
  vertex 0.03905053139118937 0.6996167897561066 -0.2851676598380973
  vertex -0.19613226947713533 0.667965167292672 -0.2883378297239265
 endloop
endfacet
facet normal 0.16732081730227547 0.569842372286874 -0.804539256247802
 outer loop
  vertex 0.3655652114416625 0.8004761559119751 -0.16
  vertex 0.22695232184550132 0.6860699562660573 -0.26985955191127664
  vertex 0.12523705768049312 0.8710428688552204 -0.16
 endloop
endfacet
facet normal 0.10714076761781073 0.5506025044788556 -0.8278633570679873
 outer loop
  vertex 0.12523705768049312 0.8710428688552204 -0.16
  vertex 0.22695232184550132 0.6860699562660573 -0.26985955191127664
  vertex 0.03905053139118937 0.6996167897561066 -0.2851676598380973
 endloop
endfacet
facet normal 0.3212274586267237 0.4998396822568907 -0.8043464501479118
 outer loop
  vertex 0.5762774458718531 0.6650596254317453 -0.16
  vertex 0.40960222268812113 0.5960358152618064 -0.26945718438449556
  vertex 0.3655652114416625 0.8004761559119751 -0.16
 endloop
endfacet
facet normal 0.24741638030476057 0.49821331739707586 -0.8310045879085689
 outer loop
  vertex 0.40960222268812113 0.5960358152618064 -0.26945718438449556
  vertex 0.22695232184550132 0.6860699562660573 -0.26985955191127664
  vertex 0.3655652114416625 0.8004761559119751 -0.16
 endloop
endfacet
facet normal 0.4507590793750037 0.3905849656670076 -0.8026578579668311
 outer loop
  vertex 0.7403031088914415 0.4757639193609227 -0.16
  vertex 0.5619051576102428 0.47148982317814253 -0.2622651098198064
  vertex 0.5762774458718531 0.6650596254317453 -0.16
 endloop
endfacet
facet normal 0.3753518434029045 0.41103121276678306 -0.8307612989213621
 outer loop
  vertex 0.5762774458718531 0.6650596254317453 -0.16
  vertex 0.5619051576102428 0.47148982317814253 -0.2622651098198064
  vertex 0.40960222268812113 0.5960358152618064 -0.26945718438449556
 endloop
endfacet
facet normal 0.5381792331274374 0.245778220498768 -0.8061985979638158
 outer loop
  vertex 0.8443538167807588 0.24792465002045436 -0.16
  vertex 0.6332537128050609 0.28919728052868054 -0.2883378297239264
  vertex 0.7403031088914415 0.4757639193609227 -0.16
 endloop
endfacet
facet normal 0.46862126711171825 0.3021460845482547 -0.8301215884451907
 outer loop
  vertex 0.6332537128050609 0.28919728052868054 -0.2883378297239264
  vertex 0.5619051576102428 0.47148982317814253 -0.2622651098198064
  vertex 0.7403031088914415 0.4757639193609227 -0.16
 endloop
endfacet
facet normal 0.5880901936552964 0.08455460475892906 -0.8043633774237471
 outer loop
  vertex 0.88 -4.581813137691694e-15 -0.16
  vertex 0.7091231584230306 0.10531388929209573 -0.2738617484834066
  vertex 0.8443538167807588 0.24792465002045436 -0.16
 endloop
endfacet
facet normal 0.5351787390170756 0.15544651386651043 -0.8303132533151821
 outer loop
  vertex 0.8443538167807588 0.24792465002045436 -0.16
  vertex 0.7091231584230306 0.10531388929209573 -0.2738617484834066
  vertex 0.6332537128050609 0.28919728052868054 -0.2883378297239264
 endloop
endfacet
facet normal 0.5858816082124125 -0.08423705811181542 -0.8060067364477197
 outer loop
  vertex 0.8443538167807563 -0.24792465002046274 -0.16
  vertex 0.6912881633415944 -0.10080892992807647 -0.286637833216453
  vertex 0.88 -4.581813137691694e-15 -0.16
 endloop
endfacet
facet normal 0.5559642321889188 0.0034147217744310513 -0.8311992012759574
 outer loop
  vertex 0.6912881633415944 -0.10080892992807647 -0.286637833216453
  vertex 0.7091231584230306 0.10531388929209573 -0.2738617484834066
  vertex 0.88 -4.581813137691694e-15 -0.16
 endloop
endfacet
facet normal 0.5392680067266239 -0.24627544674100407 -0.8053188320495263
 outer loop
  vertex 0.7403031088914367 -0.47576391936093015 -0.16
  vertex 0.6408543186603068 -0.2988631809428503 -0.28069239584858513
  vertex 0.8443538167807563 -0.24792465002046274 -0.16
 endloop
endfacet
facet normal 0.5329290328119664 -0.1606476587112315 -0.8307701100404984
 outer loop
  vertex 0.6408543186603068 -0.2988631809428503 -0.28069239584858513
  vertex 0.6912881633415944 -0.10080892992807647 -0.286637833216453
  vertex 0.8443538167807563 -0.24792465002046274 -0.16
 endloop
endfacet
facet normal 0.45153589902739283 -0.3912580837275073 -0.8018930376349472
 outer loop
  vertex 0.5762774458718463 -0.6650596254317512 -0.16
  vertex 0.5639493128078316 -0.4771130862580435 -0.25864432498380335
  vertex 0.7403031088914367 -0.47576391936093015 -0.16
 endloop
endfacet
facet normal 0.4668221566348754 -0.3041234098558478 -0.8304131656304685
 outer loop
  vertex 0.7403031088914367 -0.47576391936093015 -0.16
  vertex 0.5639493128078316 -0.4771130862580435 -0.25864432498380335
  vertex 0.6408543186603068 -0.2988631809428503 -0.28069239584858513
 endloop
endfacet
facet normal 0.32108955531773326 -0.4996251005195789 -0.8045348074487895
 outer loop
  vertex 0.3655652114416543 -0.8004761559119787 -0.16
  vertex 0.3979012137232807 -0.5964354946130878 -0.27380624240301404
  vertex 0.5762774458718463 -0.6650596254317512 -0.16
 endloop
endfacet
facet normal 0.37208603792745926 -0.4121111071895384 -0.8316949054253358
 outer loop
  vertex 0.3979012137232807 -0.5964354946130878 -0.27380624240301404
  vertex 0.5639493128078316 -0.4771130862580435 -0.25864432498380335
  vertex 0.5762774458718463 -0.6650596254317512 -0.16
 endloop
endfacet
facet normal 0.16754971418408918 -0.5706219234763086 -0.8039388743710729
 outer loop
  vertex 0.12523705768048407 -0.8710428688552219 -0.16
  vertex 0.21498204119706932 -0.6898768375265439 -0.26988467624082635
  vertex 0.3655652114416543 -0.8004761559119787 -0.16
 endloop
endfacet
facet normal 0.23841293650518688 -0.5016134596130842 -0.8315907700557807
 outer loop
  vertex 0.3655652114416543 -0.8004761559119787 -0.16
  vertex 0.21498204119706932 -0.6898768375265439 -0.26988467624082635
  vertex 0.3979012137232807 -0.5964354946130878 -0.27380624240301404
 endloop
endfacet
facet normal -4.2049175947420694e-15 -0.5929118470725956 -0.8052673727408575
 outer loop
  vertex -0.12523705768049612 -0.8710428688552201 -0.16
  vertex 0.015185284918439932 -0.7102261040116264 -0.2784080819754503
  vertex 0.12523705768048407 -0.8710428688552219 -0.16
 endloop
endfacet
facet normal 0.09136804819558865 -0.5491313390266744 -0.830726580932439
 outer loop
  vertex 0.015185284918439932 -0.7102261040116264 -0.2784080819754503
  vertex 0.21498204119706932 -0.6898768375265439 -0.26988467624082635
  vertex 0.12523705768048407 -0.8710428688552219 -0.16
 endloop
endfacet
facet normal -0.16668566207245428 -0.5676792322259511 -0.8061985979638159
 outer loop
  vertex -0.3655652114416647 -0.8004761559119741 -0.16
  vertex -0.196132269477141 -0.6679651672926721 -0.28833782972392524
  vertex -0.12523705768049612 -0.8710428688552201 -0.16
 endloop
endfacet
facet normal -0.07100040675453659 -0.5504724567284373 -0.8318287183212955
 outer loop
  vertex -0.196132269477141 -0.6679651672926721 -0.28833782972392524
  vertex 0.015185284918439932 -0.7102261040116264 -0.2784080819754503
  vertex -0.12523705768049612 -0.8710428688552201 -0.16
 endloop
endfacet
facet normal -0.3224596684097841 -0.5017570381052083 -0.8026578579699701
 outer loop
  vertex -0.5762774458718527 -0.6650596254317456 -0.16
  vertex -0.386723294968238 -0.62328577121655 -0.2622651098376266
  vertex -0.3655652114416647 -0.8004761559119741 -0.16
 endloop
endfacet
facet normal -0.23237891322339674 -0.5068512494683302 -0.8301215884444313
 outer loop
  vertex -0.3655652114416647 -0.8004761559119741 -0.16
  vertex -0.386723294968238 -0.62328577121655 -0.2622651098376266
  vertex -0.196132269477141 -0.6679651672926721 -0.28833782972392524
 endloop
endfacet
facet normal -0.4481889894355363 -0.3883579700573808 -0.8051737184245791
 outer loop
  vertex -0.7403031088914407 -0.4757639193609238 -0.16
  vertex -0.5258696822874565 -0.48300949441461305 -0.2758667028198941
  vertex -0.5762774458718527 -0.6650596254317456 -0.16
 endloop
endfacet
facet normal -0.3531156689827845 -0.430798603414428 -0.8304949654362866
 outer loop
  vertex -0.5258696822874565 -0.48300949441461305 -0.2758667028198941
  vertex -0.386723294968238 -0.62328577121655 -0.2622651098376266
  vertex -0.5762774458718527 -0.6650596254317456 -0.16
 endloop
endfacet
facet normal -0.5422585800979322 -0.24764119583763428 -0.8028882054397618
 outer loop
  vertex -0.8443538167807577 -0.24792465002045816 -0.16
  vertex -0.6597186918286478 -0.32659734596702156 -0.260434132227152
  vertex -0.7403031088914407 -0.4757639193609238 -0.16
 endloop
endfacet
facet normal -0.45985668920146566 -0.311472115753053 -0.8315749794847025
 outer loop
  vertex -0.7403031088914407 -0.4757639193609238 -0.16
  vertex -0.6597186918286478 -0.32659734596702156 -0.260434132227152
  vertex -0.5258696822874565 -0.48300949441461305 -0.2758667028198941
 endloop
endfacet
facet normal -0.5278929811343055 -0.17902407196489056 -0.8302285119930811
 outer loop
  vertex -0.8443538167807577 -0.24792465002045816 -0.16
  vertex -0.7346827459720346 -0.14976367195418766 -0.25089999370621147
  vertex -0.6597186918286478 -0.32659734596702156 -0.260434132227152
 endloop
endfacet
facet normal -0.2666359808357079 0.46182706593340794 -0.845943860368476
 outer loop
  vertex -0.26811555509164225 0.22497566339028885 -0.5300000000000001
  vertex -0.27877876711600613 0.4695711237261176 -0.3931067554127523
  vertex -0.0607768621834255 0.3446827135542728 -0.5300000000000001
 endloop
endfacet
facet normal -0.39941746662723787 0.434415827319042 -0.8073094675078396
 outer loop
  vertex -0.26811555509164225 0.22497566339028885 -0.5300000000000001
  vertex -0.4493975392824007 0.31983259278641524 -0.3892676700771002
  vertex -0.27877876711600613 0.4695711237261176 -0.3931067554127523
 endloop
endfacet
facet normal -0.5003474568556702 0.26614768691945045 -0.8239040181753513
 outer loop
  vertex -0.26811555509164225 0.22497566339028885 -0.5300000000000001
  vertex -0.43053679588838406 0.1451017043174243 -0.4571653202365149
  vertex -0.4493975392824007 0.31983259278641524 -0.3892676700771002
 endloop
endfacet
facet normal 0.09210224921515844 0.5223378115198254 -0.8477501910033335
 outer loop
  vertex -0.0607768621834255 0.3446827135542728 -0.5300000000000001
  vertex 0.0967183978145255 0.5232256962572069 -0.402880690942379
  vertex 0.1750000000000003 0.3031088913245533 -0.5300000000000001
 endloop
endfacet
facet normal -0.19459291586037145 0.5503284045921666 -0.811955814189417
 outer loop
  vertex -0.27877876711600613 0.4695711237261176 -0.3931067554127523
  vertex -0.07960988115556833 0.5537700479136138 -0.38377101913707135
  vertex -0.0607768621834255 0.3446827135542728 -0.5300000000000001
 endloop
endfacet
facet normal 0.010625812704977767 0.5737248713619468 -0.8189791597379487
 outer loop
  vertex -0.0607768621834255 0.3446827135542728 -0.5300000000000001
  vertex -0.07960988115556833 0.5537700479136138 -0.38377101913707135
  vertex 0.0967183978145255 0.5232256962572069 -0.402880690942379
 endloop
endfacet
facet normal 0.40846288238093176 0.34274105395544796 -0.8459826497337696
 outer loop
  vertex 0.1750000000000003 0.3031088913245533 -0.5300000000000001
  vertex 0.417710984225075 0.35182021645610445 -0.3930778076197024
  vertex 0.328892417275068 0.11970705016398381 -0.5300000000000001
 endloop
endfacet
facet normal 0.36836716462906677 0.4504924939645146 -0.8132417505912827
 outer loop
  vertex 0.1750000000000003 0.3031088913245533 -0.5300000000000001
  vertex 0.27729261062386584 0.5103291895995086 -0.36887641305589147
  vertex 0.417710984225075 0.35182021645610445 -0.3930778076197024
 endloop
endfacet
facet normal 0.19278302603516356 0.5412358896058457 -0.8184732229433619
 outer loop
  vertex 0.0967183978145255 0.5232256962572069 -0.402880690942379
  vertex 0.27729261062386584 0.5103291895995086 -0.36887641305589147
  vertex 0.1750000000000003 0.3031088913245533 -0.5300000000000001
 endloop
endfacet
facet normal 0.5300978111682488 1.2290980240014682e-16 -0.8479365015109513
 outer loop
  vertex 0.328892417275068 0.11970705016398381 -0.5300000000000001
  vertex 0.5308768746570325 0.0008752158311323512 -0.403726961208306
  vertex 0.32889241727506807 -0.11970705016398372 -0.5300000000000001
 endloop
endfacet
facet normal 0.5076535010784482 0.28530107546635053 -0.8129521629103018
 outer loop
  vertex 0.417710984225075 0.35182021645610445 -0.3930778076197024
  vertex 0.5459677596388469 0.1820902655720133 -0.3725527825185729
  vertex 0.328892417275068 0.11970705016398381 -0.5300000000000001
 endloop
endfacet
facet normal 0.5667866294411452 0.09361066856693082 -0.818529143902157
 outer loop
  vertex 0.328892417275068 0.11970705016398381 -0.5300000000000001
  vertex 0.5459677596388469 0.1820902655720133 -0.3725527825185729
  vertex 0.5308768746570325 0.0008752158311323512 -0.403726961208306
 endloop
endfacet
facet normal 0.40846288238066114 -0.3427410539552198 -0.8459826497339927
 outer loop
  vertex 0.32889241727506807 -0.11970705016398372 -0.5300000000000001
  vertex 0.41771098422368275 -0.3518202164548498 -0.3930778076210101
  vertex 0.17500000000000124 -0.30310889132455276 -0.5300000000000001
 endloop
endfacet
facet normal 0.5072432501784208 -0.2855562576299706 -0.8131186314903858
 outer loop
  vertex 0.32889241727506807 -0.11970705016398372 -0.5300000000000001
  vertex 0.5326335400409757 -0.17910498399993222 -0.38204156399243927
  vertex 0.41771098422368275 -0.3518202164548498 -0.3930778076210101
 endloop
endfacet
facet normal 0.5671522136444166 -0.09306408546834487 -0.8183382201475004
 outer loop
  vertex 0.5308768746570325 0.0008752158311323512 -0.403726961208306
  vertex 0.5326335400409757 -0.17910498399993222 -0.38204156399243927
  vertex 0.32889241727506807 -0.11970705016398372 -0.5300000000000001
 endloop
endfacet
facet normal 0.09223503168022247 -0.5230908582998951 -0.8472712982829216
 outer loop
  vertex 0.17500000000000124 -0.30310889132455276 -0.5300000000000001
  vertex 0.09187753073419337 -0.5278862065971988 -0.400275134530118
  vertex -0.06077686218342395 -0.3446827135542731 -0.5300000000000001
 endloop
endfacet
facet normal 0.36679044990254145 -0.45433685706078736 -0.8118145023195982
 outer loop
  vertex 0.41771098422368275 -0.3518202164548498 -0.3930778076210101
  vertex 0.27111412604042673 -0.5158146443361246 -0.36753208835574813
  vertex 0.17500000000000124 -0.30310889132455276 -0.5300000000000001
 endloop
endfacet
facet normal 0.18621544412110447 -0.5418624806781286 -0.8195784650685525
 outer loop
  vertex 0.17500000000000124 -0.30310889132455276 -0.5300000000000001
  vertex 0.27111412604042673 -0.5158146443361246 -0.36753208835574813
  vertex 0.09187753073419337 -0.5278862065971988 -0.400275134530118
 endloop
endfacet
facet normal -0.2654598699871053 -0.4597899821883 -0.8474221083413578
 outer loop
  vertex -0.06077686218342395 -0.3446827135542731 -0.5300000000000001
  vertex -0.2702269453857329 -0.4612709264238308 -0.401130711484409
  vertex -0.26811555509164126 -0.22497566339029001 -0.5300000000000001
 endloop
endfacet
facet normal -0.19496951779751018 -0.5484943096216756 -0.813105700043019
 outer loop
  vertex -0.06077686218342395 -0.3446827135542731 -0.5300000000000001
  vertex -0.0849881854788174 -0.5581482875781253 -0.38019767703767726
  vertex -0.2702269453857329 -0.4612709264238308 -0.401130711484409
 endloop
endfacet
facet normal 0.005469809877218574 -0.5748376929793649 -0.8182491722636012
 outer loop
  vertex 0.09187753073419337 -0.5278862065971988 -0.400275134530118
  vertex -0.0849881854788174 -0.5581482875781253 -0.38019767703767726
  vertex -0.06077686218342395 -0.3446827135542731 -0.5300000000000001
 endloop
endfacet
facet normal -0.39770874465992245 -0.43656087577854025 -0.8069958836081523
 outer loop
  vertex -0.2702269453857329 -0.4612709264238308 -0.401130711484409
  vertex -0.4462226467387006 -0.3186309703693882 -0.39155940452809995
  vertex -0.26811555509164126 -0.22497566339029001 -0.5300000000000001
 endloop
endfacet
facet normal -0.5003736843196265 -0.26624388751864947 -0.8238570072526904
 outer loop
  vertex -0.4462226467387006 -0.3186309703693882 -0.39155940452809995
  vertex -0.43053679588840027 -0.14510170431727418 -0.45716532023653766
  vertex -0.26811555509164126 -0.22497566339029001 -0.5300000000000001
 endloop
endfacet
facet normal -0.5706375280115867 -0.0789337591032298 -0.8173997022868671
 outer loop
  vertex -0.5266666666666658 -1.2899612951018767e-16 -0.40666666666666734
  vertex -0.5939774161507579 -0.16753003810880937 -0.34349828622759027
  vertex -0.7033333333333329 -1.722669830800609e-16 -0.28333333333333366
 endloop
endfacet
facet normal -0.5703257954403789 0.08553368281738041 -0.8169531664416233
 outer loop
  vertex -0.7033333333333329 -1.722669830800609e-16 -0.28333333333333366
  vertex -0.6058641644621113 0.18590843863031048 -0.33191353287816105
  vertex -0.5266666666666658 -1.2899612951018767e-16 -0.40666666666666734
 endloop
endfacet
facet normal -0.5542211876304881 -0.06371901934452158 -0.8299269616991748
 outer loop
  vertex -0.5939774161507579 -0.16753003810880937 -0.34349828622759027
  vertex -0.7346827459720346 -0.14976367195418766 -0.25089999370621147
  vertex -0.7033333333333329 -1.722669830800609e-16 -0.28333333333333366
 endloop
endfacet
facet normal -0.5469039769037345 0.06870228890045317 -0.8343716411448308
 outer loop
  vertex -0.7033333333333329 -1.722669830800609e-16 -0.28333333333333366
  vertex -0.7412760636140489 0.1542132280611532 -0.24576514394877008
  vertex -0.6058641644621113 0.18590843863031048 -0.33191353287816105
 endloop
endfacet
facet normal -0.5609939565853634 -0.08508431920067595 -0.8234357529891794
 outer loop
  vertex -0.5266666666666658 -1.2899612951018767e-16 -0.40666666666666734
  vertex -0.43053679588840027 -0.14510170431727418 -0.45716532023653766
  vertex -0.5939774161507579 -0.16753003810880937 -0.34349828622759027
 endloop
endfacet
facet normal -0.5651872665401708 0.08900694331264497 -0.820147009860421
 outer loop
  vertex -0.6058641644621113 0.18590843863031048 -0.33191353287816105
  vertex -0.43053679588838406 0.1451017043174243 -0.4571653202365149
  vertex -0.5266666666666658 -1.2899612951018767e-16 -0.40666666666666734
 endloop
endfacet
facet normal 0.3452278834232812 0.432962438138726 -0.8326831544279321
 outer loop
  vertex 0.417710984225075 0.35182021645610445 -0.3930778076197024
  vertex 0.27729261062386584 0.5103291895995086 -0.36887641305589147
  vertex 0.40960222268812113 0.5960358152618064 -0.26945718438449556
 endloop
endfacet
facet normal 0.38741929321653135 0.4265665465981124 -0.8172804124454249
 outer loop
  vertex 0.40960222268812113 0.5960358152618064 -0.26945718438449556
  vertex 0.5619051576102428 0.47148982317814253 -0.2622651098198064
  vertex 0.417710984225075 0.35182021645610445 -0.3930778076197024
 endloop
endfacet
facet normal 0.48248416087335455 0.2635786766863626 -0.8353055223704682
 outer loop
  vertex 0.6332537128050609 0.28919728052868054 -0.2883378297239264
  vertex 0.5459677596388469 0.1820902655720133 -0.3725527825185729
  vertex 0.417710984225075 0.35182021645610445 -0.3930778076197024
 endloop
endfacet
facet normal 0.48667123173126897 0.3074343183294771 -0.8177011997780479
 outer loop
  vertex 0.417710984225075 0.35182021645610445 -0.3930778076197024
  vertex 0.5619051576102428 0.47148982317814253 -0.2622651098198064
  vertex 0.6332537128050609 0.28919728052868054 -0.2883378297239264
 endloop
endfacet
facet normal 0.3404193755866492 -0.4342203304739147 -0.8340068065239756
 outer loop
  vertex 0.3979012137232807 -0.5964354946130878 -0.27380624240301404
  vertex 0.27111412604042673 -0.5158146443361246 -0.36753208835574813
  vertex 0.41771098422368275 -0.3518202164548498 -0.3930778076210101
 endloop
endfacet
facet normal 0.38341428035974506 -0.429673843424247 -0.8175413615794949
 outer loop
  vertex 0.41771098422368275 -0.3518202164548498 -0.3930778076210101
  vertex 0.5639493128078316 -0.4771130862580435 -0.25864432498380335
  vertex 0.3979012137232807 -0.5964354946130878 -0.27380624240301404
 endloop
endfacet
facet normal 0.48336415072562816 -0.2683800545967807 -0.8332654103513005
 outer loop
  vertex 0.41771098422368275 -0.3518202164548498 -0.3930778076210101
  vertex 0.5326335400409757 -0.17910498399993222 -0.38204156399243927
  vertex 0.6408543186603068 -0.2988631809428503 -0.28069239584858513
 endloop
endfacet
facet normal 0.48533700010699055 -0.3104942452397399 -0.8173379472410118
 outer loop
  vertex 0.6408543186603068 -0.2988631809428503 -0.28069239584858513
  vertex 0.5639493128078316 -0.4771130862580435 -0.25864432498380335
  vertex 0.41771098422368275 -0.3518202164548498 -0.3930778076210101
 endloop
endfacet
facet normal -0.3741333318291056 -0.40566427774639147 -0.8339428899960422
 outer loop
  vertex -0.5258696822874565 -0.48300949441461305 -0.2758667028198941
  vertex -0.4462226467387006 -0.3186309703693882 -0.39155940452809995
  vertex -0.2702269453857329 -0.4612709264238308 -0.401130711484409
 endloop
endfacet
facet normal -0.3643984651890961 -0.44099293712594556 -0.8202066739382599
 outer loop
  vertex -0.2702269453857329 -0.4612709264238308 -0.401130711484409
  vertex -0.386723294968238 -0.62328577121655 -0.2622651098376266
  vertex -0.5258696822874565 -0.48300949441461305 -0.2758667028198941
 endloop
endfacet
facet normal -0.17732132495970418 -0.5196480270828894 -0.8357769293677563
 outer loop
  vertex -0.2702269453857329 -0.4612709264238308 -0.401130711484409
  vertex -0.0849881854788174 -0.5581482875781253 -0.38019767703767726
  vertex -0.196132269477141 -0.6679651672926721 -0.28833782972392524
 endloop
endfacet
facet normal -0.23557578519981118 -0.5292506690613789 -0.815105992325891
 outer loop
  vertex -0.196132269477141 -0.6679651672926721 -0.28833782972392524
  vertex -0.386723294968238 -0.62328577121655 -0.2622651098376266
  vertex -0.2702269453857329 -0.4612709264238308 -0.401130711484409
 endloop
endfacet
facet normal -0.5274388833096815 -0.25832010344368445 -0.8093694759069435
 outer loop
  vertex -0.5939774161507579 -0.16753003810880937 -0.34349828622759027
  vertex -0.43053679588840027 -0.14510170431727418 -0.45716532023653766
  vertex -0.4462226467387006 -0.3186309703693882 -0.39155940452809995
 endloop
endfacet
facet normal -0.5034964302050683 -0.22720450801595224 -0.8335883014462127
 outer loop
  vertex -0.4462226467387006 -0.3186309703693882 -0.39155940452809995
  vertex -0.6597186918286478 -0.32659734596702156 -0.260434132227152
  vertex -0.5939774161507579 -0.16753003810880937 -0.34349828622759027
 endloop
endfacet
facet normal -0.5563054454771964 -0.19224383551230897 -0.8084346349828998
 outer loop
  vertex -0.6597186918286478 -0.32659734596702156 -0.260434132227152
  vertex -0.7346827459720346 -0.14976367195418766 -0.25089999370621147
  vertex -0.5939774161507579 -0.16753003810880937 -0.34349828622759027
 endloop
endfacet
facet normal -0.3748204804327829 0.4057146194413256 -0.8336097738268898
 outer loop
  vertex -0.27877876711600613 0.4695711237261176 -0.3931067554127523
  vertex -0.4493975392824007 0.31983259278641524 -0.3892676700771002
  vertex -0.5295244558677143 0.4742645137096909 -0.27807835787461105
 endloop
endfacet
facet normal -0.3680926108839392 0.4378252688228227 -0.8202541458553368
 outer loop
  vertex -0.5295244558677143 0.4742645137096909 -0.27807835787461105
  vertex -0.39712906397869635 0.6313038103544033 -0.25366884174969234
  vertex -0.27877876711600613 0.4695711237261176 -0.3931067554127523
 endloop
endfacet
facet normal -0.1792171128783826 0.5167528963571053 -0.8371664533162326
 outer loop
  vertex -0.19613226947713533 0.667965167292672 -0.2883378297239265
  vertex -0.07960988115556833 0.5537700479136138 -0.38377101913707135
  vertex -0.27877876711600613 0.4695711237261176 -0.3931067554127523
 endloop
endfacet
facet normal -0.23703978215725477 0.5290390924558351 -0.8148188635079257
 outer loop
  vertex -0.27877876711600613 0.4695711237261176 -0.3931067554127523
  vertex -0.39712906397869635 0.6313038103544033 -0.25366884174969234
  vertex -0.19613226947713533 0.667965167292672 -0.2883378297239265
 endloop
endfacet
facet normal -0.5205507036756292 0.25985697487202003 -0.8133273126565772
 outer loop
  vertex -0.4493975392824007 0.31983259278641524 -0.3892676700771002
  vertex -0.43053679588838406 0.1451017043174243 -0.4571653202365149
  vertex -0.6058641644621113 0.18590843863031048 -0.33191353287816105
 endloop
endfacet
facet normal -0.503776376216608 0.23225085750584867 -0.8320269839096929
 outer loop
  vertex -0.6058641644621113 0.18590843863031048 -0.33191353287816105
  vertex -0.663661666878592 0.33633422864766854 -0.2549286077699825
  vertex -0.4493975392824007 0.31983259278641524 -0.3892676700771002
 endloop
endfacet
facet normal -0.558696946932017 0.19757081665169968 -0.8054958062562606
 outer loop
  vertex -0.6058641644621113 0.18590843863031048 -0.33191353287816105
  vertex -0.7412760636140489 0.1542132280611532 -0.24576514394877008
  vertex -0.663661666878592 0.33633422864766854 -0.2549286077699825
 endloop
endfacet
facet normal 0.0007507186053848142 -0.5558873817699216 -0.8312572737790369
 outer loop
  vertex 0.09187753073419337 -0.5278862065971988 -0.400275134530118
  vertex 0.015185284918439932 -0.7102261040116264 -0.2784080819754503
  vertex -0.0849881854788174 -0.5581482875781253 -0.38019767703767726
 endloop
endfacet
facet normal 0.09360486374943713 -0.5801444825269733 -0.8091171169095113
 outer loop
  vertex 0.09187753073419337 -0.5278862065971988 -0.400275134530118
  vertex 0.21498204119706932 -0.6898768375265439 -0.26988467624082635
  vertex 0.015185284918439932 -0.7102261040116264 -0.2784080819754503
 endloop
endfacet
facet normal 0.18700010837387754 -0.5258104573271662 -0.8297917343728811
 outer loop
  vertex 0.27111412604042673 -0.5158146443361246 -0.36753208835574813
  vertex 0.21498204119706932 -0.6898768375265439 -0.26988467624082635
  vertex 0.09187753073419337 -0.5278862065971988 -0.400275134530118
 endloop
endfacet
facet normal 0.006362266975726229 0.5565155846735088 -0.830812810189174
 outer loop
  vertex -0.07960988115556833 0.5537700479136138 -0.38377101913707135
  vertex 0.03905053139118937 0.6996167897561066 -0.2851676598380973
  vertex 0.0967183978145255 0.5232256962572069 -0.402880690942379
 endloop
endfacet
facet normal 0.1075439559459144 0.575956449749877 -0.8103755089654552
 outer loop
  vertex 0.03905053139118937 0.6996167897561066 -0.2851676598380973
  vertex 0.22695232184550132 0.6860699562660573 -0.26985955191127664
  vertex 0.0967183978145255 0.5232256962572069 -0.402880690942379
 endloop
endfacet
facet normal 0.19365426692901824 0.5231020524898401 -0.829977269315914
 outer loop
  vertex 0.0967183978145255 0.5232256962572069 -0.402880690942379
  vertex 0.22695232184550132 0.6860699562660573 -0.26985955191127664
  vertex 0.27729261062386584 0.5103291895995086 -0.36887641305589147
 endloop
endfacet
facet normal 0.5469792710031033 -0.09487721873864563 -0.8317523612574437
 outer loop
  vertex 0.5308768746570325 0.0008752158311323512 -0.403726961208306
  vertex 0.6912881633415944 -0.10080892992807647 -0.286637833216453
  vertex 0.5326335400409757 -0.17910498399993222 -0.38204156399243927
 endloop
endfacet
facet normal 0.5892024425314375 -0.0009001358699447422 -0.8079849450765798
 outer loop
  vertex 0.5308768746570325 0.0008752158311323512 -0.403726961208306
  vertex 0.7091231584230306 0.10531388929209573 -0.2738617484834066
  vertex 0.6912881633415944 -0.10080892992807647 -0.286637833216453
 endloop
endfacet
facet normal 0.5482192592643027 0.0972440728702567 -0.8306619252519662
 outer loop
  vertex 0.5459677596388469 0.1820902655720133 -0.3725527825185729
  vertex 0.7091231584230306 0.10531388929209573 -0.2738617484834066
  vertex 0.5308768746570325 0.0008752158311323512 -0.403726961208306
 endloop
endfacet
facet normal -0.4823246501190256 0.33307988304241665 -0.8101979532188474
 outer loop
  vertex -0.4493975392824007 0.31983259278641524 -0.3892676700771002
  vertex -0.663661666878592 0.33633422864766854 -0.2549286077699825
  vertex -0.5295244558677143 0.4742645137096909 -0.27807835787461105
 endloop
endfacet
facet normal -0.4841117418323468 -0.3345005360018434 -0.8085451210875808
 outer loop
  vertex -0.5258696822874565 -0.48300949441461305 -0.2758667028198941
  vertex -0.6597186918286478 -0.32659734596702156 -0.260434132227152
  vertex -0.4462226467387006 -0.3186309703693882 -0.39155940452809995
 endloop
endfacet
facet normal 0.25572273856940075 -0.5344086172668921 -0.8056136237486644
 outer loop
  vertex 0.3979012137232807 -0.5964354946130878 -0.27380624240301404
  vertex 0.21498204119706932 -0.6898768375265439 -0.26988467624082635
  vertex 0.27111412604042673 -0.5158146443361246 -0.36753208835574813
 endloop
endfacet
facet normal 0.26286764115807815 0.5296686482725338 -0.8064438767013702
 outer loop
  vertex 0.27729261062386584 0.5103291895995086 -0.36887641305589147
  vertex 0.22695232184550132 0.6860699562660573 -0.26985955191127664
  vertex 0.40960222268812113 0.5960358152618064 -0.26945718438449556
 endloop
endfacet
facet normal 0.5675544521792243 0.170763287271995 -0.8054327057747299
 outer loop
  vertex 0.6332537128050609 0.28919728052868054 -0.2883378297239264
  vertex 0.7091231584230306 0.10531388929209573 -0.2738617484834066
  vertex 0.5459677596388469 0.1820902655720133 -0.3725527825185729
 endloop
endfacet
facet normal 0.5677765903846 -0.16876878052693714 -0.8056964950467942
 outer loop
  vertex 0.5326335400409757 -0.17910498399993222 -0.38204156399243927
  vertex 0.6912881633415944 -0.10080892992807647 -0.286637833216453
  vertex 0.6408543186603068 -0.2988631809428503 -0.28069239584858513
 endloop
endfacet
facet normal -0.0803446745083856 -0.5904399874178632 -0.803072446629901
 outer loop
  vertex -0.0849881854788174 -0.5581482875781253 -0.38019767703767726
  vertex 0.015185284918439932 -0.7102261040116264 -0.2784080819754503
  vertex -0.196132269477141 -0.6679651672926721 -0.28833782972392524
 endloop
endfacet
facet normal -0.06956632733160185 0.5969543240898765 -0.7992534398124235
 outer loop
  vertex -0.19613226947713533 0.667965167292672 -0.2883378297239265
  vertex 0.03905053139118937 0.6996167897561066 -0.2851676598380973
  vertex -0.07960988115556833 0.5537700479136138 -0.38377101913707135
 endloop
endfacet
facet normal 0.0 0.0 1.0
 outer loop
  vertex -0.8443538167807576 0.2479246500204584 0.01
  vertex -0.88 -2.1553783664993416e-16 0.01
  vertex -0.6961098643544967 0.12166511856837899 0.01
 endloop
endfacet
facet normal 0.0 0.0 1.0
 outer loop
  vertex -0.88 -2.1553783664993416e-16 0.01
  vertex -0.8443538167807577 -0.24792465002045816 0.01
  vertex -0.6559192268139268 -0.0612252789810417 0.01
 endloop
endfacet
facet normal -0.0 0.0 1.0
 outer loop
  vertex -0.88 -2.1553783664993416e-16 0.01
  vertex -0.6559192268139268 -0.0612252789810417 0.01
  vertex -0.6961098643544967 0.12166511856837899 0.01
 endloop
endfacet
facet normal 0.0 0.0 1.0
 outer loop
  vertex -0.7403031088914391 0.47576391936092627 0.01
  vertex -0.8443538167807576 0.2479246500204584 0.01
  vertex -0.6081571951932854 0.2992801893189593 0.01
 endloop
endfacet
facet normal 0.0 0.0 1.0
 outer loop
  vertex -0.6081571951932854 0.2992801893189593 0.01
  vertex -0.8443538167807576 0.2479246500204584 0.01
  vertex -0.6961098643544967 0.12166511856837899 0.01
 endloop
endfacet
facet normal 0.0 0.0 1.0
 outer loop
  vertex -0.5762774458718503 0.6650596254317478 0.01
  vertex -0.7403031088914391 0.47576391936092627 0.01
  vertex -0.5446962428637735 0.4796370975987042 0.01
 endloop
endfacet
facet normal -0.0 0.0 1.0
 outer loop
  vertex -0.7403031088914391 0.47576391936092627 0.01
  vertex -0.6081571951932854 0.2992801893189593 0.01
  vertex -0.5446962428637735 0.4796370975987042 0.01
 endloop
endfacet
facet normal 0.0 0.0 1.0
 outer loop
  vertex -0.3655652114416588 0.8004761559119767 0.01
  vertex -0.5762774458718503 0.6650596254317478 0.01
  vertex -0.40418853164755003 0.5951348175694186 0.01
 endloop
endfacet
facet normal 0.0 0.0 1.0
 outer loop
  vertex -0.5762774458718503 0.6650596254317478 0.01
  vertex -0.5446962428637735 0.4796370975987042 0.01
  vertex -0.40418853164755003 0.5951348175694186 0.01
 endloop
endfacet
facet normal 0.0 0.0 1.0
 outer loop
  vertex -0.12523705768048918 0.8710428688552211 0.01
  vertex -0.3655652114416588 0.8004761559119767 0.01
  vertex -0.1863650677912737 0.6147137221872263 0.01
 endloop
endfacet
facet normal 0.0 0.0 1.0
 outer loop
  vertex -0.1863650677912737 0.6147137221872263 0.01
  vertex -0.3655652114416588 0.8004761559119767 0.01
  vertex -0.40418853164755003 0.5951348175694186 0.01
 endloop
endfacet
facet normal 0.0 0.0 1.0
 outer loop
  vertex 0.12523705768049312 0.8710428688552204 0.01
  vertex -0.12523705768048918 0.8710428688552211 0.01
  vertex 0.013072447774459262 0.7043060151921035 0.01
 endloop
endfacet
facet normal 0.0 0.0 1.0
 outer loop
  vertex -0.12523705768048918 0.8710428688552211 0.01
  vertex -0.1863650677912737 0.6147137221872263 0.01
  vertex 0.013072447774459262 0.7043060151921035 0.01
 endloop
endfacet
facet normal 0.0 0.0 1.0
 outer loop
  vertex 0.3655652114416625 0.8004761559119751 0.01
  vertex 0.12523705768049312 0.8710428688552204 0.01
  vertex 0.18916037851178638 0.6872855616799307 0.01
 endloop
endfacet
facet normal 0.0 0.0 1.0
 outer loop
  vertex 0.12523705768049312 0.8710428688552204 0.01
  vertex 0.013072447774459262 0.7043060151921035 0.01
  vertex 0.18916037851178638 0.6872855616799307 0.01
 endloop
endfacet
facet normal 0.0 0.0 1.0
 outer loop
  vertex 0.5762774458718531 0.6650596254317453 0.01
  vertex 0.3655652114416625 0.8004761559119751 0.01
  vertex 0.34797195870154923 0.5595138258119867 0.01
 endloop
endfacet
facet normal 0.0 -0.0 1.0
 outer loop
  vertex 0.34797195870154923 0.5595138258119867 0.01
  vertex 0.3655652114416625 0.8004761559119751 0.01
  vertex 0.18916037851178638 0.6872855616799307 0.01
 endloop
endfacet
facet normal 0.0 0.0 1.0
 outer loop
  vertex 0.7403031088914415 0.4757639193609227 0.01
  vertex 0.5762774458718531 0.6650596254317453 0.01
  vertex 0.4970026378017839 0.43522164217807857 0.01
 endloop
endfacet
facet normal 0.0 0.0 1.0
 outer loop
  vertex 0.5762774458718531 0.6650596254317453 0.01
  vertex 0.34797195870154923 0.5595138258119867 0.01
  vertex 0.4970026378017839 0.43522164217807857 0.01
 endloop
endfacet
facet normal 0.0 0.0 1.0
 outer loop
  vertex 0.8443538167807588 0.24792465002045436 0.01
  vertex 0.7403031088914415 0.4757639193609227 0.01
  vertex 0.6321378919485291 0.3044306414728779 0.01
 endloop
endfacet
facet normal 0.0 -0.0 1.0
 outer loop
  vertex 0.6321378919485291 0.3044306414728779 0.01
  vertex 0.7403031088914415 0.4757639193609227 0.01
  vertex 0.4970026378017839 0.43522164217807857 0.01
 endloop
endfacet
facet normal 0.0 0.0 1.0
 outer loop
  vertex 0.88 -4.581813137691694e-15 0.01
  vertex 0.8443538167807588 0.24792465002045436 0.01
  vertex 0.6474678632482962 0.09309182479440757 0.01
 endloop
endfacet
facet normal 0.0 -0.0 1.0
 outer loop
  vertex 0.6474678632482962 0.09309182479440757 0.01
  vertex 0.8443538167807588 0.24792465002045436 0.01
  vertex 0.6321378919485291 0.3044306414728779 0.01
 endloop
endfacet
facet normal 0.0 -0.0 1.0
 outer loop
  vertex 0.8443538167807563 -0.24792465002046274 0.01
  vertex 0.88 -4.581813137691694e-15 0.01
  vertex 0.6533515593473644 -0.12906934802582504 0.01
 endloop
endfacet
facet normal 0.0 0.0 1.0
 outer loop
  vertex 0.88 -4.581813137691694e-15 0.01
  vertex 0.6474678632482962 0.09309182479440757 0.01
  vertex 0.6533515593473644 -0.12906934802582504 0.01
 endloop
endfacet
facet normal 0.0 -0.0 1.0
 outer loop
  vertex 0.7403031088914367 -0.47576391936093015 0.01
  vertex 0.8443538167807563 -0.24792465002046274 0.01
  vertex 0.6475576923746263 -0.3080614227370568 0.01
 endloop
endfacet
facet normal 0.0 0.0 1.0
 outer loop
  vertex 0.8443538167807563 -0.24792465002046274 0.01
  vertex 0.6533515593473644 -0.12906934802582504 0.01
  vertex 0.6475576923746263 -0.3080614227370568 0.01
 endloop
endfacet
facet normal 0.0 -0.0 1.0
 outer loop
  vertex 0.5762774458718463 -0.6650596254317512 0.01
  vertex 0.7403031088914367 -0.47576391936093015 0.01
  vertex 0.519540571377139 -0.44107203164839925 0.01
 endloop
endfacet
facet normal -0.0 0.0 1.0
 outer loop
  vertex 0.519540571377139 -0.44107203164839925 0.01
  vertex 0.7403031088914367 -0.47576391936093015 0.01
  vertex 0.6475576923746263 -0.3080614227370568 0.01
 endloop
endfacet
facet normal 0.0 0.0 1.0
 outer loop
  vertex 0.3655652114416543 -0.8004761559119787 0.01
  vertex 0.5762774458718463 -0.6650596254317512 0.01
  vertex 0.40745932686148534 -0.5880076600820273 0.01
 endloop
endfacet
facet normal 0.0 0.0 1.0
 outer loop
  vertex 0.5762774458718463 -0.6650596254317512 0.01
  vertex 0.519540571377139 -0.44107203164839925 0.01
  vertex 0.40745932686148534 -0.5880076600820273 0.01
 endloop
endfacet
facet normal 0.0 0.0 1.0
 outer loop
  vertex 0.12523705768048407 -0.8710428688552219 0.01
  vertex 0.3655652114416543 -0.8004761559119787 0.01
  vertex 0.22455666915546818 -0.6164198984882314 0.01
 endloop
endfacet
facet normal -0.0 0.0 1.0
 outer loop
  vertex 0.22455666915546818 -0.6164198984882314 0.01
  vertex 0.3655652114416543 -0.8004761559119787 0.01
  vertex 0.40745932686148534 -0.5880076600820273 0.01
 endloop
endfacet
facet normal -0.0 0.0 1.0
 outer loop
  vertex -0.12523705768049612 -0.8710428688552201 0.01
  vertex 0.12523705768048407 -0.8710428688552219 0.01
  vertex 0.004802226376242053 -0.6442407483563446 0.01
 endloop
endfacet
facet normal -0.0 0.0 1.0
 outer loop
  vertex 0.004802226376242053 -0.6442407483563446 0.01
  vertex 0.12523705768048407 -0.8710428688552219 0.01
  vertex 0.22455666915546818 -0.6164198984882314 0.01
 endloop
endfacet
facet normal -0.0 0.0 1.0
 outer loop
  vertex -0.3655652114416647 -0.8004761559119741 0.01
  vertex -0.12523705768049612 -0.8710428688552201 0.01
  vertex -0.20053469701723758 -0.6829584585861131 0.01
 endloop
endfacet
facet normal 0.0 -0.0 1.0
 outer loop
  vertex -0.12523705768049612 -0.8710428688552201 0.01
  vertex 0.004802226376242053 -0.6442407483563446 0.01
  vertex -0.20053469701723758 -0.6829584585861131 0.01
 endloop
endfacet
facet normal -0.0 0.0 1.0
 outer loop
  vertex -0.5762774458718527 -0.6650596254317456 0.01
  vertex -0.3655652114416647 -0.8004761559119741 0.01
  vertex -0.3536471731685311 -0.5502857427671349 0.01
 endloop
endfacet
facet normal 0.0 0.0 1.0
 outer loop
  vertex -0.3536471731685311 -0.5502857427671349 0.01
  vertex -0.3655652114416647 -0.8004761559119741 0.01
  vertex -0.20053469701723758 -0.6829584585861131 0.01
 endloop
endfacet
facet normal -0.0 0.0 1.0
 outer loop
  vertex -0.7403031088914407 -0.4757639193609238 0.01
  vertex -0.5762774458718527 -0.6650596254317456 0.01
  vertex -0.5309198016942316 -0.46031921957630495 0.01
 endloop
endfacet
facet normal 0.0 0.0 1.0
 outer loop
  vertex -0.5762774458718527 -0.6650596254317456 0.01
  vertex -0.3536471731685311 -0.5502857427671349 0.01
  vertex -0.5309198016942316 -0.46031921957630495 0.01
 endloop
endfacet
facet normal 0.0 0.0 1.0
 outer loop
  vertex -0.8443538167807577 -0.24792465002045816 0.01
  vertex -0.7403031088914407 -0.4757639193609238 0.01
  vertex -0.5950138676075709 -0.27173372837678844 0.01
 endloop
endfacet
facet normal 0.0 0.0 1.0
 outer loop
  vertex -0.5950138676075709 -0.27173372837678844 0.01
  vertex -0.7403031088914407 -0.4757639193609238 0.01
  vertex -0.5309198016942316 -0.46031921957630495 0.01
 endloop
endfacet
facet normal -0.0 0.0 1.0
 outer loop
  vertex -0.8443538167807577 -0.24792465002045816 0.01
  vertex -0.5950138676075709 -0.27173372837678844 0.01
  vertex -0.6559192268139268 -0.0612252789810417 0.01
 endloop
endfacet
facet normal -0.0 0.0 1.0
 outer loop
  vertex -0.5309198016942316 -0.46031921957630495 0.01
  vertex -0.3536471731685311 -0.5502857427671349 0.01
  vertex -0.37528588585556016 -0.3180846666871211 0.01
 endloop
endfacet
facet normal 0.0 0.0 1.0
 outer loop
  vertex -0.37528588585556016 -0.3180846666871211 0.01
  vertex -0.3536471731685311 -0.5502857427671349 0.01
  vertex -0.1377549172134813 -0.42874530249050935 0.01
 endloop
endfacet
facet normal 0.0 0.0 1.0
 outer loop
  vertex -0.1377549172134813 -0.42874530249050935 0.01
  vertex -0.3536471731685311 -0.5502857427671349 0.01
  vertex -0.20053469701723758 -0.6829584585861131 0.01
 endloop
endfacet
facet normal 0.0 0.0 1.0
 outer loop
  vertex 0.09395521696076774 0.5010889426283679 0.01
  vertex 0.34797195870154923 0.5595138258119867 0.01
  vertex 0.18916037851178638 0.6872855616799307 0.01
 endloop
endfacet
facet normal 0.0 0.0 1.0
 outer loop
  vertex 0.34797195870154923 0.5595138258119867 0.01
  vertex 0.09395521696076774 0.5010889426283679 0.01
  vertex 0.2838306239286235 0.38838984537495613 0.01
 endloop
endfacet
facet normal 0.0 0.0 1.0
 outer loop
  vertex 0.34797195870154923 0.5595138258119867 0.01
  vertex 0.2838306239286235 0.38838984537495613 0.01
  vertex 0.4970026378017839 0.43522164217807857 0.01
 endloop
endfacet
facet normal 0.0 0.0 1.0
 outer loop
  vertex 0.4802394054764352 -0.2464771646296668 0.01
  vertex 0.519540571377139 -0.44107203164839925 0.01
  vertex 0.6475576923746263 -0.3080614227370568 0.01
 endloop
endfacet
facet normal 0.0 0.0 1.0
 outer loop
  vertex 0.519540571377139 -0.44107203164839925 0.01
  vertex 0.4802394054764352 -0.2464771646296668 0.01
  vertex 0.3382256164048032 -0.41603124700063787 0.01
 endloop
endfacet
facet normal 0.0 -0.0 1.0
 outer loop
  vertex 0.40745932686148534 -0.5880076600820273 0.01
  vertex 0.519540571377139 -0.44107203164839925 0.01
  vertex 0.3382256164048032 -0.41603124700063787 0.01
 endloop
endfacet
facet normal 0.0 0.0 1.0
 outer loop
  vertex -0.3695036715441939 0.3815980213716546 0.01
  vertex -0.6081571951932854 0.2992801893189593 0.01
  vertex -0.49211908298451346 0.12234603248351897 0.01
 endloop
endfacet
facet normal 0.0 0.0 1.0
 outer loop
  vertex -0.6081571951932854 0.2992801893189593 0.01
  vertex -0.3695036715441939 0.3815980213716546 0.01
  vertex -0.5446962428637735 0.4796370975987042 0.01
 endloop
endfacet
facet normal 0.0 0.0 1.0
 outer loop
  vertex -0.49211908298451346 0.12234603248351897 0.01
  vertex -0.6081571951932854 0.2992801893189593 0.01
  vertex -0.6961098643544967 0.12166511856837899 0.01
 endloop
endfacet
facet normal 0.0 0.0 1.0
 outer loop
  vertex 0.6474678632482962 0.09309182479440757 0.01
  vertex 0.40149479746870725 0.21817199561598305 0.01
  vertex 0.44330101630301433 -0.03971155177732027 0.01
 endloop
endfacet
facet normal -0.0 0.0 1.0
 outer loop
  vertex 0.40149479746870725 0.21817199561598305 0.01
  vertex 0.6474678632482962 0.09309182479440757 0.01
  vertex 0.6321378919485291 0.3044306414728779 0.01
 endloop
endfacet
facet normal 0.0 0.0 1.0
 outer loop
  vertex 0.6474678632482962 0.09309182479440757 0.01
  vertex 0.44330101630301433 -0.03971155177732027 0.01
  vertex 0.6533515593473644 -0.12906934802582504 0.01
 endloop
endfacet
facet normal 0.0 0.0 1.0
 outer loop
  vertex -0.1863650677912737 0.6147137221872263 0.01
  vertex -0.11691314485333962 0.3182748474446525 0.01
  vertex 0.09395521696076774 0.5010889426283679 0.01
 endloop
endfacet
facet normal 0.0 0.0 1.0
 outer loop
  vertex -0.11691314485333962 0.3182748474446525 0.01
  vertex -0.1863650677912737 0.6147137221872263 0.01
  vertex -0.3695036715441939 0.3815980213716546 0.01
 endloop
endfacet
facet normal -0.0 0.0 1.0
 outer loop
  vertex -0.1863650677912737 0.6147137221872263 0.01
  vertex 0.09395521696076774 0.5010889426283679 0.01
  vertex 0.013072447774459262 0.7043060151921035 0.01
 endloop
endfacet
facet normal 0.0 -0.0 1.0
 outer loop
  vertex -0.3695036715441939 0.3815980213716546 0.01
  vertex -0.1863650677912737 0.6147137221872263 0.01
  vertex -0.40418853164755003 0.5951348175694186 0.01
 endloop
endfacet
facet normal 0.0 0.0 1.0
 outer loop
  vertex -0.5950138676075709 -0.27173372837678844 0.01
  vertex -0.5309198016942316 -0.46031921957630495 0.01
  vertex -0.37528588585556016 -0.3180846666871211 0.01
 endloop
endfacet
facet normal -0.0 0.0 1.0
 outer loop
  vertex -0.5950138676075709 -0.27173372837678844 0.01
  vertex -0.37528588585556016 -0.3180846666871211 0.01
  vertex -0.43343102247178883 -0.08608693504040349 0.01
 endloop
endfacet
facet normal 0.0 -0.0 1.0
 outer loop
  vertex -0.5950138676075709 -0.27173372837678844 0.01
  vertex -0.43343102247178883 -0.08608693504040349 0.01
  vertex -0.6559192268139268 -0.0612252789810417 0.01
 endloop
endfacet
facet normal 0.0 -0.0 1.0
 outer loop
  vertex 0.004802226376242053 -0.6442407483563446 0.01
  vertex 0.12327909775731963 -0.4062583135246521 0.01
  vertex -0.1377549172134813 -0.42874530249050935 0.01
 endloop
endfacet
facet normal 0.0 0.0 1.0
 outer loop
  vertex 0.12327909775731963 -0.4062583135246521 0.01
  vertex 0.004802226376242053 -0.6442407483563446 0.01
  vertex 0.22455666915546818 -0.6164198984882314 0.01
 endloop
endfacet
facet normal 0.0 0.0 1.0
 outer loop
  vertex 0.004802226376242053 -0.6442407483563446 0.01
  vertex -0.1377549172134813 -0.42874530249050935 0.01
  vertex -0.20053469701723758 -0.6829584585861131 0.01
 endloop
endfacet
facet normal 0.0 0.0 1.0
 outer loop
  vertex -0.43343102247178883 -0.08608693504040349 0.01
  vertex -0.37528588585556016 -0.3180846666871211 0.01
  vertex -0.20116585906148915 -0.13493580628953536 0.01
 endloop
endfacet
facet normal 0.0 0.0 1.0
 outer loop
  vertex -0.20116585906148915 -0.13493580628953536 0.01
  vertex -0.37528588585556016 -0.3180846666871211 0.01
  vertex -0.1377549172134813 -0.42874530249050935 0.01
 endloop
endfacet
facet normal -0.0 0.0 1.0
 outer loop
  vertex -0.43343102247178883 -0.08608693504040349 0.01
  vertex -0.20116585906148915 -0.13493580628953536 0.01
  vertex -0.27124227974363047 0.11627928613762757 0.01
 endloop
endfacet
facet normal 0.0 -0.0 1.0
 outer loop
  vertex -0.43343102247178883 -0.08608693504040349 0.01
  vertex -0.27124227974363047 0.11627928613762757 0.01
  vertex -0.49211908298451346 0.12234603248351897 0.01
 endloop
endfacet
facet normal -0.0 0.0 1.0
 outer loop
  vertex -0.6559192268139268 -0.0612252789810417 0.01
  vertex -0.43343102247178883 -0.08608693504040349 0.01
  vertex -0.49211908298451346 0.12234603248351897 0.01
 endloop
endfacet
facet normal 0.0 0.0 1.0
 outer loop
  vertex -0.27124227974363047 0.11627928613762757 0.01
  vertex -0.20116585906148915 -0.13493580628953536 0.01
  vertex -0.032981526662709086 0.06954643633231544 0.01
 endloop
endfacet
facet normal 0.0 0.0 1.0
 outer loop
  vertex -0.032981526662709086 0.06954643633231544 0.01
  vertex -0.20116585906148915 -0.13493580628953536 0.01
  vertex 0.05106016343758824 -0.16739706672083657 0.01
 endloop
endfacet
facet normal 0.0 0.0 1.0
 outer loop
  vertex 0.05106016343758824 -0.16739706672083657 0.01
  vertex -0.20116585906148915 -0.13493580628953536 0.01
  vertex -0.1377549172134813 -0.42874530249050935 0.01
 endloop
endfacet
facet normal -0.0 0.0 1.0
 outer loop
  vertex -0.27124227974363047 0.11627928613762757 0.01
  vertex -0.032981526662709086 0.06954643633231544 0.01
  vertex -0.11691314485333962 0.3182748474446525 0.01
 endloop
endfacet
facet normal 0.0 -0.0 1.0
 outer loop
  vertex -0.27124227974363047 0.11627928613762757 0.01
  vertex -0.11691314485333962 0.3182748474446525 0.01
  vertex -0.3695036715441939 0.3815980213716546 0.01
 endloop
endfacet
facet normal 0.0 0.0 1.0
 outer loop
  vertex -0.27124227974363047 0.11627928613762757 0.01
  vertex -0.3695036715441939 0.3815980213716546 0.01
  vertex -0.49211908298451346 0.12234603248351897 0.01
 endloop
endfacet
facet normal 0.0 0.0 1.0
 outer loop
  vertex -0.032981526662709086 0.06954643633231544 0.01
  vertex 0.05106016343758824 -0.16739706672083657 0.01
  vertex 0.21032946290981797 0.026437917075784245 0.01
 endloop
endfacet
facet normal -0.0 0.0 1.0
 outer loop
  vertex -0.032981526662709086 0.06954643633231544 0.01
  vertex 0.21032946290981797 0.026437917075784245 0.01
  vertex 0.12486575823558871 0.250425544295805 0.01
 endloop
endfacet
facet normal 0.0 -0.0 1.0
 outer loop
  vertex -0.032981526662709086 0.06954643633231544 0.01
  vertex 0.12486575823558871 0.250425544295805 0.01
  vertex -0.11691314485333962 0.3182748474446525 0.01
 endloop
endfacet
facet normal 0.0 0.0 1.0
 outer loop
  vertex 0.21032946290981797 0.026437917075784245 0.01
  vertex 0.05106016343758824 -0.16739706672083657 0.01
  vertex 0.274278627800972 -0.19795241363085042 0.01
 endloop
endfacet
facet normal 0.0 0.0 1.0
 outer loop
  vertex 0.274278627800972 -0.19795241363085042 0.01
  vertex 0.05106016343758824 -0.16739706672083657 0.01
  vertex 0.12327909775731963 -0.4062583135246521 0.01
 endloop
endfacet
facet normal 0.0 0.0 1.0
 outer loop
  vertex 0.12327909775731963 -0.4062583135246521 0.01
  vertex 0.05106016343758824 -0.16739706672083657 0.01
  vertex -0.1377549172134813 -0.42874530249050935 0.01
 endloop
endfacet
facet normal 0.0 0.0 1.0
 outer loop
  vertex 0.12486575823558871 0.250425544295805 0.01
  vertex 0.21032946290981797 0.026437917075784245 0.01
  vertex 0.40149479746870725 0.21817199561598305 0.01
 endloop
endfacet
facet normal 0.0 0.0 1.0
 outer loop
  vertex 0.40149479746870725 0.21817199561598305 0.01
  vertex 0.21032946290981797 0.026437917075784245 0.01
  vertex 0.44330101630301433 -0.03971155177732027 0.01
 endloop
endfacet
facet normal 0.0 0.0 1.0
 outer loop
  vertex 0.21032946290981797 0.026437917075784245 0.01
  vertex 0.274278627800972 -0.19795241363085042 0.01
  vertex 0.44330101630301433 -0.03971155177732027 0.01
 endloop
endfacet
facet normal -0.0 0.0 1.0
 outer loop
  vertex 0.12486575823558871 0.250425544295805 0.01
  vertex 0.40149479746870725 0.21817199561598305 0.01
  vertex 0.2838306239286235 0.38838984537495613 0.01
 endloop
endfacet
facet normal -0.0 0.0 1.0
 outer loop
  vertex -0.11691314485333962 0.3182748474446525 0.01
  vertex 0.12486575823558871 0.250425544295805 0.01
  vertex 0.09395521696076774 0.5010889426283679 0.01
 endloop
endfacet
facet normal 0.0 0.0 1.0
 outer loop
  vertex 0.09395521696076774 0.5010889426283679 0.01
  vertex 0.12486575823558871 0.250425544295805 0.01
  vertex 0.2838306239286235 0.38838984537495613 0.01
 endloop
endfacet
facet normal 0.0 0.0 1.0
 outer loop
  vertex 0.40149479746870725 0.21817199561598305 0.01
  vertex 0.6321378919485291 0.3044306414728779 0.01
  vertex 0.4970026378017839 0.43522164217807857 0.01
 endloop
endfacet
facet normal -0.0 0.0 1.0
 outer loop
  vertex 0.2838306239286235 0.38838984537495613 0.01
  vertex 0.40149479746870725 0.21817199561598305 0.01
  vertex 0.4970026378017839 0.43522164217807857 0.01
 endloop
endfacet
facet normal 0.0 0.0 1.0
 outer loop
  vertex 0.274278627800972 -0.19795241363085042 0.01
  vertex 0.12327909775731963 -0.4062583135246521 0.01
  vertex 0.3382256164048032 -0.41603124700063787 0.01
 endloop
endfacet
facet normal 0.0 0.0 1.0
 outer loop
  vertex 0.44330101630301433 -0.03971155177732027 0.01
  vertex 0.274278627800972 -0.19795241363085042 0.01
  vertex 0.4802394054764352 -0.2464771646296668 0.01
 endloop
endfacet
facet normal 0.0 0.0 1.0
 outer loop
  vertex 0.4802394054764352 -0.2464771646296668 0.01
  vertex 0.274278627800972 -0.19795241363085042 0.01
  vertex 0.3382256164048032 -0.41603124700063787 0.01
 endloop
endfacet
facet normal 0.0 0.0 1.0
 outer loop
  vertex 0.12327909775731963 -0.4062583135246521 0.01
  vertex 0.22455666915546818 -0.6164198984882314 0.01
  vertex 0.3382256164048032 -0.41603124700063787 0.01
 endloop
endfacet
facet normal 0.0 0.0 1.0
 outer loop
  vertex 0.013072447774459262 0.7043060151921035 0.01
  vertex 0.09395521696076774 0.5010889426283679 0.01
  vertex 0.18916037851178638 0.6872855616799307 0.01
 endloop
endfacet
facet normal -0.0 0.0 1.0
 outer loop
  vertex -0.5446962428637735 0.4796370975987042 0.01
  vertex -0.3695036715441939 0.3815980213716546 0.01
  vertex -0.40418853164755003 0.5951348175694186 0.01
 endloop
endfacet
facet normal 0.0 0.0 1.0
 outer loop
  vertex 0.6533515593473644 -0.12906934802582504 0.01
  vertex 0.44330101630301433 -0.03971155177732027 0.01
  vertex 0.4802394054764352 -0.2464771646296668 0.01
 endloop
endfacet
facet normal 0.0 0.0 1.0
 outer loop
  vertex 0.22455666915546818 -0.6164198984882314 0.01
  vertex 0.40745932686148534 -0.5880076600820273 0.01
  vertex 0.3382256164048032 -0.41603124700063787 0.01
 endloop
endfacet
facet normal 0.0 0.0 1.0
 outer loop
  vertex 0.6533515593473644 -0.12906934802582504 0.01
  vertex 0.4802394054764352 -0.2464771646296668 0.01
  vertex 0.6475576923746263 -0.3080614227370568 0.01
 endloop
endfacet
facet normal 0.0 -0.0 1.0
 outer loop
  vertex -0.6559192268139268 -0.0612252789810417 0.01
  vertex -0.49211908298451346 0.12234603248351897 0.01
  vertex -0.6961098643544967 0.12166511856837899 0.01
 endloop
endfacet
facet normal 0.0 -0.0 -1.0
 outer loop
  vertex -0.26811555509164225 0.22497566339028885 -0.5300000000000001
  vertex -0.06966638133762453 0.09969577303889812 -0.5300000000000001
  vertex -0.35 -8.572527594031472e-17 -0.5300000000000001
 endloop
endfacet
facet normal 0.0 0.0 -1.0
 outer loop
  vertex -0.35 -8.572527594031472e-17 -0.5300000000000001
  vertex -0.12635263610647868 -0.10603467184065607 -0.5300000000000001
  vertex -0.26811555509164126 -0.22497566339029001 -0.5300000000000001
 endloop
endfacet
facet normal 0.0 0.0 -1.0
 outer loop
  vertex -0.06966638133762453 0.09969577303889812 -0.5300000000000001
  vertex -0.12635263610647868 -0.10603467184065607 -0.5300000000000001
  vertex -0.35 -8.572527594031472e-17 -0.5300000000000001
 endloop
endfacet
facet normal 0.0 0.0 -1.0
 outer loop
  vertex -0.0607768621834255 0.3446827135542728 -0.5300000000000001
  vertex -0.06966638133762453 0.09969577303889812 -0.5300000000000001
  vertex -0.26811555509164225 0.22497566339028885 -0.5300000000000001
 endloop
endfacet
facet normal -0.0 0.0 -1.0
 outer loop
  vertex 0.1750000000000003 0.3031088913245533 -0.5300000000000001
  vertex 0.13146640950431404 0.11029915732760054 -0.5300000000000001
  vertex -0.0607768621834255 0.3446827135542728 -0.5300000000000001
 endloop
endfacet
facet normal 0.0 -0.0 -1.0
 outer loop
  vertex -0.0607768621834255 0.3446827135542728 -0.5300000000000001
  vertex 0.13146640950431404 0.11029915732760054 -0.5300000000000001
  vertex -0.06966638133762453 0.09969577303889812 -0.5300000000000001
 endloop
endfacet
facet normal -0.0 0.0 -1.0
 outer loop
  vertex 0.328892417275068 0.11970705016398381 -0.5300000000000001
  vertex 0.13146640950431404 0.11029915732760054 -0.5300000000000001
  vertex 0.1750000000000003 0.3031088913245533 -0.5300000000000001
 endloop
endfacet
facet normal 0.0 0.0 -1.0
 outer loop
  vertex 0.32889241727506807 -0.11970705016398372 -0.5300000000000001
  vertex 0.13146640950431404 0.11029915732760054 -0.5300000000000001
  vertex 0.328892417275068 0.11970705016398381 -0.5300000000000001
 endloop
endfacet
facet normal 0.0 0.0 -1.0
 outer loop
  vertex 0.17500000000000124 -0.30310889132455276 -0.5300000000000001
  vertex 0.08645686599679794 -0.08569243395212113 -0.5300000000000001
  vertex 0.32889241727506807 -0.11970705016398372 -0.5300000000000001
 endloop
endfacet
facet normal 0.0 0.0 -1.0
 outer loop
  vertex 0.08645686599679794 -0.08569243395212113 -0.5300000000000001
  vertex 0.13146640950431404 0.11029915732760054 -0.5300000000000001
  vertex 0.32889241727506807 -0.11970705016398372 -0.5300000000000001
 endloop
endfacet
facet normal 0.0 0.0 -1.0
 outer loop
  vertex -0.06077686218342395 -0.3446827135542731 -0.5300000000000001
  vertex 0.08645686599679794 -0.08569243395212113 -0.5300000000000001
  vertex 0.17500000000000124 -0.30310889132455276 -0.5300000000000001
 endloop
endfacet
facet normal 0.0 0.0 -1.0
 outer loop
  vertex -0.26811555509164126 -0.22497566339029001 -0.5300000000000001
  vertex -0.12635263610647868 -0.10603467184065607 -0.5300000000000001
  vertex -0.06077686218342395 -0.3446827135542731 -0.5300000000000001
 endloop
endfacet
facet normal 0.0 0.0 -1.0
 outer loop
  vertex -0.06077686218342395 -0.3446827135542731 -0.5300000000000001
  vertex -0.12635263610647868 -0.10603467184065607 -0.5300000000000001
  vertex 0.08645686599679794 -0.08569243395212113 -0.5300000000000001
 endloop
endfacet
facet normal 0.0 0.0 -1.0
 outer loop
  vertex -0.06966638133762453 0.09969577303889812 -0.5300000000000001
  vertex 0.13146640950431404 0.11029915732760054 -0.5300000000000001
  vertex 0.08645686599679794 -0.08569243395212113 -0.5300000000000001
 endloop
endfacet
facet normal -0.0 0.0 -1.0
 outer loop
  vertex 0.08645686599679794 -0.08569243395212113 -0.5300000000000001
  vertex -0.12635263610647868 -0.10603467184065607 -0.5300000000000001
  vertex -0.06966638133762453 0.09969577303889812 -0.5300000000000001
 endloop
endfacet
endsolid
